HyperScrypt.ufo
<glyph name="space" format="1">
  <advance width="375"/>
  <unicode hex="0020"/>
  <outline>
    <contour>
      <point x="0" y="0" type="line"/>
      <point x="375" y="0" type="line"/>
      <point x="375" y="350" type="line"/>
      <point x="330" y="350" type="line" smooth="yes"/>
      <point x="315.0" y="350.0"/>
      <point x="305.0" y="360.0"/>
      <point x="305" y="375" type="curve" smooth="yes"/>
      <point x="305.0" y="390.0"/>
      <point x="315.0" y="400.0"/>
      <point x="330" y="400" type="curve" smooth="yes"/>
      <point x="375" y="400" type="line"/>
      <point x="375" y="750" type="line"/>
      <point x="0" y="750" type="line"/>
      <point x="0" y="400" type="line"/>
      <point x="45" y="400" type="line" smooth="yes"/>
      <point x="60.0" y="400.0"/>
      <point x="70.0" y="390.0"/>
      <point x="70" y="375" type="curve" smooth="yes"/>
      <point x="70.0" y="360.0"/>
      <point x="60.0" y="350.0"/>
      <point x="45" y="350" type="curve" smooth="yes"/>
      <point x="0" y="350" type="line"/>
    </contour>
    <component base="jointure"/>
  </outline>
</glyph>
<glyph name="exclam" format="1">
  <advance width="375"/>
  <unicode hex="0021"/>
  <outline>
    <contour>
      <point x="0" y="0" type="line"/>
      <point x="375" y="0" type="line"/>
      <point x="375" y="350" type="line"/>
      <point x="245" y="350" type="line" smooth="yes"/>
      <point x="224" y="350"/>
      <point x="216" y="346"/>
      <point x="216" y="334" type="curve" smooth="yes"/>
      <point x="216" y="326"/>
      <point x="219" y="321"/>
      <point x="236" y="314" type="curve" smooth="yes"/>
      <point x="285" y="294"/>
      <point x="321" y="246"/>
      <point x="321" y="190" type="curve" smooth="yes"/>
      <point x="321" y="117"/>
      <point x="261" y="56"/>
      <point x="187" y="56" type="curve"/>
      <point x="114" y="56"/>
      <point x="54" y="117"/>
      <point x="54" y="190" type="curve" smooth="yes"/>
      <point x="54" y="246"/>
      <point x="90" y="294"/>
      <point x="139" y="314" type="curve" smooth="yes"/>
      <point x="156" y="321"/>
      <point x="159" y="326"/>
      <point x="159" y="334" type="curve" smooth="yes"/>
      <point x="159" y="346"/>
      <point x="151" y="350"/>
      <point x="130" y="350" type="curve" smooth="yes"/>
      <point x="0" y="350" type="line"/>
    </contour>
    <contour>
      <point x="0" y="750" type="curve"/>
      <point x="0" y="400" type="line"/>
      <point x="120" y="400" type="line" smooth="yes"/>
      <point x="151" y="400"/>
      <point x="163" y="413"/>
      <point x="151" y="451" type="curve" smooth="yes"/>
      <point x="72" y="689" type="line" smooth="yes"/>
      <point x="60" y="726"/>
      <point x="44" y="750"/>
    </contour>
    <contour>
      <point x="375" y="750" type="line"/>
      <point x="331" y="750"/>
      <point x="315" y="726"/>
      <point x="303" y="689" type="curve" smooth="yes"/>
      <point x="224" y="451" type="line" smooth="yes"/>
      <point x="212" y="413"/>
      <point x="224" y="400"/>
      <point x="255" y="400" type="curve" smooth="yes"/>
      <point x="375" y="400" type="line"/>
    </contour>
    <component base="jointure"/>
  </outline>
</glyph>
<glyph name="numbersign" format="1">
  <advance width="750"/>
  <unicode hex="0023"/>
  <outline>
    <contour>
      <point x="0" y="750" type="line"/>
      <point x="0" y="400" type="line"/>
      <point x="68" y="400" type="line" smooth="yes"/>
      <point x="98" y="400"/>
      <point x="118" y="417"/>
      <point x="123" y="447" type="curve" smooth="yes"/>
      <point x="162" y="700" type="line" smooth="yes"/>
      <point x="166" y="729"/>
      <point x="150" y="750"/>
      <point x="112" y="750" type="curve" smooth="yes"/>
    </contour>
    <contour>
      <point x="55" y="350" type="curve" smooth="yes"/>
      <point x="0" y="350" type="line"/>
      <point x="0" y="0" type="line"/>
      <point x="12" y="0" type="line" smooth="yes"/>
      <point x="40" y="0"/>
      <point x="58" y="21"/>
      <point x="62" y="50" type="curve" smooth="yes"/>
      <point x="100" y="298" type="line" smooth="yes"/>
      <point x="104" y="326"/>
      <point x="84" y="350"/>
    </contour>
    <contour>
      <point x="750" y="0" type="line"/>
      <point x="750" y="350" type="line"/>
      <point x="682" y="350" type="line" smooth="yes"/>
      <point x="652" y="350"/>
      <point x="632" y="333"/>
      <point x="627" y="303" type="curve" smooth="yes"/>
      <point x="588" y="50" type="line" smooth="yes"/>
      <point x="584" y="21"/>
      <point x="600" y="0"/>
      <point x="638" y="0" type="curve" smooth="yes"/>
    </contour>
    <contour>
      <point x="695" y="400" type="curve" smooth="yes"/>
      <point x="750" y="400" type="line"/>
      <point x="750" y="750" type="line"/>
      <point x="738" y="750" type="line" smooth="yes"/>
      <point x="710" y="750"/>
      <point x="692" y="729"/>
      <point x="688" y="700" type="curve" smooth="yes"/>
      <point x="650" y="452" type="line" smooth="yes"/>
      <point x="646" y="424"/>
      <point x="666" y="400"/>
    </contour>
    <contour>
      <point x="340" y="532" type="curve" smooth="yes"/>
      <point x="470" y="553" type="line" smooth="yes"/>
      <point x="500" y="558"/>
      <point x="516" y="569"/>
      <point x="521" y="599" type="curve" smooth="yes"/>
      <point x="537" y="700" type="line" smooth="yes"/>
      <point x="542" y="729"/>
      <point x="525" y="750"/>
      <point x="487" y="750" type="curve" smooth="yes"/>
      <point x="363" y="750" type="line" smooth="yes"/>
      <point x="335" y="750"/>
      <point x="318" y="729"/>
      <point x="313" y="700" type="curve" smooth="yes"/>
      <point x="293" y="571" type="line" smooth="yes"/>
      <point x="288" y="540"/>
      <point x="304" y="526"/>
    </contour>
    <contour>
      <point x="410" y="218" type="curve" smooth="yes"/>
      <point x="280" y="197" type="line" smooth="yes"/>
      <point x="250" y="192"/>
      <point x="234" y="181"/>
      <point x="229" y="151" type="curve" smooth="yes"/>
      <point x="213" y="50" type="line" smooth="yes"/>
      <point x="208" y="21"/>
      <point x="225" y="0"/>
      <point x="263" y="0" type="curve" smooth="yes"/>
      <point x="387" y="0" type="line" smooth="yes"/>
      <point x="415" y="0"/>
      <point x="432" y="21"/>
      <point x="437" y="50" type="curve" smooth="yes"/>
      <point x="457" y="179" type="line" smooth="yes"/>
      <point x="462" y="210"/>
      <point x="446" y="224"/>
    </contour>
    <contour>
      <point x="494" y="419" type="line" smooth="yes"/>
      <point x="499" y="450"/>
      <point x="483" y="464"/>
      <point x="447" y="458" type="curve" smooth="yes"/>
      <point x="317" y="437" type="line" smooth="yes"/>
      <point x="287" y="432"/>
      <point x="271" y="421"/>
      <point x="266" y="391" type="curve" smooth="yes"/>
      <point x="256" y="331" type="line" smooth="yes"/>
      <point x="251" y="300"/>
      <point x="267" y="286"/>
      <point x="303" y="292" type="curve" smooth="yes"/>
      <point x="433" y="313" type="line" smooth="yes"/>
      <point x="463" y="318"/>
      <point x="479" y="329"/>
      <point x="484" y="359" type="curve" smooth="yes"/>
    </contour>
    <component base="jointure"/>
  </outline>
</glyph>
<glyph name="dollar" format="1">
  <advance width="750"/>
  <unicode hex="0024"/>
  <outline>
    <contour>
      <point x="82" y="522" type="curve" smooth="yes"/>
      <point x="82.0" y="596.0"/>
      <point x="159.76726054302327" y="673.105261692134"/>
      <point x="277" y="685" type="curve" smooth="yes"/>
      <point x="288.98008701929706" y="686.2155307524166"/>
      <point x="301.0" y="693.0"/>
      <point x="301" y="702" type="curve" smooth="yes"/>
      <point x="301" y="735" type="line" smooth="yes"/>
      <point x="301.0" y="743.0"/>
      <point x="296.0" y="750.0"/>
      <point x="282" y="750" type="curve" smooth="yes"/>
      <point x="0" y="750" type="line"/>
      <point x="0" y="400" type="line"/>
      <point x="146" y="400" type="line" smooth="yes"/>
      <point x="153.0" y="400.0"/>
      <point x="158.0" y="404.0"/>
      <point x="158" y="412" type="curve" smooth="yes"/>
      <point x="158.0" y="419.0"/>
      <point x="156.91663599003945" y="419.85900660405736"/>
      <point x="145" y="427" type="curve" smooth="yes"/>
      <point x="105.71975081794997" y="450.5385221327945"/>
      <point x="82.0" y="480.0"/>
    </contour>
    <contour>
      <point x="750" y="400" type="line"/>
      <point x="750" y="750" type="line"/>
      <point x="488" y="750" type="line" smooth="yes"/>
      <point x="472.0" y="750.0"/>
      <point x="467.0" y="745.0"/>
      <point x="467" y="738" type="curve" smooth="yes"/>
      <point x="467" y="716" type="line" smooth="yes"/>
      <point x="467.0" y="702.0"/>
      <point x="481.90046309282206" y="689.6492346070484"/>
      <point x="506" y="683" type="curve" smooth="yes"/>
      <point x="578.7151361883789" y="662.9373738233122"/>
      <point x="637.065172005683" y="613.0397166068644"/>
      <point x="673" y="554" type="curve" smooth="yes"/>
      <point x="690.030908306953" y="526.0187891212664"/>
      <point x="681.9547748401438" y="508.08411626966796"/>
      <point x="654" y="493" type="curve" smooth="yes"/>
      <point x="607.9250435640339" y="468.13841538791576"/>
      <point x="590.9730045171499" y="463.09190062118114"/>
      <point x="567" y="456" type="curve" smooth="yes"/>
      <point x="556.9885793960583" y="453.03833535136545"/>
      <point x="553.0" y="447.0"/>
      <point x="553" y="438" type="curve" smooth="yes"/>
      <point x="553.0" y="416.0"/>
      <point x="580.0" y="400.0"/>
      <point x="679" y="400" type="curve" smooth="yes"/>
    </contour>
    <contour>
      <point x="688" y="228" type="curve" smooth="yes"/>
      <point x="688.0" y="154.0"/>
      <point x="602.0399806812618" y="89.79333004577589"/>
      <point x="494" y="69" type="curve" smooth="yes"/>
      <point x="473.00769145494934" y="64.95982897027947"/>
      <point x="467.0" y="59.0"/>
      <point x="467" y="47" type="curve" smooth="yes"/>
      <point x="467" y="15" type="line" smooth="yes"/>
      <point x="467.0" y="7.0"/>
      <point x="472.0" y="0.0"/>
      <point x="486" y="0" type="curve" smooth="yes"/>
      <point x="750" y="0" type="line"/>
      <point x="750" y="350" type="line"/>
      <point x="604" y="350" type="line" smooth="yes"/>
      <point x="597.0" y="350.0"/>
      <point x="592.0" y="346.0"/>
      <point x="592" y="338" type="curve" smooth="yes"/>
      <point x="592.0" y="331.0"/>
      <point x="593.0420789142796" y="328.09981600723825"/>
      <point x="605" y="323" type="curve" smooth="yes"/>
      <point x="660.1980698128056" y="299.4591187730655"/>
      <point x="688.0" y="270.0"/>
    </contour>
    <contour>
      <point x="0" y="350" type="line"/>
      <point x="0" y="0" type="line"/>
      <point x="283" y="0" type="line" smooth="yes"/>
      <point x="295.0" y="0.0"/>
      <point x="301.0" y="6.0"/>
      <point x="301" y="15" type="curve" smooth="yes"/>
      <point x="301" y="41" type="line" smooth="yes"/>
      <point x="301.0" y="54.0"/>
      <point x="286.08394081874303" y="62.25924801569858"/>
      <point x="271" y="67" type="curve" smooth="yes"/>
      <point x="183.46114511490248" y="94.51270407295212"/>
      <point x="113.15694309874515" y="136.0944454515768"/>
      <point x="77" y="196" type="curve" smooth="yes"/>
      <point x="60.07335592427647" y="224.04440622180783"/>
      <point x="68.04522515985619" y="241.915883730332"/>
      <point x="96" y="257" type="curve" smooth="yes"/>
      <point x="142.0749564359661" y="281.86158461208424"/>
      <point x="168.0" y="288.0"/>
      <point x="183" y="294" type="curve" smooth="yes"/>
      <point x="193.0" y="298.0"/>
      <point x="197.0" y="304.0"/>
      <point x="197" y="311" type="curve" smooth="yes"/>
      <point x="197.0" y="336.0798724079689"/>
      <point x="170.0" y="350.0"/>
      <point x="71" y="350" type="curve" smooth="yes"/>
    </contour>
    <contour>
      <point x="394" y="685" type="line" smooth="yes"/>
      <point x="404.0" y="685.0"/>
      <point x="413.0" y="693.0"/>
      <point x="413" y="702" type="curve" smooth="yes"/>
      <point x="413" y="735" type="line" smooth="yes"/>
      <point x="413.0" y="743.0"/>
      <point x="408.0" y="750.0"/>
      <point x="394" y="750" type="curve" smooth="yes"/>
      <point x="374" y="750" type="line" smooth="yes"/>
      <point x="360.0" y="750.0"/>
      <point x="355.0" y="743.0"/>
      <point x="355" y="735" type="curve" smooth="yes"/>
      <point x="355" y="702" type="line" smooth="yes"/>
      <point x="355.0" y="693.0"/>
      <point x="364.0" y="685.0"/>
      <point x="374" y="685" type="curve" smooth="yes"/>
    </contour>
    <contour>
      <point x="394" y="63" type="curve" smooth="yes"/>
      <point x="374" y="63" type="line" smooth="yes"/>
      <point x="364.0" y="63.0"/>
      <point x="355.0" y="55.0"/>
      <point x="355" y="46" type="curve" smooth="yes"/>
      <point x="355" y="15" type="line" smooth="yes"/>
      <point x="355.0" y="7.0"/>
      <point x="360.0" y="0.0"/>
      <point x="374" y="0" type="curve" smooth="yes"/>
      <point x="394" y="0" type="line" smooth="yes"/>
      <point x="408.0" y="0.0"/>
      <point x="413.0" y="7.0"/>
      <point x="413" y="15" type="curve" smooth="yes"/>
      <point x="413" y="46" type="line" smooth="yes"/>
      <point x="413.0" y="55.0"/>
      <point x="404.0" y="63.0"/>
    </contour>
    <contour>
      <point x="301" y="546" type="line" smooth="yes"/>
      <point x="301.0" y="557.0"/>
      <point x="291.97356178343324" y="564.1403134782487"/>
      <point x="281" y="562" type="curve" smooth="yes"/>
      <point x="256.93810414998666" y="557.3069020782524"/>
      <point x="232.0" y="543.0"/>
      <point x="232" y="517" type="curve" smooth="yes"/>
      <point x="232.0" y="494.0"/>
      <point x="259.71268357581346" y="479.26290061710694"/>
      <point x="282" y="471" type="curve" smooth="yes"/>
      <point x="290.89518141460286" y="467.7021601613626"/>
      <point x="301.0" y="475.0"/>
      <point x="301" y="484" type="curve" smooth="yes"/>
    </contour>
    <contour>
      <point x="413" y="548" type="line" smooth="yes"/>
      <point x="413.0" y="561.0"/>
      <point x="406" y="569"/>
      <point x="393" y="570" type="curve" smooth="yes"/>
      <point x="375" y="571" type="line" smooth="yes"/>
      <point x="363" y="572"/>
      <point x="355.0" y="563.0"/>
      <point x="355" y="551" type="curve" smooth="yes"/>
      <point x="355" y="467" type="line" smooth="yes"/>
      <point x="355.0" y="454.0"/>
      <point x="361" y="445"/>
      <point x="374" y="442" type="curve" smooth="yes"/>
      <point x="394" y="437" type="line" smooth="yes"/>
      <point x="404" y="434"/>
      <point x="413.0" y="442.0"/>
      <point x="413" y="452" type="curve" smooth="yes"/>
    </contour>
    <contour>
      <point x="467" y="206" type="line" smooth="yes"/>
      <point x="467.0" y="195.0"/>
      <point x="476.0632069286936" y="187.4551513616461"/>
      <point x="487" y="189" type="curve" smooth="yes"/>
      <point x="513.2161605962604" y="192.7030964868719"/>
      <point x="538.0" y="209.0"/>
      <point x="538" y="233" type="curve" smooth="yes"/>
      <point x="538.0" y="255.0"/>
      <point x="511.105349236693" y="268.2981933080722"/>
      <point x="486" y="277" type="curve" smooth="yes"/>
      <point x="477.0363442028244" y="280.1069075862923"/>
      <point x="467.0" y="273.0"/>
      <point x="467" y="263" type="curve" smooth="yes"/>
    </contour>
    <contour>
      <point x="467" y="443" type="line" smooth="yes"/>
      <point x="467.0" y="431.0"/>
      <point x="474.9584054212077" y="424.0"/>
      <point x="487" y="424" type="curve" smooth="yes"/>
      <point x="495.0" y="424.0"/>
      <point x="516.0819857377501" y="436.9613985645626"/>
      <point x="533" y="473" type="curve" smooth="yes"/>
      <point x="540.0341242418672" y="487.98402803487687"/>
      <point x="540.0767264856038" y="499.06531290045547"/>
      <point x="529" y="512" type="curve" smooth="yes"/>
      <point x="516.0889802965639" y="527.0766564667862"/>
      <point x="494.8251260883581" y="541.587869296149"/>
      <point x="485" y="546" type="curve" smooth="yes"/>
      <point x="476.840676893688" y="549.6640751147872"/>
      <point x="467.0" y="543.0"/>
      <point x="467" y="534" type="curve" smooth="yes"/>
    </contour>
    <contour>
      <point x="355" y="200" type="line" smooth="yes"/>
      <point x="355" y="187"/>
      <point x="362.09805251267494" y="179.0"/>
      <point x="383" y="179" type="curve" smooth="yes"/>
      <point x="405.9921422360576" y="179.0"/>
      <point x="413" y="187"/>
      <point x="413" y="200" type="curve" smooth="yes"/>
      <point x="413" y="279" type="line" smooth="yes"/>
      <point x="413.0" y="292.0"/>
      <point x="406" y="300"/>
      <point x="393" y="303" type="curve" smooth="yes"/>
      <point x="374" y="308" type="line" smooth="yes"/>
      <point x="364" y="311"/>
      <point x="355.0" y="303.0"/>
      <point x="355" y="293" type="curve" smooth="yes"/>
    </contour>
    <contour>
      <point x="301" y="306" type="line" smooth="yes"/>
      <point x="301.0" y="318.0"/>
      <point x="292.9768468058809" y="326.75294723910304"/>
      <point x="281" y="328" type="curve" smooth="yes"/>
      <point x="264.9621861823914" y="329.6698886045849"/>
      <point x="236.93137831085167" y="320.5056336424343"/>
      <point x="217" y="277" type="curve" smooth="yes"/>
      <point x="210.65599401979983" y="263.1524880168608"/>
      <point x="211.92873039114377" y="248.93859569792826"/>
      <point x="224" y="235" type="curve" smooth="yes"/>
      <point x="237.9181883314712" y="218.92878244905825"/>
      <point x="263.170896582766" y="201.60935508798522"/>
      <point x="282" y="196" type="curve" smooth="yes"/>
      <point x="291.091954279956" y="193.29142706002025"/>
      <point x="301.0" y="200.0"/>
      <point x="301" y="210" type="curve" smooth="yes"/>
    </contour>
    <component base="jointure"/>
    <component base="jointure"/>
  </outline>
</glyph>
<glyph name="percent" format="1">
  <advance width="750"/>
  <unicode hex="0025"/>
  <outline>
    <contour>
      <point x="750" y="400" type="line"/>
      <point x="750" y="750" type="line"/>
      <point x="707" y="750"/>
      <point x="654" y="720"/>
      <point x="588" y="601" type="curve" smooth="yes"/>
      <point x="504" y="450" type="line" smooth="yes"/>
      <point x="492" y="428"/>
      <point x="507" y="400"/>
      <point x="534" y="400" type="curve" smooth="yes"/>
    </contour>
    <contour>
      <point x="0" y="350" type="line"/>
      <point x="0" y="0" type="line"/>
      <point x="43" y="0"/>
      <point x="96" y="30"/>
      <point x="162" y="149" type="curve" smooth="yes"/>
      <point x="246" y="300" type="line" smooth="yes"/>
      <point x="258" y="322"/>
      <point x="243" y="350"/>
      <point x="216" y="350" type="curve" smooth="yes"/>
    </contour>
    <contour>
      <point x="449" y="673" type="line" smooth="yes"/>
      <point x="477" y="725"/>
      <point x="471" y="750"/>
      <point x="420" y="750" type="curve" smooth="yes"/>
      <point x="0" y="750" type="line"/>
      <point x="0" y="400" type="line"/>
      <point x="218" y="400" type="line" smooth="yes"/>
      <point x="267" y="400"/>
      <point x="313" y="421"/>
      <point x="331" y="453" type="curve" smooth="yes"/>
      <point x="341" y="471"/>
      <point x="341" y="480"/>
      <point x="331" y="486" type="curve" smooth="yes"/>
      <point x="324" y="490"/>
      <point x="318" y="490"/>
      <point x="304" y="478" type="curve" smooth="yes"/>
      <point x="263" y="444"/>
      <point x="203" y="435"/>
      <point x="154" y="462" type="curve" smooth="yes"/>
      <point x="90" y="496"/>
      <point x="64" y="578"/>
      <point x="99" y="642" type="curve"/>
      <point x="134" y="708"/>
      <point x="216" y="732"/>
      <point x="280" y="697" type="curve" smooth="yes"/>
      <point x="330" y="670"/>
      <point x="355" y="616"/>
      <point x="349" y="563" type="curve" smooth="yes"/>
      <point x="348" y="545"/>
      <point x="351" y="540"/>
      <point x="358" y="536" type="curve" smooth="yes"/>
      <point x="368" y="531"/>
      <point x="375" y="536"/>
      <point x="385" y="554" type="curve" smooth="yes"/>
    </contour>
    <contour>
      <point x="301" y="77" type="line" smooth="yes"/>
      <point x="273" y="25"/>
      <point x="279" y="0"/>
      <point x="330" y="0" type="curve" smooth="yes"/>
      <point x="750" y="0" type="line"/>
      <point x="750" y="350" type="line"/>
      <point x="532" y="350" type="line" smooth="yes"/>
      <point x="483" y="350"/>
      <point x="437" y="329"/>
      <point x="419" y="297" type="curve" smooth="yes"/>
      <point x="409" y="279"/>
      <point x="409" y="270"/>
      <point x="419" y="264" type="curve" smooth="yes"/>
      <point x="426" y="260"/>
      <point x="432" y="260"/>
      <point x="446" y="272" type="curve" smooth="yes"/>
      <point x="487" y="306"/>
      <point x="547" y="315"/>
      <point x="596" y="288" type="curve" smooth="yes"/>
      <point x="660" y="254"/>
      <point x="686" y="172"/>
      <point x="651" y="108" type="curve"/>
      <point x="616" y="42"/>
      <point x="534" y="18"/>
      <point x="470" y="53" type="curve" smooth="yes"/>
      <point x="420" y="80"/>
      <point x="395" y="134"/>
      <point x="401" y="187" type="curve" smooth="yes"/>
      <point x="402" y="205"/>
      <point x="399" y="210"/>
      <point x="392" y="214" type="curve" smooth="yes"/>
      <point x="382" y="219"/>
      <point x="375" y="214"/>
      <point x="365" y="196" type="curve" smooth="yes"/>
    </contour>
    <contour>
      <point x="217" y="533" type="curve" smooth="yes"/>
      <point x="191" y="533"/>
      <point x="170" y="554"/>
      <point x="170" y="580" type="curve" smooth="yes"/>
      <point x="170" y="605"/>
      <point x="191" y="627"/>
      <point x="217" y="627" type="curve" smooth="yes"/>
      <point x="242" y="627"/>
      <point x="264" y="605"/>
      <point x="264" y="580" type="curve" smooth="yes"/>
      <point x="264" y="554"/>
      <point x="242" y="533"/>
    </contour>
    <contour>
      <point x="533" y="124" type="curve" smooth="yes"/>
      <point x="507" y="124"/>
      <point x="486" y="145"/>
      <point x="486" y="171" type="curve" smooth="yes"/>
      <point x="486" y="196"/>
      <point x="507" y="218"/>
      <point x="533" y="218" type="curve" smooth="yes"/>
      <point x="558" y="218"/>
      <point x="580" y="196"/>
      <point x="580" y="171" type="curve" smooth="yes"/>
      <point x="580" y="145"/>
      <point x="558" y="124"/>
    </contour>
    <component base="jointure"/>
  </outline>
</glyph>
<glyph name="ampersand" format="1">
  <advance width="750"/>
  <unicode hex="0026"/>
  <outline>
    <contour>
      <point x="693" y="56" type="line" smooth="yes"/>
      <point x="717" y="11"/>
      <point x="733" y="0"/>
      <point x="750" y="0" type="curve"/>
      <point x="750" y="350" type="line"/>
      <point x="668" y="350" type="line" smooth="yes"/>
      <point x="652" y="350"/>
      <point x="647" y="346"/>
      <point x="647" y="324" type="curve" smooth="yes"/>
      <point x="647" y="205" type="line" smooth="yes"/>
      <point x="647" y="166"/>
      <point x="647" y="143"/>
      <point x="662" y="114" type="curve" smooth="yes"/>
    </contour>
    <contour>
      <point x="87" y="552" type="curve" smooth="yes"/>
      <point x="87" y="626"/>
      <point x="161" y="701"/>
      <point x="272" y="715" type="curve" smooth="yes"/>
      <point x="294" y="718"/>
      <point x="302" y="727"/>
      <point x="302" y="735" type="curve" smooth="yes"/>
      <point x="302" y="743"/>
      <point x="297" y="750"/>
      <point x="283" y="750" type="curve" smooth="yes"/>
      <point x="0" y="750" type="line"/>
      <point x="0" y="400" type="line"/>
      <point x="151" y="400" type="line" smooth="yes"/>
      <point x="158" y="400"/>
      <point x="163" y="404"/>
      <point x="163" y="412" type="curve" smooth="yes"/>
      <point x="163" y="418"/>
      <point x="160" y="421"/>
      <point x="150" y="427" type="curve" smooth="yes"/>
      <point x="107" y="453"/>
      <point x="87" y="497"/>
    </contour>
    <contour>
      <point x="67" y="198" type="curve" smooth="yes"/>
      <point x="67" y="253"/>
      <point x="89" y="300"/>
      <point x="140" y="323" type="curve" smooth="yes"/>
      <point x="149" y="327"/>
      <point x="153" y="331"/>
      <point x="153" y="339" type="curve" smooth="yes"/>
      <point x="153" y="346"/>
      <point x="148" y="350"/>
      <point x="141" y="350" type="curve" smooth="yes"/>
      <point x="0" y="350" type="line"/>
      <point x="0" y="0" type="line"/>
      <point x="283" y="0" type="line" smooth="yes"/>
      <point x="297" y="0"/>
      <point x="302" y="7"/>
      <point x="302" y="15" type="curve" smooth="yes"/>
      <point x="302" y="23"/>
      <point x="294" y="32"/>
      <point x="272" y="35" type="curve" smooth="yes"/>
      <point x="149" y="50"/>
      <point x="67" y="124"/>
    </contour>
    <contour>
      <point x="282" y="301" type="curve" smooth="yes"/>
      <point x="259" y="301"/>
      <point x="227" y="273"/>
      <point x="227" y="223" type="curve" smooth="yes"/>
      <point x="227" y="168"/>
      <point x="286" y="149"/>
      <point x="375" y="149" type="curve" smooth="yes"/>
      <point x="401" y="149"/>
      <point x="418" y="157"/>
      <point x="418" y="173" type="curve" smooth="yes"/>
      <point x="418" y="192"/>
      <point x="411" y="213"/>
      <point x="364" y="254" type="curve" smooth="yes"/>
      <point x="318" y="294"/>
      <point x="304" y="301"/>
    </contour>
    <contour>
      <point x="750" y="400" type="line"/>
      <point x="750" y="750" type="line"/>
      <point x="463" y="750" type="line" smooth="yes"/>
      <point x="443" y="750"/>
      <point x="440" y="744"/>
      <point x="440" y="737" type="curve" smooth="yes"/>
      <point x="440" y="730"/>
      <point x="445" y="723"/>
      <point x="460" y="721" type="curve" smooth="yes"/>
      <point x="624.5454551271682" y="694.0743800700998"/>
      <point x="685.0" y="638.391061452514"/>
      <point x="685" y="562" type="curve" smooth="yes"/>
      <point x="685" y="531"/>
      <point x="647" y="518"/>
      <point x="609" y="503" type="curve" smooth="yes"/>
      <point x="594" y="497"/>
      <point x="591" y="492"/>
      <point x="591" y="487" type="curve" smooth="yes"/>
      <point x="591" y="479"/>
      <point x="600" y="475"/>
      <point x="629" y="475" type="curve"/>
      <point x="677" y="475" type="line" smooth="yes"/>
      <point x="712.0" y="475"/>
      <point x="716.0" y="400.0"/>
      <point x="733" y="400" type="curve"/>
    </contour>
    <contour>
      <point x="455" y="475" type="curve" smooth="yes"/>
      <point x="484" y="475" type="line" smooth="yes"/>
      <point x="519" y="475"/>
      <point x="533" y="480"/>
      <point x="533" y="502" type="curve" smooth="yes"/>
      <point x="533.0" y="563.563025210084"/>
      <point x="498.0" y="601.0"/>
      <point x="375" y="601" type="curve"/>
      <point x="299" y="601"/>
      <point x="247" y="583"/>
      <point x="247" y="527" type="curve" smooth="yes"/>
      <point x="247.0" y="466.0"/>
      <point x="336.03125" y="394.0"/>
      <point x="395" y="394" type="curve" smooth="yes"/>
      <point x="435" y="394"/>
      <point x="415" y="475"/>
    </contour>
    <contour>
      <point x="578" y="25" type="curve" smooth="yes"/>
      <point x="578" y="39"/>
      <point x="564.2457101159647" y="60.08190337198824"/>
      <point x="537" y="51" type="curve" smooth="yes"/>
      <point x="518.6298470242048" y="44.001846485411356"/>
      <point x="499.43253100283187" y="37.57190372033982"/>
      <point x="478.0" y="35.0" type="curve" smooth="yes"/>
      <point x="456.0" y="32.0"/>
      <point x="448.0" y="23.0"/>
      <point x="448.0" y="15.0" type="curve" smooth="yes"/>
      <point x="448.0" y="7.0"/>
      <point x="453" y="0"/>
      <point x="467" y="0" type="curve" smooth="yes"/>
      <point x="551" y="0" type="line" smooth="yes"/>
      <point x="570" y="0"/>
      <point x="578" y="10"/>
    </contour>
    <contour>
      <point x="417" y="335" type="curve" smooth="yes"/>
      <point x="417" y="315"/>
      <point x="489.0" y="271.0"/>
      <point x="501" y="271" type="curve" smooth="yes"/>
      <point x="515.0" y="271.0"/>
      <point x="515" y="282"/>
      <point x="515" y="297" type="curve" smooth="yes"/>
      <point x="515" y="326" type="line" smooth="yes"/>
      <point x="515" y="340"/>
      <point x="510.0" y="350"/>
      <point x="494" y="350" type="curve" smooth="yes"/>
      <point x="437" y="350" type="line" smooth="yes"/>
      <point x="423.0" y="350"/>
      <point x="417" y="345"/>
    </contour>
    <component base="jointure"/>
  </outline>
</glyph>
<glyph name="quotesingle" format="1">
  <advance width="375"/>
  <unicode hex="0027"/>
  <outline>
    <contour>
      <point x="0" y="350" type="line"/>
      <point x="0" y="0" type="line"/>
      <point x="375" y="0" type="line"/>
      <point x="375" y="350" type="line"/>
    </contour>
    <contour>
      <point x="231" y="400" type="curve" smooth="yes"/>
      <point x="375" y="400" type="line"/>
      <point x="375" y="750" type="line"/>
      <point x="245" y="750" type="line" smooth="yes"/>
      <point x="224" y="750"/>
      <point x="216" y="746"/>
      <point x="216" y="734" type="curve" smooth="yes"/>
      <point x="216" y="726"/>
      <point x="219" y="721"/>
      <point x="236" y="714" type="curve" smooth="yes"/>
      <point x="284" y="694"/>
      <point x="321" y="652"/>
      <point x="321" y="603" type="curve" smooth="yes"/>
      <point x="321" y="547"/>
      <point x="286" y="501"/>
      <point x="230" y="442" type="curve" smooth="yes"/>
      <point x="216" y="427"/>
      <point x="208" y="424"/>
      <point x="208" y="414" type="curve" smooth="yes"/>
      <point x="208" y="407"/>
      <point x="215" y="400"/>
    </contour>
    <contour>
      <point x="144" y="400" type="line" smooth="yes"/>
      <point x="160" y="400"/>
      <point x="167" y="407"/>
      <point x="167" y="414" type="curve" smooth="yes"/>
      <point x="167" y="424"/>
      <point x="159" y="427"/>
      <point x="145" y="442" type="curve" smooth="yes"/>
      <point x="89" y="501"/>
      <point x="54" y="547"/>
      <point x="54" y="603" type="curve" smooth="yes"/>
      <point x="54" y="652"/>
      <point x="91" y="694"/>
      <point x="139" y="714" type="curve" smooth="yes"/>
      <point x="156" y="721"/>
      <point x="159" y="726"/>
      <point x="159" y="734" type="curve" smooth="yes"/>
      <point x="159" y="746"/>
      <point x="151" y="750"/>
      <point x="130" y="750" type="curve" smooth="yes"/>
      <point x="0" y="750" type="line"/>
      <point x="0" y="400" type="line"/>
    </contour>
    <component base="jointure"/>
  </outline>
</glyph>
<glyph name="parenleft" format="1">
  <advance width="375"/>
  <unicode hex="0028"/>
  <outline>
    <contour>
      <point x="58" y="479" type="curve" smooth="yes"/>
      <point x="88" y="579"/>
      <point x="151" y="672"/>
      <point x="222" y="705" type="curve" smooth="yes"/>
      <point x="257" y="721"/>
      <point x="273" y="724"/>
      <point x="273" y="737" type="curve" smooth="yes"/>
      <point x="273" y="747"/>
      <point x="255" y="750"/>
      <point x="233" y="750" type="curve" smooth="yes"/>
      <point x="0" y="750" type="line"/>
      <point x="0" y="400" type="line"/>
      <point x="23" y="400"/>
      <point x="39" y="415"/>
    </contour>
    <contour>
      <point x="196" y="375" type="curve"/>
      <point x="196" y="291"/>
      <point x="224" y="215"/>
      <point x="259" y="140" type="curve" smooth="yes"/>
      <point x="305" y="40"/>
      <point x="330" y="0"/>
      <point x="375" y="0" type="curve"/>
      <point x="375" y="350" type="line"/>
      <point x="313" y="350" type="line"/>
      <point x="280" y="350"/>
      <point x="268" y="362"/>
      <point x="268" y="375" type="curve"/>
      <point x="268" y="388"/>
      <point x="280" y="400"/>
      <point x="313" y="400" type="curve"/>
      <point x="375" y="400" type="line"/>
      <point x="375" y="750" type="line"/>
      <point x="330" y="750"/>
      <point x="305" y="710"/>
      <point x="259" y="610" type="curve" smooth="yes"/>
      <point x="224" y="535"/>
      <point x="196" y="459"/>
    </contour>
    <contour>
      <point x="58" y="271" type="curve" smooth="yes"/>
      <point x="39" y="335"/>
      <point x="23" y="350"/>
      <point x="0" y="350" type="curve"/>
      <point x="0" y="0" type="line"/>
      <point x="233" y="0" type="line" smooth="yes"/>
      <point x="255" y="0"/>
      <point x="273" y="3"/>
      <point x="273" y="13" type="curve" smooth="yes"/>
      <point x="273" y="26"/>
      <point x="257" y="29"/>
      <point x="222" y="45" type="curve" smooth="yes"/>
      <point x="151" y="78"/>
      <point x="88" y="171"/>
    </contour>
    <component base="jointure"/>
  </outline>
</glyph>
<glyph name="parenright" format="1">
  <advance width="375"/>
  <unicode hex="0029"/>
  <outline>
    <contour>
      <point x="317" y="479" type="curve" smooth="yes"/>
      <point x="336" y="415"/>
      <point x="352" y="400"/>
      <point x="375" y="400" type="curve"/>
      <point x="375" y="750" type="line"/>
      <point x="142" y="750" type="line" smooth="yes"/>
      <point x="120" y="750"/>
      <point x="102" y="747"/>
      <point x="102" y="737" type="curve" smooth="yes"/>
      <point x="102" y="724"/>
      <point x="118" y="721"/>
      <point x="153" y="705" type="curve" smooth="yes"/>
      <point x="224" y="672"/>
      <point x="287" y="579"/>
    </contour>
    <contour>
      <point x="179" y="375" type="curve"/>
      <point x="179" y="459"/>
      <point x="151" y="535"/>
      <point x="116" y="610" type="curve" smooth="yes"/>
      <point x="70" y="710"/>
      <point x="45" y="750"/>
      <point x="0" y="750" type="curve"/>
      <point x="0" y="400" type="line"/>
      <point x="62" y="400" type="line"/>
      <point x="95" y="400"/>
      <point x="107" y="388"/>
      <point x="107" y="375" type="curve"/>
      <point x="107" y="362"/>
      <point x="95" y="350"/>
      <point x="62" y="350" type="curve"/>
      <point x="0" y="350" type="line"/>
      <point x="0" y="0" type="line"/>
      <point x="45" y="0"/>
      <point x="70" y="40"/>
      <point x="116" y="140" type="curve" smooth="yes"/>
      <point x="151" y="215"/>
      <point x="179" y="291"/>
    </contour>
    <contour>
      <point x="317" y="271" type="curve" smooth="yes"/>
      <point x="287" y="171"/>
      <point x="224" y="78"/>
      <point x="153" y="45" type="curve" smooth="yes"/>
      <point x="118" y="29"/>
      <point x="102" y="26"/>
      <point x="102" y="13" type="curve" smooth="yes"/>
      <point x="102" y="3"/>
      <point x="120" y="0"/>
      <point x="142" y="0" type="curve" smooth="yes"/>
      <point x="375" y="0" type="line"/>
      <point x="375" y="350" type="line"/>
      <point x="352" y="350"/>
      <point x="336" y="335"/>
    </contour>
    <component base="jointure"/>
  </outline>
</glyph>
<glyph name="asterisk" format="1">
  <advance width="375"/>
  <unicode hex="002A"/>
  <outline>
    <contour>
      <point x="0" y="0" type="line"/>
      <point x="375" y="0" type="line"/>
      <point x="375" y="350" type="line"/>
      <point x="-919" y="350"/>
      <point x="1007" y="350"/>
      <point x="0" y="350" type="curve"/>
    </contour>
    <contour>
      <point x="119" y="718" type="line" smooth="yes"/>
      <point x="109" y="743"/>
      <point x="99" y="750"/>
      <point x="71" y="750" type="curve" smooth="yes"/>
      <point x="0" y="750" type="line"/>
      <point x="0" y="400" type="line"/>
      <point x="71" y="400" type="line" smooth="yes"/>
      <point x="99" y="400"/>
      <point x="109" y="407"/>
      <point x="119" y="433" type="curve" smooth="yes"/>
      <point x="152" y="516" type="line" smooth="yes"/>
      <point x="156" y="527"/>
      <point x="145" y="539"/>
      <point x="133" y="534" type="curve" smooth="yes"/>
      <point x="55" y="503" type="line" smooth="yes"/>
      <point x="38" y="496"/>
      <point x="23.0" y="505.0"/>
      <point x="23" y="524" type="curve" smooth="yes"/>
      <point x="23" y="625" type="line" smooth="yes"/>
      <point x="23.0" y="644.0"/>
      <point x="38" y="653"/>
      <point x="55" y="646" type="curve" smooth="yes"/>
      <point x="134" y="615" type="line" smooth="yes"/>
      <point x="146" y="610"/>
      <point x="158" y="621"/>
      <point x="153" y="633" type="curve" smooth="yes"/>
    </contour>
    <contour>
      <point x="256" y="433" type="line" smooth="yes"/>
      <point x="266" y="407"/>
      <point x="276" y="400"/>
      <point x="304" y="400" type="curve" smooth="yes"/>
      <point x="375" y="400" type="line"/>
      <point x="375" y="750" type="line"/>
      <point x="304" y="750" type="line" smooth="yes"/>
      <point x="276" y="750"/>
      <point x="266" y="743"/>
      <point x="256" y="718" type="curve" smooth="yes"/>
      <point x="222" y="633" type="line" smooth="yes"/>
      <point x="217" y="621"/>
      <point x="229" y="610"/>
      <point x="241" y="615" type="curve" smooth="yes"/>
      <point x="321" y="647" type="line" smooth="yes"/>
      <point x="338" y="654"/>
      <point x="353.0" y="644.0"/>
      <point x="353" y="625" type="curve" smooth="yes"/>
      <point x="353" y="524" type="line" smooth="yes"/>
      <point x="353.0" y="505.0"/>
      <point x="338" y="496"/>
      <point x="321" y="503" type="curve" smooth="yes"/>
      <point x="242" y="534" type="line" smooth="yes"/>
      <point x="230" y="539"/>
      <point x="218" y="528"/>
      <point x="223" y="516" type="curve" smooth="yes"/>
    </contour>
    <component base="jointure"/>
  </outline>
</glyph>
<glyph name="plus" format="1">
  <advance width="750"/>
  <unicode hex="002B"/>
  <outline>
    <contour>
      <point x="144" y="458" type="curve" smooth="yes"/>
      <point x="257" y="458" type="line" smooth="yes"/>
      <point x="281" y="458"/>
      <point x="297" y="474"/>
      <point x="297" y="498" type="curve" smooth="yes"/>
      <point x="297" y="600" type="line" smooth="yes"/>
      <point x="297" y="628"/>
      <point x="307" y="650"/>
      <point x="335" y="650" type="curve" smooth="yes"/>
      <point x="415" y="650" type="line" smooth="yes"/>
      <point x="443" y="650"/>
      <point x="453" y="628"/>
      <point x="453" y="600" type="curve" smooth="yes"/>
      <point x="453" y="498" type="line" smooth="yes"/>
      <point x="453" y="474"/>
      <point x="466" y="458"/>
      <point x="490" y="458" type="curve" smooth="yes"/>
      <point x="606" y="458" type="line" smooth="yes"/>
      <point x="645" y="458"/>
      <point x="638" y="400"/>
      <point x="690" y="400" type="curve" smooth="yes"/>
      <point x="750" y="400" type="line"/>
      <point x="750" y="750" type="line"/>
      <point x="0" y="750" type="line"/>
      <point x="0" y="400" type="line"/>
      <point x="60" y="400" type="line" smooth="yes"/>
      <point x="112" y="400"/>
      <point x="105" y="458"/>
    </contour>
    <contour>
      <point x="144" y="292" type="line" smooth="yes"/>
      <point x="105" y="292"/>
      <point x="112" y="350"/>
      <point x="60" y="350" type="curve" smooth="yes"/>
      <point x="0" y="350" type="line"/>
      <point x="0" y="0" type="line"/>
      <point x="750" y="0" type="line"/>
      <point x="750" y="350" type="line"/>
      <point x="690" y="350" type="line" smooth="yes"/>
      <point x="638" y="350"/>
      <point x="645" y="292"/>
      <point x="606" y="292" type="curve" smooth="yes"/>
      <point x="490" y="292" type="line" smooth="yes"/>
      <point x="466" y="292"/>
      <point x="453" y="276"/>
      <point x="453" y="252" type="curve" smooth="yes"/>
      <point x="453" y="150" type="line" smooth="yes"/>
      <point x="453" y="122"/>
      <point x="443" y="100"/>
      <point x="415" y="100" type="curve" smooth="yes"/>
      <point x="335" y="100" type="line" smooth="yes"/>
      <point x="307" y="100"/>
      <point x="297" y="122"/>
      <point x="297" y="150" type="curve" smooth="yes"/>
      <point x="297" y="252" type="line" smooth="yes"/>
      <point x="297" y="276"/>
      <point x="281" y="292"/>
      <point x="257" y="292" type="curve" smooth="yes"/>
    </contour>
    <component base="jointure"/>
  </outline>
</glyph>
<glyph name="comma" format="1">
  <advance width="750"/>
  <unicode hex="002C"/>
  <outline>
    <contour>
      <point x="750" y="400" type="line"/>
      <point x="750" y="750" type="line"/>
      <point x="0" y="750" type="line"/>
      <point x="0" y="400" type="line"/>
      <point x="213" y="400" type="line" smooth="yes"/>
      <point x="239" y="400"/>
      <point x="252" y="409"/>
      <point x="261" y="431" type="curve" smooth="yes"/>
      <point x="279" y="478"/>
      <point x="324" y="511"/>
      <point x="375" y="511" type="curve" smooth="yes"/>
      <point x="427" y="511"/>
      <point x="472" y="478"/>
      <point x="490" y="431" type="curve" smooth="yes"/>
      <point x="498" y="409"/>
      <point x="511" y="400"/>
      <point x="538" y="400" type="curve" smooth="yes"/>
    </contour>
    <contour>
      <point x="750" y="350" type="line"/>
      <point x="538" y="350" type="line" smooth="yes"/>
      <point x="511" y="350"/>
      <point x="498" y="341"/>
      <point x="490" y="318" type="curve" smooth="yes"/>
      <point x="445.4340120976822" y="203.54644015995666"/>
      <point x="361" y="117"/>
      <point x="300" y="117" type="curve" smooth="yes"/>
      <point x="274" y="117"/>
      <point x="261" y="132"/>
      <point x="261" y="171" type="curve" smooth="yes"/>
      <point x="261" y="307" type="line" smooth="yes"/>
      <point x="261" y="341"/>
      <point x="239.0" y="350"/>
      <point x="213" y="350" type="curve" smooth="yes"/>
      <point x="0" y="350" type="line"/>
      <point x="0" y="0" type="line"/>
      <point x="750" y="0" type="line"/>
    </contour>
    <component base="jointure"/>
  </outline>
</glyph>
<glyph name="period" format="1">
  <advance width="750"/>
  <unicode hex="002E"/>
  <outline>
    <contour>
      <point x="750" y="400" type="line"/>
      <point x="750" y="750" type="line"/>
      <point x="0" y="750" type="line"/>
      <point x="0" y="400" type="line"/>
      <point x="213" y="400" type="line" smooth="yes"/>
      <point x="239" y="400"/>
      <point x="252" y="409"/>
      <point x="261" y="431" type="curve" smooth="yes"/>
      <point x="279" y="478"/>
      <point x="324" y="511"/>
      <point x="375" y="511" type="curve" smooth="yes"/>
      <point x="427" y="511"/>
      <point x="472" y="478"/>
      <point x="490" y="431" type="curve" smooth="yes"/>
      <point x="498" y="409"/>
      <point x="511" y="400"/>
      <point x="538" y="400" type="curve" smooth="yes"/>
    </contour>
    <contour>
      <point x="750" y="350" type="line"/>
      <point x="538" y="350" type="line" smooth="yes"/>
      <point x="511" y="350"/>
      <point x="498" y="341"/>
      <point x="490" y="318" type="curve" smooth="yes"/>
      <point x="472" y="272"/>
      <point x="427" y="239"/>
      <point x="375" y="239" type="curve" smooth="yes"/>
      <point x="324" y="239"/>
      <point x="279" y="272"/>
      <point x="261" y="318" type="curve" smooth="yes"/>
      <point x="252" y="341"/>
      <point x="239" y="350"/>
      <point x="213" y="350" type="curve" smooth="yes"/>
      <point x="0" y="350" type="line"/>
      <point x="0" y="0" type="line"/>
      <point x="750" y="0" type="line"/>
    </contour>
    <component base="jointure"/>
  </outline>
</glyph>
<glyph name="two" format="1">
  <advance width="750"/>
  <unicode hex="0032"/>
  <outline>
    <contour>
      <point x="648" y="552" type="curve" smooth="yes"/>
      <point x="648" y="497"/>
      <point x="627" y="453"/>
      <point x="585" y="427" type="curve" smooth="yes"/>
      <point x="573" y="420"/>
      <point x="572" y="419"/>
      <point x="572" y="412" type="curve" smooth="yes"/>
      <point x="572" y="404"/>
      <point x="577" y="400"/>
      <point x="584" y="400" type="curve" smooth="yes"/>
      <point x="750" y="400" type="line"/>
      <point x="750" y="750" type="line"/>
      <point x="462" y="750" type="line" smooth="yes"/>
      <point x="448" y="750"/>
      <point x="443" y="743"/>
      <point x="443" y="735" type="curve" smooth="yes"/>
      <point x="443" y="727"/>
      <point x="451" y="718"/>
      <point x="473" y="715" type="curve" smooth="yes"/>
      <point x="578" y="702"/>
      <point x="648" y="626"/>
    </contour>
    <contour>
      <point x="237" y="473" type="curve" smooth="yes"/>
      <point x="254.19803336175164" y="436.79361397525975"/>
      <point x="309.22331675387665" y="416.6231991010315"/>
      <point x="361" y="443" type="curve" smooth="yes"/>
      <point x="428.7413023528124" y="477.83838406716063"/>
      <point x="484.0" y="506.0"/>
      <point x="484" y="547" type="curve" smooth="yes"/>
      <point x="484.0" y="585.0"/>
      <point x="447.447619047619" y="601.0"/>
      <point x="383" y="601" type="curve" smooth="yes"/>
      <point x="309" y="601"/>
      <point x="264" y="569"/>
      <point x="237" y="537" type="curve" smooth="yes"/>
      <point x="221" y="518"/>
      <point x="222" y="504"/>
    </contour>
    <contour>
      <point x="0" y="400" type="line"/>
      <point x="91" y="400" type="line" smooth="yes"/>
      <point x="134" y="400"/>
      <point x="161" y="401"/>
      <point x="177" y="405" type="curve" smooth="yes"/>
      <point x="208" y="411"/>
      <point x="221" y="428"/>
      <point x="203" y="456" type="curve" smooth="yes"/>
      <point x="189" y="478"/>
      <point x="166" y="496"/>
      <point x="116" y="523" type="curve" smooth="yes"/>
      <point x="88" y="538"/>
      <point x="80" y="556"/>
      <point x="97" y="584" type="curve" smooth="yes"/>
      <point x="133" y="643"/>
      <point x="191" y="692"/>
      <point x="264" y="714" type="curve" smooth="yes"/>
      <point x="284" y="720"/>
      <point x="291" y="724"/>
      <point x="291" y="735" type="curve" smooth="yes"/>
      <point x="291" y="740"/>
      <point x="287" y="750"/>
      <point x="273" y="750" type="curve" smooth="yes"/>
      <point x="0" y="750" type="line"/>
    </contour>
    <contour>
      <point x="82" y="82" type="line" smooth="yes"/>
      <point x="82" y="195"/>
      <point x="131" y="260"/>
      <point x="203" y="323" type="curve" smooth="yes"/>
      <point x="211" y="330"/>
      <point x="214" y="332"/>
      <point x="214" y="339" type="curve" smooth="yes"/>
      <point x="214" y="346"/>
      <point x="207" y="350"/>
      <point x="196" y="350" type="curve" smooth="yes"/>
      <point x="0" y="350" type="line"/>
      <point x="0" y="0" type="line"/>
      <point x="39" y="0" type="line" smooth="yes"/>
      <point x="68" y="0"/>
      <point x="82" y="17"/>
      <point x="82" y="52" type="curve" smooth="yes"/>
    </contour>
    <contour>
      <point x="518" y="350" type="curve" smooth="yes"/>
      <point x="488" y="350"/>
      <point x="450" y="336"/>
      <point x="416" y="308" type="curve" smooth="yes"/>
      <point x="353" y="256" type="line" smooth="yes"/>
      <point x="331" y="238"/>
      <point x="324" y="231"/>
      <point x="324" y="222" type="curve" smooth="yes"/>
      <point x="324" y="192"/>
      <point x="450" y="150"/>
      <point x="499" y="150" type="curve" smooth="yes"/>
      <point x="548" y="150"/>
      <point x="563" y="183"/>
      <point x="563" y="239" type="curve" smooth="yes"/>
      <point x="563.0" y="328.0"/>
      <point x="557" y="350"/>
    </contour>
    <contour>
      <point x="212" y="0" type="line" smooth="yes"/>
      <point x="185" y="0"/>
      <point x="173" y="5"/>
      <point x="181" y="33" type="curve" smooth="yes"/>
      <point x="190" y="63" type="line" smooth="yes"/>
      <point x="198" y="91"/>
      <point x="215" y="113"/>
      <point x="239" y="113" type="curve" smooth="yes"/>
      <point x="266" y="113"/>
      <point x="325" y="53"/>
      <point x="407" y="32" type="curve" smooth="yes"/>
      <point x="428" y="27"/>
      <point x="425" y="0"/>
      <point x="398" y="0" type="curve" smooth="yes"/>
    </contour>
    <contour>
      <point x="750" y="350" type="line"/>
      <point x="667" y="350" type="line" smooth="yes"/>
      <point x="629.5" y="350"/>
      <point x="610" y="345"/>
      <point x="610" y="330" type="curve" smooth="yes"/>
      <point x="610" y="318"/>
      <point x="625" y="308"/>
      <point x="662" y="293" type="curve" smooth="yes"/>
      <point x="700" y="277"/>
      <point x="716.0" y="278.93023255813955"/>
      <point x="716" y="238" type="curve" smooth="yes"/>
      <point x="716" y="108"/>
      <point x="693" y="63"/>
      <point x="610" y="27" type="curve" smooth="yes"/>
      <point x="596" y="21"/>
      <point x="590" y="14"/>
      <point x="590" y="11" type="curve" smooth="yes"/>
      <point x="590" y="5"/>
      <point x="593" y="0"/>
      <point x="613" y="0" type="curve" smooth="yes"/>
      <point x="750" y="0" type="line"/>
    </contour>
    <component base="jointure"/>
  </outline>
</glyph>
<glyph name="three" format="1">
  <advance width="750"/>
  <unicode hex="0033"/>
  <outline>
    <contour>
      <point x="673" y="552" type="curve" smooth="yes"/>
      <point x="673" y="497"/>
      <point x="637" y="461"/>
      <point x="580" y="427" type="curve" smooth="yes"/>
      <point x="570" y="421"/>
      <point x="567" y="418"/>
      <point x="567" y="412" type="curve" smooth="yes"/>
      <point x="567" y="404"/>
      <point x="572" y="400"/>
      <point x="579" y="400" type="curve" smooth="yes"/>
      <point x="750" y="400" type="line"/>
      <point x="750" y="750" type="line"/>
      <point x="487" y="750" type="line" smooth="yes"/>
      <point x="473" y="750"/>
      <point x="468" y="743"/>
      <point x="468" y="735" type="curve" smooth="yes"/>
      <point x="468" y="727"/>
      <point x="476" y="718"/>
      <point x="498" y="715" type="curve" smooth="yes"/>
      <point x="603" y="702"/>
      <point x="673" y="626"/>
    </contour>
    <contour>
      <point x="209" y="473" type="curve" smooth="yes"/>
      <point x="224.82396005793362" y="443.46194122519057"/>
      <point x="263.0" y="434.0"/>
      <point x="317" y="434" type="curve" smooth="yes"/>
      <point x="426.6666666666667" y="434.0"/>
      <point x="513.0" y="472.0"/>
      <point x="513" y="537" type="curve" smooth="yes"/>
      <point x="513.0" y="585.0"/>
      <point x="465.95238095238096" y="601.0"/>
      <point x="383" y="601" type="curve" smooth="yes"/>
      <point x="294.8082191780822" y="601.0"/>
      <point x="238.57656186702272" y="571.8580907718482"/>
      <point x="209" y="537" type="curve" smooth="yes"/>
      <point x="193" y="518"/>
      <point x="193" y="504"/>
    </contour>
    <contour>
      <point x="0" y="400" type="line"/>
      <point x="63" y="400" type="line" smooth="yes"/>
      <point x="106" y="400"/>
      <point x="133" y="401"/>
      <point x="149" y="405" type="curve" smooth="yes"/>
      <point x="180" y="411"/>
      <point x="193" y="428"/>
      <point x="175" y="456" type="curve" smooth="yes"/>
      <point x="161" y="478"/>
      <point x="138" y="496"/>
      <point x="88" y="523" type="curve" smooth="yes"/>
      <point x="60" y="538"/>
      <point x="52" y="556"/>
      <point x="69" y="584" type="curve" smooth="yes"/>
      <point x="105" y="643"/>
      <point x="163" y="692"/>
      <point x="236" y="714" type="curve" smooth="yes"/>
      <point x="256" y="720"/>
      <point x="263" y="724"/>
      <point x="263" y="735" type="curve" smooth="yes"/>
      <point x="263" y="740"/>
      <point x="259" y="750"/>
      <point x="245" y="750" type="curve" smooth="yes"/>
      <point x="0" y="750" type="line"/>
    </contour>
    <contour>
      <point x="693" y="198" type="curve" smooth="yes"/>
      <point x="693" y="124"/>
      <point x="615" y="49"/>
      <point x="498" y="35" type="curve" smooth="yes"/>
      <point x="476" y="32"/>
      <point x="468" y="23"/>
      <point x="468" y="15" type="curve" smooth="yes"/>
      <point x="468" y="7"/>
      <point x="473" y="0"/>
      <point x="487" y="0" type="curve" smooth="yes"/>
      <point x="750" y="0" type="line"/>
      <point x="750" y="350" type="line"/>
      <point x="589" y="350" type="line" smooth="yes"/>
      <point x="582" y="350"/>
      <point x="577" y="346"/>
      <point x="577" y="339" type="curve" smooth="yes"/>
      <point x="577" y="331"/>
      <point x="581" y="327"/>
      <point x="590" y="323" type="curve" smooth="yes"/>
      <point x="658" y="293"/>
      <point x="693" y="253"/>
    </contour>
    <contour>
      <point x="0" y="350" type="line"/>
      <point x="0" y="0" type="line"/>
      <point x="245" y="0" type="line" smooth="yes"/>
      <point x="259" y="0"/>
      <point x="263" y="10"/>
      <point x="263" y="15" type="curve" smooth="yes"/>
      <point x="263" y="26"/>
      <point x="256" y="30"/>
      <point x="236" y="36" type="curve" smooth="yes"/>
      <point x="163" y="58"/>
      <point x="105" y="107"/>
      <point x="69" y="166" type="curve" smooth="yes"/>
      <point x="52" y="194"/>
      <point x="60" y="212"/>
      <point x="88" y="227" type="curve" smooth="yes"/>
      <point x="138" y="254"/>
      <point x="161" y="272"/>
      <point x="175" y="294" type="curve" smooth="yes"/>
      <point x="193" y="322"/>
      <point x="180" y="339"/>
      <point x="149" y="345" type="curve" smooth="yes"/>
      <point x="133" y="349"/>
      <point x="106" y="350"/>
      <point x="63" y="350" type="curve" smooth="yes"/>
    </contour>
    <contour>
      <point x="209" y="277" type="curve" smooth="yes"/>
      <point x="193" y="246"/>
      <point x="193" y="232"/>
      <point x="209" y="213" type="curve" smooth="yes"/>
      <point x="238.57656186702272" y="178.1419092281518"/>
      <point x="294.8082191780822" y="149.0"/>
      <point x="383" y="149" type="curve" smooth="yes"/>
      <point x="479.0" y="149.0"/>
      <point x="533.0" y="165.0"/>
      <point x="533" y="213" type="curve" smooth="yes"/>
      <point x="533.0" y="278.0"/>
      <point x="437.6382978723404" y="316.0"/>
      <point x="317" y="316" type="curve" smooth="yes"/>
      <point x="263.0" y="316.0"/>
      <point x="224.82396005793362" y="306.53805877480943"/>
    </contour>
    <component base="jointure"/>
  </outline>
</glyph>
<glyph name="four" format="1">
  <advance width="750"/>
  <unicode hex="0034"/>
  <outline>
    <contour>
      <point x="750.0" y="400.0" type="line"/>
      <point x="750" y="750" type="line"/>
      <point x="650" y="750" type="line" smooth="yes"/>
      <point x="607" y="750"/>
      <point x="554" y="720"/>
      <point x="488" y="601" type="curve" smooth="yes"/>
      <point x="434" y="503" type="line" smooth="yes"/>
      <point x="400" y="442"/>
      <point x="441" y="400"/>
      <point x="513" y="400" type="curve" smooth="yes"/>
    </contour>
    <contour>
      <point x="354" y="359" type="curve" smooth="yes"/>
      <point x="303" y="266" type="line" smooth="yes"/>
      <point x="281" y="226"/>
      <point x="290" y="201"/>
      <point x="334" y="201" type="curve" smooth="yes"/>
      <point x="379" y="201" type="line" smooth="yes"/>
      <point x="407" y="201"/>
      <point x="430" y="226"/>
      <point x="430" y="256" type="curve" smooth="yes"/>
      <point x="430" y="364" type="line" smooth="yes"/>
      <point x="430" y="386"/>
      <point x="424" y="400"/>
      <point x="408" y="400" type="curve" smooth="yes"/>
      <point x="390.0" y="400.0"/>
      <point x="370" y="388"/>
    </contour>
    <contour>
      <point x="580" y="41" type="curve" smooth="yes"/>
      <point x="580" y="16"/>
      <point x="602.0" y="0.0"/>
      <point x="630.0" y="0.0" type="curve" smooth="yes"/>
      <point x="750.0" y="0.0" type="line"/>
      <point x="750.0" y="350.0" type="line"/>
      <point x="630.0" y="350.0" type="line" smooth="yes"/>
      <point x="602.0" y="350.0"/>
      <point x="580.0" y="328.0"/>
      <point x="580.0" y="300.0" type="curve" smooth="yes"/>
      <point x="580" y="254" type="line" smooth="yes"/>
      <point x="580" y="222.0"/>
      <point x="599" y="204"/>
      <point x="622" y="204" type="curve" smooth="yes"/>
      <point x="678" y="204" type="line" smooth="yes"/>
      <point x="697.0295792180435" y="204"/>
      <point x="716" y="189.15151515151516"/>
      <point x="716" y="169" type="curve" smooth="yes"/>
      <point x="716" y="116" type="line" smooth="yes"/>
      <point x="716" y="99.0"/>
      <point x="697.0" y="81"/>
      <point x="676" y="81" type="curve" smooth="yes"/>
      <point x="621" y="81" type="line" smooth="yes"/>
      <point x="591" y="81"/>
      <point x="580" y="61"/>
    </contour>
    <contour>
      <point x="230" y="456" type="curve" smooth="yes"/>
      <point x="348.0" y="673.0" type="line" smooth="yes"/>
      <point x="376" y="725"/>
      <point x="370.0" y="750.0"/>
      <point x="319.0" y="750.0" type="curve" smooth="yes"/>
      <point x="0.0" y="750.0" type="line"/>
      <point x="0.0" y="400.0" type="line"/>
      <point x="118.0" y="400.0" type="line" smooth="yes"/>
      <point x="167.0" y="400.0"/>
      <point x="211" y="420"/>
    </contour>
    <contour>
      <point x="149" y="309" type="line" smooth="yes"/>
      <point x="158" y="325"/>
      <point x="148.0" y="350"/>
      <point x="128" y="350" type="curve" smooth="yes"/>
      <point x="0.0" y="350.0" type="line"/>
      <point x="0.0" y="0.0" type="line"/>
      <point x="384.0" y="0.0" type="line" smooth="yes"/>
      <point x="411.0" y="0.0"/>
      <point x="430.0" y="14.0"/>
      <point x="430.0" y="40.0" type="curve" smooth="yes"/>
      <point x="430.0" y="65.0"/>
      <point x="411.0" y="81.0"/>
      <point x="383.0" y="81.0" type="curve" smooth="yes"/>
      <point x="118.0" y="81.0" type="line" smooth="yes"/>
      <point x="87.0" y="81.0"/>
      <point x="65.0" y="94.0"/>
      <point x="65.0" y="120.0" type="curve" smooth="yes"/>
      <point x="65.0" y="160.0"/>
      <point x="88" y="196"/>
      <point x="113.0" y="243.0" type="curve" smooth="yes"/>
    </contour>
    <component base="jointure"/>
  </outline>
</glyph>
<glyph name="five" format="1">
  <advance width="750"/>
  <unicode hex="0035"/>
  <outline>
    <contour>
      <point x="658" y="260" type="curve" smooth="yes"/>
      <point x="658" y="129"/>
      <point x="584.2238233911095" y="48.77056861032784"/>
      <point x="473" y="35" type="curve" smooth="yes"/>
      <point x="451" y="32"/>
      <point x="443" y="23"/>
      <point x="443" y="15" type="curve" smooth="yes"/>
      <point x="443" y="7"/>
      <point x="448" y="0"/>
      <point x="462" y="0" type="curve" smooth="yes"/>
      <point x="750" y="0" type="line"/>
      <point x="750" y="350" type="line"/>
      <point x="659" y="350" type="line" smooth="yes"/>
      <point x="652" y="350"/>
      <point x="647" y="346"/>
      <point x="647" y="338" type="curve" smooth="yes"/>
      <point x="647" y="323"/>
      <point x="658" y="295"/>
    </contour>
    <contour>
      <point x="224" y="291" type="curve" smooth="yes"/>
      <point x="208" y="261"/>
      <point x="211" y="241"/>
      <point x="225" y="224" type="curve" smooth="yes"/>
      <point x="251" y="193"/>
      <point x="298.86301369863014" y="149.0"/>
      <point x="383" y="149" type="curve" smooth="yes"/>
      <point x="458.29523809523806" y="149.0"/>
      <point x="501.0" y="180.0"/>
      <point x="501" y="253" type="curve" smooth="yes"/>
      <point x="501.0" y="308.0"/>
      <point x="450.0983606557377" y="360.0"/>
      <point x="366" y="360" type="curve" smooth="yes"/>
      <point x="296" y="360"/>
      <point x="248" y="334"/>
    </contour>
    <contour>
      <point x="0" y="350" type="line"/>
      <point x="0" y="0" type="line"/>
      <point x="273" y="0" type="line" smooth="yes"/>
      <point x="287" y="0"/>
      <point x="291" y="10"/>
      <point x="291" y="15" type="curve" smooth="yes"/>
      <point x="291" y="26"/>
      <point x="284" y="30"/>
      <point x="264" y="36" type="curve" smooth="yes"/>
      <point x="182" y="61"/>
      <point x="118" y="118"/>
      <point x="77" y="186" type="curve" smooth="yes"/>
      <point x="60" y="214"/>
      <point x="68" y="232"/>
      <point x="96" y="247" type="curve" smooth="yes"/>
      <point x="161.93573433226908" y="282.7151894299791"/>
      <point x="187" y="306"/>
      <point x="187" y="323" type="curve" smooth="yes"/>
      <point x="187" y="346"/>
      <point x="161.57799324452924" y="350.0"/>
      <point x="71" y="350" type="curve" smooth="yes"/>
    </contour>
    <contour>
      <point x="265" y="494" type="line" smooth="yes"/>
      <point x="265" y="470"/>
      <point x="275" y="461"/>
      <point x="287" y="461" type="curve" smooth="yes"/>
      <point x="303.3703703703704" y="461.0"/>
      <point x="331.71337579617835" y="490.0"/>
      <point x="417" y="490" type="curve" smooth="yes"/>
      <point x="556" y="490"/>
      <point x="595" y="400"/>
      <point x="660" y="400" type="curve" smooth="yes"/>
      <point x="750" y="400" type="line"/>
      <point x="750" y="750" type="line"/>
      <point x="680" y="750" type="line" smooth="yes"/>
      <point x="622" y="750"/>
      <point x="690" y="631"/>
      <point x="604" y="631" type="curve" smooth="yes"/>
      <point x="310" y="631" type="line" smooth="yes"/>
      <point x="276" y="631"/>
      <point x="265" y="619"/>
      <point x="265" y="567" type="curve" smooth="yes"/>
    </contour>
    <contour>
      <point x="0" y="400" type="line"/>
      <point x="60" y="400" type="line" smooth="yes"/>
      <point x="88" y="400"/>
      <point x="110" y="422"/>
      <point x="110" y="450" type="curve" smooth="yes"/>
      <point x="110" y="700" type="line" smooth="yes"/>
      <point x="110" y="728"/>
      <point x="88" y="750"/>
      <point x="60" y="750" type="curve" smooth="yes"/>
      <point x="0" y="750" type="line"/>
    </contour>
    <component base="jointure"/>
  </outline>
</glyph>
<glyph name="six" format="1">
  <advance width="750"/>
  <unicode hex="0036"/>
  <outline>
    <contour>
      <point x="750" y="400" type="line"/>
      <point x="750" y="750" type="line"/>
      <point x="463" y="750" type="line" smooth="yes"/>
      <point x="443.0" y="750"/>
      <point x="440.0" y="744.0909090909091"/>
      <point x="440" y="737" type="curve" smooth="yes"/>
      <point x="440.0" y="729.8888888888889"/>
      <point x="445.0275199886444" y="722.9963306681807"/>
      <point x="460" y="721" type="curve" smooth="yes"/>
      <point x="624.7880304435457" y="694.0346859274198"/>
      <point x="685" y="628"/>
      <point x="685" y="542" type="curve" smooth="yes"/>
      <point x="685" y="511"/>
      <point x="647" y="498"/>
      <point x="594" y="477" type="curve" smooth="yes"/>
      <point x="562" y="464"/>
      <point x="565" y="445"/>
      <point x="605" y="421" type="curve" smooth="yes"/>
      <point x="631" y="405"/>
      <point x="647" y="400"/>
      <point x="674" y="400" type="curve" smooth="yes"/>
    </contour>
    <contour>
      <point x="219" y="440" type="curve" smooth="yes"/>
      <point x="219" y="433"/>
      <point x="221" y="430"/>
      <point x="227" y="430" type="curve" smooth="yes"/>
      <point x="234" y="430"/>
      <point x="284" y="490"/>
      <point x="376" y="490" type="curve" smooth="yes"/>
      <point x="417" y="490"/>
      <point x="451" y="481"/>
      <point x="484" y="468" type="curve" smooth="yes"/>
      <point x="516" y="455"/>
      <point x="533" y="457"/>
      <point x="533" y="482" type="curve" smooth="yes"/>
      <point x="533.0" y="556.2962962962963"/>
      <point x="498.0391061452514" y="600.0"/>
      <point x="384" y="600" type="curve" smooth="yes"/>
      <point x="283.5652173913043" y="600.0"/>
      <point x="219.0" y="544.5333333333333"/>
    </contour>
    <contour>
      <point x="68" y="292" type="curve" smooth="yes"/>
      <point x="63.989009866050786" y="331.1071538060048"/>
      <point x="33.028571428571425" y="350.0"/>
      <point x="0" y="350" type="curve"/>
      <point x="0" y="0" type="line"/>
      <point x="293" y="0" type="line" smooth="yes"/>
      <point x="315" y="0"/>
      <point x="323" y="9"/>
      <point x="323" y="20" type="curve" smooth="yes"/>
      <point x="323" y="31"/>
      <point x="310" y="39"/>
      <point x="282" y="45" type="curve" smooth="yes"/>
      <point x="176.50261488828434" y="66.79698039498257"/>
      <point x="84.99029801104633" y="125.09530777383901"/>
    </contour>
    <contour>
      <point x="682" y="292" type="curve" smooth="yes"/>
      <point x="665" y="125"/>
      <point x="573.4973851117156" y="66.79698039498257"/>
      <point x="468" y="45" type="curve" smooth="yes"/>
      <point x="440" y="39"/>
      <point x="427" y="31"/>
      <point x="427" y="20" type="curve" smooth="yes"/>
      <point x="427" y="9"/>
      <point x="435" y="0"/>
      <point x="457" y="0" type="curve" smooth="yes"/>
      <point x="750" y="0" type="line"/>
      <point x="750" y="350" type="line"/>
      <point x="716.9714285714286" y="350.0"/>
      <point x="686" y="331"/>
    </contour>
    <contour>
      <point x="375" y="368" type="curve" smooth="yes"/>
      <point x="291" y="368"/>
      <point x="221" y="321"/>
      <point x="221" y="265" type="curve" smooth="yes"/>
      <point x="221.0" y="208.3913043478261"/>
      <point x="290.91954022988506" y="160.0"/>
      <point x="375" y="160" type="curve" smooth="yes"/>
      <point x="460.02857142857147" y="160.0"/>
      <point x="530.0" y="208.3913043478261"/>
      <point x="530" y="265" type="curve" smooth="yes"/>
      <point x="530" y="321"/>
      <point x="460" y="368"/>
    </contour>
    <contour>
      <point x="87" y="675"/>
      <point x="220" y="710"/>
      <point x="309" y="717" type="curve" smooth="yes"/>
      <point x="323" y="718"/>
      <point x="330" y="724"/>
      <point x="330" y="733" type="curve" smooth="yes"/>
      <point x="330" y="743"/>
      <point x="323" y="750"/>
      <point x="308" y="750" type="curve" smooth="yes"/>
      <point x="0" y="750"/>
      <point x="0" y="750"/>
      <point x="0" y="750" type="curve"/>
      <point x="0" y="400" type="line"/>
      <point x="44" y="400"/>
      <point x="64" y="436"/>
      <point x="68" y="474" type="curve" smooth="yes"/>
    </contour>
    <component base="jointure"/>
  </outline>
</glyph>
<glyph name="eight" format="1">
  <advance width="750"/>
  <unicode hex="0038"/>
  <outline>
    <contour>
      <point x="663" y="552" type="curve" smooth="yes"/>
      <point x="663" y="497"/>
      <point x="643" y="453"/>
      <point x="600" y="427" type="curve" smooth="yes"/>
      <point x="590" y="421"/>
      <point x="587" y="418"/>
      <point x="587" y="412" type="curve" smooth="yes"/>
      <point x="587" y="404"/>
      <point x="592" y="400"/>
      <point x="599" y="400" type="curve" smooth="yes"/>
      <point x="750" y="400" type="line"/>
      <point x="750" y="750" type="line"/>
      <point x="467" y="750" type="line" smooth="yes"/>
      <point x="453" y="750"/>
      <point x="448" y="743"/>
      <point x="448" y="735" type="curve" smooth="yes"/>
      <point x="448" y="727"/>
      <point x="456" y="718"/>
      <point x="478" y="715" type="curve" smooth="yes"/>
      <point x="588.9094162239571" y="701.2683579913196"/>
      <point x="663.0" y="626.0"/>
    </contour>
    <contour>
      <point x="683" y="198" type="curve" smooth="yes"/>
      <point x="683.0" y="124.0"/>
      <point x="600.9153046036362" y="49.707814226076124"/>
      <point x="478" y="35" type="curve" smooth="yes"/>
      <point x="456" y="32"/>
      <point x="448" y="23"/>
      <point x="448" y="15" type="curve" smooth="yes"/>
      <point x="448" y="7"/>
      <point x="453" y="0"/>
      <point x="467" y="0" type="curve" smooth="yes"/>
      <point x="750" y="0" type="line"/>
      <point x="750" y="350" type="line"/>
      <point x="609" y="350" type="line" smooth="yes"/>
      <point x="602" y="350"/>
      <point x="597" y="346"/>
      <point x="597" y="339" type="curve" smooth="yes"/>
      <point x="597" y="331"/>
      <point x="601" y="327"/>
      <point x="610" y="323" type="curve" smooth="yes"/>
      <point x="661" y="300"/>
      <point x="683" y="253"/>
    </contour>
    <contour>
      <point x="87" y="552" type="curve" smooth="yes"/>
      <point x="87.0" y="626.0"/>
      <point x="161.08817103742507" y="701.2680592713002"/>
      <point x="272" y="715" type="curve" smooth="yes"/>
      <point x="294" y="718"/>
      <point x="302" y="727"/>
      <point x="302" y="735" type="curve" smooth="yes"/>
      <point x="302" y="743"/>
      <point x="297" y="750"/>
      <point x="283" y="750" type="curve" smooth="yes"/>
      <point x="0" y="750" type="line"/>
      <point x="0" y="400" type="line"/>
      <point x="151" y="400" type="line" smooth="yes"/>
      <point x="158" y="400"/>
      <point x="163" y="404"/>
      <point x="163" y="412" type="curve" smooth="yes"/>
      <point x="163" y="418"/>
      <point x="160" y="421"/>
      <point x="150" y="427" type="curve" smooth="yes"/>
      <point x="107" y="453"/>
      <point x="87" y="497"/>
    </contour>
    <contour>
      <point x="67" y="198" type="curve" smooth="yes"/>
      <point x="67" y="253"/>
      <point x="89" y="300"/>
      <point x="140" y="323" type="curve" smooth="yes"/>
      <point x="149" y="327"/>
      <point x="153" y="331"/>
      <point x="153" y="339" type="curve" smooth="yes"/>
      <point x="153" y="346"/>
      <point x="148" y="350"/>
      <point x="141" y="350" type="curve" smooth="yes"/>
      <point x="0" y="350" type="line"/>
      <point x="0" y="0" type="line"/>
      <point x="283" y="0" type="line" smooth="yes"/>
      <point x="297" y="0"/>
      <point x="302" y="7"/>
      <point x="302" y="15" type="curve" smooth="yes"/>
      <point x="302" y="23"/>
      <point x="294" y="32"/>
      <point x="272" y="35" type="curve" smooth="yes"/>
      <point x="149.08265773924347" y="49.708058048295655"/>
      <point x="67.0" y="124.0"/>
    </contour>
    <contour>
      <point x="375" y="424" type="curve" smooth="yes"/>
      <point x="450.93220338983053" y="424.0"/>
      <point x="503.0" y="462.283185840708"/>
      <point x="503" y="527" type="curve" smooth="yes"/>
      <point x="503.0" y="584.8125"/>
      <point x="452.01694915254234" y="601.0"/>
      <point x="375" y="601" type="curve" smooth="yes"/>
      <point x="299.06779661016947" y="601.0"/>
      <point x="247.0" y="582.5"/>
      <point x="247" y="527" type="curve" smooth="yes"/>
      <point x="247.0" y="462.283185840708"/>
      <point x="299.06779661016947" y="424.0"/>
    </contour>
    <contour>
      <point x="375" y="326" type="curve" smooth="yes"/>
      <point x="288.1304347826087" y="326.0"/>
      <point x="227.0" y="289.53982300884957"/>
      <point x="227" y="223" type="curve" smooth="yes"/>
      <point x="227.0" y="167.5"/>
      <point x="285.9855072463768" y="149.0"/>
      <point x="375" y="149" type="curve" smooth="yes"/>
      <point x="462.94202898550725" y="149.0"/>
      <point x="523.0" y="166.34375"/>
      <point x="523" y="223" type="curve" smooth="yes"/>
      <point x="523.0" y="287.716814159292"/>
      <point x="461.86956521739125" y="326.0"/>
    </contour>
    <component base="jointure"/>
  </outline>
</glyph>
<glyph name="nine" format="1">
  <advance width="750"/>
  <unicode hex="0039"/>
  <outline>
    <contour>
      <point x="0" y="350" type="line"/>
      <point x="0" y="0" type="line"/>
      <point x="287" y="0" type="line" smooth="yes"/>
      <point x="307" y="0"/>
      <point x="310" y="6"/>
      <point x="310" y="13" type="curve" smooth="yes"/>
      <point x="310" y="20"/>
      <point x="305" y="27"/>
      <point x="290" y="29" type="curve" smooth="yes"/>
      <point x="125" y="56"/>
      <point x="65" y="122"/>
      <point x="65" y="208" type="curve" smooth="yes"/>
      <point x="65" y="239"/>
      <point x="103" y="252"/>
      <point x="156" y="273" type="curve" smooth="yes"/>
      <point x="188" y="286"/>
      <point x="185" y="305"/>
      <point x="145" y="329" type="curve" smooth="yes"/>
      <point x="119" y="345"/>
      <point x="103" y="350"/>
      <point x="76" y="350" type="curve" smooth="yes"/>
    </contour>
    <contour>
      <point x="531" y="310" type="curve" smooth="yes"/>
      <point x="531" y="317"/>
      <point x="529" y="320"/>
      <point x="523" y="320" type="curve" smooth="yes"/>
      <point x="516" y="320"/>
      <point x="466" y="260"/>
      <point x="374" y="260" type="curve" smooth="yes"/>
      <point x="333" y="260"/>
      <point x="299" y="269"/>
      <point x="266" y="282" type="curve" smooth="yes"/>
      <point x="234" y="295"/>
      <point x="217" y="293"/>
      <point x="217" y="268" type="curve" smooth="yes"/>
      <point x="217" y="194"/>
      <point x="252" y="150"/>
      <point x="366" y="150" type="curve" smooth="yes"/>
      <point x="466" y="150"/>
      <point x="531" y="205"/>
    </contour>
    <contour>
      <point x="682" y="458" type="curve" smooth="yes"/>
      <point x="686" y="419"/>
      <point x="717" y="400"/>
      <point x="750" y="400" type="curve"/>
      <point x="750" y="750" type="line"/>
      <point x="457" y="750" type="line" smooth="yes"/>
      <point x="435" y="750"/>
      <point x="427" y="741"/>
      <point x="427" y="730" type="curve" smooth="yes"/>
      <point x="427" y="719"/>
      <point x="440" y="711"/>
      <point x="468" y="705" type="curve" smooth="yes"/>
      <point x="573" y="683"/>
      <point x="665" y="625"/>
    </contour>
    <contour>
      <point x="68" y="458" type="curve" smooth="yes"/>
      <point x="85" y="625"/>
      <point x="177" y="683"/>
      <point x="282" y="705" type="curve" smooth="yes"/>
      <point x="310" y="711"/>
      <point x="323" y="719"/>
      <point x="323" y="730" type="curve" smooth="yes"/>
      <point x="323" y="741"/>
      <point x="315" y="750"/>
      <point x="293" y="750" type="curve" smooth="yes"/>
      <point x="0" y="750" type="line"/>
      <point x="0" y="400" type="line"/>
      <point x="33" y="400"/>
      <point x="64" y="419"/>
    </contour>
    <contour>
      <point x="375" y="382" type="curve" smooth="yes"/>
      <point x="459" y="382"/>
      <point x="529" y="429"/>
      <point x="529" y="485" type="curve" smooth="yes"/>
      <point x="529" y="542"/>
      <point x="459" y="590"/>
      <point x="375" y="590" type="curve" smooth="yes"/>
      <point x="290" y="590"/>
      <point x="220" y="542"/>
      <point x="220" y="485" type="curve" smooth="yes"/>
      <point x="220" y="429"/>
      <point x="290" y="382"/>
    </contour>
    <contour>
      <point x="530" y="40"/>
      <point x="663" y="75"/>
      <point x="682" y="276" type="curve" smooth="yes"/>
      <point x="686" y="314"/>
      <point x="706" y="350"/>
      <point x="750" y="350" type="curve"/>
      <point x="750" y="0" type="line"/>
      <point x="750" y="0"/>
      <point x="750" y="0"/>
      <point x="442" y="0" type="curve" smooth="yes"/>
      <point x="427" y="0"/>
      <point x="420" y="7"/>
      <point x="420" y="17" type="curve" smooth="yes"/>
      <point x="420" y="26"/>
      <point x="427" y="32"/>
      <point x="441" y="33" type="curve" smooth="yes"/>
    </contour>
    <component base="jointure"/>
  </outline>
</glyph>
<glyph name="colon" format="1">
  <advance width="375"/>
  <unicode hex="003A"/>
  <outline>
    <contour>
      <point x="0" y="750" type="line"/>
      <point x="0" y="400" type="line"/>
      <point x="130" y="400" type="line" smooth="yes"/>
      <point x="151" y="400"/>
      <point x="159" y="404"/>
      <point x="159" y="416" type="curve" smooth="yes"/>
      <point x="159" y="424"/>
      <point x="156" y="429"/>
      <point x="139" y="436" type="curve" smooth="yes"/>
      <point x="90" y="456"/>
      <point x="54" y="504"/>
      <point x="54" y="560" type="curve" smooth="yes"/>
      <point x="54" y="633"/>
      <point x="114" y="694"/>
      <point x="187" y="694" type="curve"/>
      <point x="261" y="694"/>
      <point x="321" y="633"/>
      <point x="321" y="560" type="curve" smooth="yes"/>
      <point x="321" y="504"/>
      <point x="285" y="456"/>
      <point x="236" y="436" type="curve" smooth="yes"/>
      <point x="219" y="429"/>
      <point x="216" y="424"/>
      <point x="216" y="416" type="curve" smooth="yes"/>
      <point x="216" y="404"/>
      <point x="224" y="400"/>
      <point x="245" y="400" type="curve" smooth="yes"/>
      <point x="375" y="400" type="line"/>
      <point x="375" y="750" type="line"/>
    </contour>
    <contour>
      <point x="0" y="0" type="line"/>
      <point x="375" y="0" type="line"/>
      <point x="375" y="350" type="line"/>
      <point x="245" y="350" type="line" smooth="yes"/>
      <point x="224" y="350"/>
      <point x="216" y="346"/>
      <point x="216" y="334" type="curve" smooth="yes"/>
      <point x="216" y="326"/>
      <point x="219" y="321"/>
      <point x="236" y="314" type="curve" smooth="yes"/>
      <point x="285" y="294"/>
      <point x="321" y="246"/>
      <point x="321" y="190" type="curve" smooth="yes"/>
      <point x="321" y="117"/>
      <point x="261" y="56"/>
      <point x="187" y="56" type="curve"/>
      <point x="114" y="56"/>
      <point x="54" y="117"/>
      <point x="54" y="190" type="curve" smooth="yes"/>
      <point x="54" y="246"/>
      <point x="90" y="294"/>
      <point x="139" y="314" type="curve" smooth="yes"/>
      <point x="156" y="321"/>
      <point x="159" y="326"/>
      <point x="159" y="334" type="curve" smooth="yes"/>
      <point x="159" y="346"/>
      <point x="151" y="350"/>
      <point x="130" y="350" type="curve" smooth="yes"/>
      <point x="0" y="350" type="line"/>
    </contour>
    <component base="jointure"/>
  </outline>
</glyph>
<glyph name="semicolon" format="1">
  <advance width="375"/>
  <unicode hex="003B"/>
  <outline>
    <contour>
      <point x="0" y="750" type="line"/>
      <point x="0" y="400" type="line"/>
      <point x="130" y="400" type="line" smooth="yes"/>
      <point x="151" y="400"/>
      <point x="159" y="404"/>
      <point x="159" y="416" type="curve" smooth="yes"/>
      <point x="159" y="424"/>
      <point x="156" y="429"/>
      <point x="139" y="436" type="curve" smooth="yes"/>
      <point x="90" y="456"/>
      <point x="54" y="504"/>
      <point x="54" y="560" type="curve" smooth="yes"/>
      <point x="54" y="633"/>
      <point x="114" y="694"/>
      <point x="187" y="694" type="curve"/>
      <point x="261" y="694"/>
      <point x="321" y="633"/>
      <point x="321" y="560" type="curve" smooth="yes"/>
      <point x="321" y="504"/>
      <point x="285" y="456"/>
      <point x="236" y="436" type="curve" smooth="yes"/>
      <point x="219" y="429"/>
      <point x="216" y="424"/>
      <point x="216" y="416" type="curve" smooth="yes"/>
      <point x="216" y="404"/>
      <point x="224" y="400"/>
      <point x="245" y="400" type="curve" smooth="yes"/>
      <point x="375" y="400" type="line"/>
      <point x="375" y="750" type="line"/>
    </contour>
    <contour>
      <point x="151" y="0" type="curve" smooth="yes"/>
      <point x="375" y="0" type="line"/>
      <point x="375" y="350" type="line"/>
      <point x="245" y="350" type="line" smooth="yes"/>
      <point x="224" y="350"/>
      <point x="216" y="346"/>
      <point x="216" y="334" type="curve" smooth="yes"/>
      <point x="216" y="326"/>
      <point x="219" y="321"/>
      <point x="236" y="314" type="curve" smooth="yes"/>
      <point x="285" y="294"/>
      <point x="321" y="246"/>
      <point x="321" y="204" type="curve" smooth="yes"/>
      <point x="321.0" y="137.08695652173913"/>
      <point x="244.99650842180307" y="75.44524844378435"/>
      <point x="150" y="33" type="curve" smooth="yes"/>
      <point x="133.6392730124714" y="25.886640440204953"/>
      <point x="128" y="21"/>
      <point x="128" y="14" type="curve" smooth="yes"/>
      <point x="128" y="7"/>
      <point x="135" y="0"/>
    </contour>
    <contour>
      <point x="0" y="0" type="line"/>
      <point x="51" y="0" type="line" smooth="yes"/>
      <point x="65" y="0"/>
      <point x="72" y="9"/>
      <point x="72" y="21" type="curve" smooth="yes"/>
      <point x="72" y="56"/>
      <point x="54" y="124"/>
      <point x="54" y="190" type="curve" smooth="yes"/>
      <point x="54" y="246"/>
      <point x="90" y="294"/>
      <point x="139" y="314" type="curve" smooth="yes"/>
      <point x="156" y="321"/>
      <point x="159" y="326"/>
      <point x="159" y="334" type="curve" smooth="yes"/>
      <point x="159" y="346"/>
      <point x="151" y="350"/>
      <point x="130" y="350" type="curve" smooth="yes"/>
      <point x="0" y="350" type="line"/>
    </contour>
    <component base="jointure"/>
  </outline>
</glyph>
<glyph name="less" format="1">
  <advance width="750"/>
  <unicode hex="003C"/>
  <outline>
    <contour>
      <point x="750" y="400" type="line"/>
      <point x="750" y="750" type="line"/>
      <point x="730" y="750" type="line" smooth="yes"/>
      <point x="665.7654320987655" y="750"/>
      <point x="621" y="725"/>
      <point x="488" y="601" type="curve" smooth="yes"/>
      <point x="331" y="455" type="line" smooth="yes"/>
      <point x="305.805511673909" y="431.57073060121473"/>
      <point x="311" y="400"/>
      <point x="356" y="400" type="curve" smooth="yes"/>
    </contour>
    <contour>
      <point x="130" y="456" type="curve" smooth="yes"/>
      <point x="338" y="673" type="line" smooth="yes"/>
      <point x="379" y="716"/>
      <point x="360" y="750"/>
      <point x="309" y="750" type="curve" smooth="yes"/>
      <point x="0.0" y="750.0" type="line"/>
      <point x="0.0" y="400.0" type="line"/>
      <point x="18" y="400" type="line" smooth="yes"/>
      <point x="67" y="400"/>
      <point x="102" y="426"/>
    </contour>
    <contour>
      <point x="750" y="350" type="line"/>
      <point x="356" y="350" type="line" smooth="yes"/>
      <point x="311" y="350"/>
      <point x="306" y="318"/>
      <point x="331" y="295" type="curve" smooth="yes"/>
      <point x="488" y="149" type="line" smooth="yes"/>
      <point x="621" y="25"/>
      <point x="666" y="0"/>
      <point x="730" y="0" type="curve" smooth="yes"/>
      <point x="750" y="0" type="line"/>
    </contour>
    <contour>
      <point x="130" y="294" type="line" smooth="yes"/>
      <point x="102" y="324"/>
      <point x="67" y="350"/>
      <point x="18" y="350" type="curve" smooth="yes"/>
      <point x="0" y="350" type="line"/>
      <point x="0" y="0" type="line"/>
      <point x="309" y="0" type="line" smooth="yes"/>
      <point x="360" y="0"/>
      <point x="379" y="34"/>
      <point x="338" y="77" type="curve" smooth="yes"/>
    </contour>
    <component base="jointure"/>
  </outline>
</glyph>
<glyph name="greater" format="1">
  <advance width="750"/>
  <unicode hex="003E"/>
  <outline>
    <contour>
      <point x="0" y="400" type="line"/>
      <point x="394" y="400" type="line" smooth="yes"/>
      <point x="439" y="400"/>
      <point x="444" y="432"/>
      <point x="419" y="455" type="curve" smooth="yes"/>
      <point x="262" y="601" type="line" smooth="yes"/>
      <point x="129" y="725"/>
      <point x="84" y="750"/>
      <point x="20" y="750" type="curve" smooth="yes"/>
      <point x="0" y="750" type="line"/>
    </contour>
    <contour>
      <point x="620" y="456" type="line" smooth="yes"/>
      <point x="648" y="426"/>
      <point x="683" y="400"/>
      <point x="732" y="400" type="curve" smooth="yes"/>
      <point x="750" y="400" type="line"/>
      <point x="750" y="750" type="line"/>
      <point x="441" y="750" type="line" smooth="yes"/>
      <point x="390" y="750"/>
      <point x="371" y="716"/>
      <point x="412" y="673" type="curve" smooth="yes"/>
    </contour>
    <contour>
      <point x="0" y="350" type="line"/>
      <point x="0" y="0" type="line"/>
      <point x="20" y="0" type="line" smooth="yes"/>
      <point x="84" y="0"/>
      <point x="129" y="25"/>
      <point x="262" y="149" type="curve" smooth="yes"/>
      <point x="419" y="295" type="line" smooth="yes"/>
      <point x="444" y="318"/>
      <point x="439" y="350"/>
      <point x="394" y="350" type="curve" smooth="yes"/>
    </contour>
    <contour>
      <point x="620" y="294" type="curve" smooth="yes"/>
      <point x="412" y="77" type="line" smooth="yes"/>
      <point x="371" y="34"/>
      <point x="390" y="0"/>
      <point x="441" y="0" type="curve" smooth="yes"/>
      <point x="750" y="0" type="line"/>
      <point x="750" y="350" type="line"/>
      <point x="732" y="350" type="line" smooth="yes"/>
      <point x="683" y="350"/>
      <point x="648" y="324"/>
    </contour>
    <component base="jointure"/>
  </outline>
</glyph>
<glyph name="question" format="1">
  <advance width="750"/>
  <unicode hex="003F"/>
  <outline>
    <contour>
      <point x="0" y="0" type="line"/>
      <point x="750" y="0" type="line"/>
      <point x="750" y="350" type="line"/>
      <point x="433" y="350" type="line" smooth="yes"/>
      <point x="412" y="350"/>
      <point x="404" y="346"/>
      <point x="404" y="334" type="curve" smooth="yes"/>
      <point x="404" y="326"/>
      <point x="407" y="321"/>
      <point x="424" y="314" type="curve" smooth="yes"/>
      <point x="473" y="294"/>
      <point x="509" y="246"/>
      <point x="509" y="190" type="curve" smooth="yes"/>
      <point x="509" y="117"/>
      <point x="449" y="56"/>
      <point x="375" y="56" type="curve"/>
      <point x="302" y="56"/>
      <point x="242" y="117"/>
      <point x="242" y="190" type="curve" smooth="yes"/>
      <point x="242" y="246"/>
      <point x="278" y="294"/>
      <point x="327" y="314" type="curve" smooth="yes"/>
      <point x="344" y="321"/>
      <point x="347" y="326"/>
      <point x="347" y="334" type="curve" smooth="yes"/>
      <point x="347" y="346"/>
      <point x="339" y="350"/>
      <point x="318" y="350" type="curve" smooth="yes"/>
      <point x="0" y="350" type="line"/>
    </contour>
    <contour>
      <point x="648" y="578" type="curve" smooth="yes"/>
      <point x="648.0" y="495.21232876712327"/>
      <point x="537" y="482"/>
      <point x="480" y="425" type="curve" smooth="yes"/>
      <point x="475" y="420"/>
      <point x="474" y="416"/>
      <point x="474" y="411" type="curve" smooth="yes"/>
      <point x="474" y="404"/>
      <point x="479.38461538461536" y="400"/>
      <point x="488" y="400" type="curve" smooth="yes"/>
      <point x="750" y="400" type="line"/>
      <point x="750" y="750" type="line"/>
      <point x="469" y="750" type="line" smooth="yes"/>
      <point x="448" y="750"/>
      <point x="443" y="743"/>
      <point x="443" y="735" type="curve" smooth="yes"/>
      <point x="443" y="727"/>
      <point x="451" y="718"/>
      <point x="473" y="715" type="curve" smooth="yes"/>
      <point x="578" y="702"/>
      <point x="648" y="626"/>
    </contour>
    <contour>
      <point x="0" y="400" type="line"/>
      <point x="91" y="400" type="line" smooth="yes"/>
      <point x="134" y="400"/>
      <point x="161" y="401"/>
      <point x="177" y="405" type="curve" smooth="yes"/>
      <point x="208" y="411"/>
      <point x="221" y="428"/>
      <point x="203" y="456" type="curve" smooth="yes"/>
      <point x="189" y="478"/>
      <point x="166" y="496"/>
      <point x="116" y="523" type="curve" smooth="yes"/>
      <point x="88" y="538"/>
      <point x="80" y="556"/>
      <point x="97" y="584" type="curve" smooth="yes"/>
      <point x="133" y="643"/>
      <point x="191" y="692"/>
      <point x="264" y="714" type="curve" smooth="yes"/>
      <point x="284" y="720"/>
      <point x="291" y="724"/>
      <point x="291" y="735" type="curve" smooth="yes"/>
      <point x="291" y="740"/>
      <point x="287" y="750"/>
      <point x="266" y="750" type="curve" smooth="yes"/>
      <point x="0" y="750" type="line"/>
    </contour>
    <contour>
      <point x="237" y="473" type="curve" smooth="yes"/>
      <point x="249.4295535230003" y="446.2286539504609"/>
      <point x="266.4507042253521" y="416.0"/>
      <point x="288" y="416" type="curve" smooth="yes"/>
      <point x="300" y="416"/>
      <point x="312" y="423"/>
      <point x="335" y="463" type="curve" smooth="yes"/>
      <point x="381.815684306794" y="543.1068375916253"/>
      <point x="488" y="549"/>
      <point x="488" y="574" type="curve" smooth="yes"/>
      <point x="488" y="591"/>
      <point x="450.0" y="601.0"/>
      <point x="383" y="601" type="curve" smooth="yes"/>
      <point x="309" y="601"/>
      <point x="264" y="569"/>
      <point x="237" y="537" type="curve" smooth="yes"/>
      <point x="221" y="518"/>
      <point x="222" y="504"/>
    </contour>
    <component base="jointure"/>
  </outline>
</glyph>
<glyph name="at" format="1">
  <advance width="750"/>
  <unicode hex="0040"/>
  <outline>
    <contour>
      <point x="58" y="479" type="curve" smooth="yes"/>
      <point x="87" y="577"/>
      <point x="174" y="662"/>
      <point x="282" y="695" type="curve" smooth="yes"/>
      <point x="311" y="704"/>
      <point x="323" y="715"/>
      <point x="323" y="730" type="curve" smooth="yes"/>
      <point x="323" y="741"/>
      <point x="315" y="750"/>
      <point x="293" y="750" type="curve" smooth="yes"/>
      <point x="0" y="750" type="line"/>
      <point x="0" y="400" type="line"/>
      <point x="23" y="400"/>
      <point x="39" y="415"/>
    </contour>
    <contour>
      <point x="58" y="271" type="curve" smooth="yes"/>
      <point x="39" y="335"/>
      <point x="23" y="350"/>
      <point x="0" y="350" type="curve"/>
      <point x="0" y="0" type="line"/>
      <point x="293" y="0" type="line" smooth="yes"/>
      <point x="315" y="0"/>
      <point x="323" y="9"/>
      <point x="323" y="20" type="curve" smooth="yes"/>
      <point x="323" y="35"/>
      <point x="311" y="46"/>
      <point x="282" y="55" type="curve" smooth="yes"/>
      <point x="174" y="88"/>
      <point x="87" y="173"/>
    </contour>
    <contour>
      <point x="543" y="89" type="curve" smooth="yes"/>
      <point x="555.0245083059558" y="98.01838122946684"/>
      <point x="554" y="114"/>
      <point x="547" y="123" type="curve" smooth="yes"/>
      <point x="513" y="171" type="line" smooth="yes"/>
      <point x="506" y="181"/>
      <point x="492" y="186"/>
      <point x="482" y="178" type="curve" smooth="yes"/>
      <point x="453.8147385955913" y="156.61807755527616"/>
      <point x="415.0" y="143.0"/>
      <point x="375" y="143" type="curve" smooth="yes"/>
      <point x="263.0" y="143.0"/>
      <point x="144.0" y="234.8127659574468"/>
      <point x="144" y="375" type="curve"/>
      <point x="144.0" y="516.3957446808511"/>
      <point x="263.0" y="609.0"/>
      <point x="375" y="609" type="curve" smooth="yes"/>
      <point x="502.64814814814815" y="609.0"/>
      <point x="601" y="534"/>
      <point x="601" y="378" type="curve" smooth="yes"/>
      <point x="601" y="345"/>
      <point x="587" y="320"/>
      <point x="548" y="320" type="curve" smooth="yes"/>
      <point x="506" y="320"/>
      <point x="493.0" y="345.0"/>
      <point x="493" y="382" type="curve" smooth="yes"/>
      <point x="493" y="470"/>
      <point x="441" y="506"/>
      <point x="375" y="506" type="curve" smooth="yes"/>
      <point x="310" y="506"/>
      <point x="242" y="455"/>
      <point x="242" y="375" type="curve"/>
      <point x="242" y="298"/>
      <point x="309" y="246"/>
      <point x="359" y="246" type="curve" smooth="yes"/>
      <point x="396.3863636363636" y="246.0"/>
      <point x="422" y="275"/>
      <point x="453" y="275" type="curve" smooth="yes"/>
      <point x="484.0344827586207" y="275.0"/>
      <point x="506" y="221"/>
      <point x="573" y="221" type="curve" smooth="yes"/>
      <point x="636" y="221"/>
      <point x="673" y="253"/>
      <point x="691" y="297" type="curve" smooth="yes"/>
      <point x="706" y="336"/>
      <point x="723.1666666666666" y="350.0"/>
      <point x="750" y="350" type="curve"/>
      <point x="750" y="0" type="line"/>
      <point x="457" y="0" type="line" smooth="yes"/>
      <point x="435" y="0"/>
      <point x="427" y="9"/>
      <point x="427" y="20" type="curve" smooth="yes"/>
      <point x="427" y="35"/>
      <point x="439" y="46"/>
      <point x="468" y="55" type="curve" smooth="yes"/>
      <point x="496.39035533572786" y="63.73549394945473"/>
      <point x="525" y="75"/>
    </contour>
    <contour>
      <point x="692" y="479" type="curve" smooth="yes"/>
      <point x="711" y="415"/>
      <point x="727" y="400"/>
      <point x="750" y="400" type="curve"/>
      <point x="750" y="750" type="line"/>
      <point x="457" y="750" type="line" smooth="yes"/>
      <point x="435" y="750"/>
      <point x="427" y="741"/>
      <point x="427" y="730" type="curve" smooth="yes"/>
      <point x="427" y="715"/>
      <point x="439" y="704"/>
      <point x="468" y="695" type="curve" smooth="yes"/>
      <point x="576" y="662"/>
      <point x="663" y="577"/>
    </contour>
    <component base="jointure"/>
    <contour>
      <point x="376.0" y="750.0" type="move" name="top"/>
    </contour>
  </outline>
</glyph>
<glyph name="A" format="1">
  <advance width="750"/>
  <unicode hex="0041"/>
  <outline>
    <contour>
      <point x="722" y="0" type="curve" smooth="yes"/>
      <point x="750" y="0" type="line"/>
      <point x="750" y="350" type="line"/>
      <point x="679" y="350" type="line" smooth="yes"/>
      <point x="650.0" y="350.0"/>
      <point x="629.7161167926096" y="325.9579746166534"/>
      <point x="634" y="298" type="curve" smooth="yes"/>
      <point x="672" y="50" type="line" smooth="yes"/>
      <point x="676.4338708570672" y="21.063158617035434"/>
      <point x="694.0" y="0.0"/>
    </contour>
    <contour>
      <point x="0" y="750" type="line"/>
      <point x="0" y="400" type="line"/>
      <point x="88" y="400" type="line" smooth="yes"/>
      <point x="118.0" y="400.0"/>
      <point x="138.36643361618326" y="416.9412232024195"/>
      <point x="143" y="447" type="curve" smooth="yes"/>
      <point x="182" y="700" type="line" smooth="yes"/>
      <point x="186.46000077327395" y="728.9328255291873"/>
      <point x="170.0" y="750.0"/>
      <point x="132" y="750" type="curve" smooth="yes"/>
    </contour>
    <contour>
      <point x="75" y="350" type="curve" smooth="yes"/>
      <point x="0" y="350" type="line"/>
      <point x="0" y="0" type="line"/>
      <point x="32" y="0" type="line" smooth="yes"/>
      <point x="60.0" y="0.0"/>
      <point x="77.56612914293285" y="21.063158617035434"/>
      <point x="82" y="50" type="curve" smooth="yes"/>
      <point x="120" y="298" type="line" smooth="yes"/>
      <point x="124.28388320739045" y="325.9579746166534"/>
      <point x="104.0" y="350.0"/>
    </contour>
    <contour>
      <point x="666" y="400" type="curve" smooth="yes"/>
      <point x="750" y="400" type="line"/>
      <point x="750" y="750" type="line"/>
      <point x="622" y="750" type="line" smooth="yes"/>
      <point x="584.0" y="750.0"/>
      <point x="567.5399992267261" y="728.9328255291873"/>
      <point x="572" y="700" type="curve" smooth="yes"/>
      <point x="611" y="447" type="line" smooth="yes"/>
      <point x="615.6335663838167" y="416.9412232024195"/>
      <point x="636.0" y="400.0"/>
    </contour>
    <contour>
      <point x="429" y="281" type="line" smooth="yes"/>
      <point x="455.0" y="281.0"/>
      <point x="473.2556178649845" y="302.03076912349553"/>
      <point x="470" y="328" type="curve" smooth="yes"/>
      <point x="427" y="671" type="line" smooth="yes"/>
      <point x="422.7415461693121" y="704.9685968354876"/>
      <point x="405.0" y="731.0"/>
      <point x="377" y="731" type="curve" smooth="yes"/>
      <point x="374" y="731" type="line" smooth="yes"/>
      <point x="346.0" y="731.0"/>
      <point x="328.2584538306879" y="704.9685968354876"/>
      <point x="324" y="671" type="curve" smooth="yes"/>
      <point x="281" y="328" type="line" smooth="yes"/>
      <point x="277.7443821350155" y="302.03076912349553"/>
      <point x="296.0" y="281.0"/>
      <point x="322" y="281" type="curve" smooth="yes"/>
    </contour>
    <contour>
      <point x="307" y="177" type="line" smooth="yes"/>
      <point x="278.0" y="177.0"/>
      <point x="257.8595082660114" y="160.01839762453335"/>
      <point x="254" y="130" type="curve" smooth="yes"/>
      <point x="245" y="60" type="line" smooth="yes"/>
      <point x="240.634358749346" y="26.045012494913387"/>
      <point x="267.0" y="0.0"/>
      <point x="295" y="0" type="curve" smooth="yes"/>
      <point x="455" y="0" type="line" smooth="yes"/>
      <point x="483.0" y="0.0"/>
      <point x="509.365641250654" y="26.045012494913387"/>
      <point x="505" y="60" type="curve" smooth="yes"/>
      <point x="496" y="130" type="line" smooth="yes"/>
      <point x="492.1404917339886" y="160.01839762453335"/>
      <point x="472.0" y="177.0"/>
      <point x="443" y="177" type="curve" smooth="yes"/>
    </contour>
    <component base="jointure"/>
  </outline>
</glyph>
<glyph name="B" format="1">
  <advance width="750"/>
  <unicode hex="0042"/>
  <outline>
    <contour>
      <point x="0" y="750" type="line"/>
      <point x="0" y="400" type="line"/>
      <point x="62" y="400" type="line" smooth="yes"/>
      <point x="90" y="400"/>
      <point x="112" y="422"/>
      <point x="112" y="450" type="curve" smooth="yes"/>
      <point x="112" y="700" type="line" smooth="yes"/>
      <point x="112" y="728"/>
      <point x="90" y="750"/>
      <point x="62" y="750" type="curve" smooth="yes"/>
    </contour>
    <contour>
      <point x="267" y="181" type="curve" smooth="yes"/>
      <point x="267" y="170" type="line" smooth="yes"/>
      <point x="267" y="142"/>
      <point x="289" y="120"/>
      <point x="317" y="120" type="curve" smooth="yes"/>
      <point x="362" y="120" type="line" smooth="yes"/>
      <point x="454.0975609756097" y="120"/>
      <point x="480" y="166"/>
      <point x="480" y="248" type="curve" smooth="yes"/>
      <point x="480" y="336"/>
      <point x="409" y="371"/>
      <point x="342" y="329" type="curve" smooth="yes"/>
      <point x="331" y="322" type="line" smooth="yes"/>
      <point x="278" y="290"/>
      <point x="267" y="255.48000000000002"/>
    </contour>
    <contour>
      <point x="594" y="596" type="curve" smooth="yes"/>
      <point x="594" y="550"/>
      <point x="579" y="504"/>
      <point x="507" y="453" type="curve" smooth="yes"/>
      <point x="496" y="445"/>
      <point x="497" y="425"/>
      <point x="522" y="418" type="curve" smooth="yes"/>
      <point x="554" y="409"/>
      <point x="628" y="400"/>
      <point x="692" y="400" type="curve"/>
      <point x="750" y="400" type="line"/>
      <point x="750" y="750" type="line"/>
      <point x="532" y="750" type="line" smooth="yes"/>
      <point x="511" y="750"/>
      <point x="485" y="745"/>
      <point x="485" y="731" type="curve" smooth="yes"/>
      <point x="485.0" y="718.3863636363636"/>
      <point x="514" y="709"/>
      <point x="539" y="694" type="curve" smooth="yes"/>
      <point x="578" y="671"/>
      <point x="594.0" y="646.6153846153846"/>
    </contour>
    <contour>
      <point x="0" y="350" type="line"/>
      <point x="0" y="0" type="line"/>
      <point x="62" y="0" type="line" smooth="yes"/>
      <point x="90" y="0"/>
      <point x="112" y="22"/>
      <point x="112" y="50" type="curve" smooth="yes"/>
      <point x="112" y="300" type="line" smooth="yes"/>
      <point x="112" y="328"/>
      <point x="90" y="350"/>
      <point x="62" y="350" type="curve" smooth="yes"/>
    </contour>
    <contour>
      <point x="428" y="573" type="curve" smooth="yes"/>
      <point x="428" y="613"/>
      <point x="396" y="640"/>
      <point x="351" y="640" type="curve" smooth="yes"/>
      <point x="322" y="640" type="line" smooth="yes"/>
      <point x="279" y="640"/>
      <point x="267" y="624"/>
      <point x="267" y="589" type="curve" smooth="yes"/>
      <point x="267" y="469" type="line" smooth="yes"/>
      <point x="267" y="424"/>
      <point x="287" y="411"/>
      <point x="355" y="454" type="curve" smooth="yes"/>
      <point x="369" y="463" type="line" smooth="yes"/>
      <point x="409" y="489"/>
      <point x="428" y="537"/>
    </contour>
    <contour>
      <point x="601" y="77" type="curve" smooth="yes"/>
      <point x="582" y="50"/>
      <point x="554" y="36"/>
      <point x="535" y="31" type="curve" smooth="yes"/>
      <point x="503" y="22"/>
      <point x="503" y="0"/>
      <point x="533" y="0" type="curve" smooth="yes"/>
      <point x="750" y="0" type="line"/>
      <point x="750" y="350" type="line"/>
      <point x="711" y="350" type="line" smooth="yes"/>
      <point x="657" y="350"/>
      <point x="614" y="359"/>
      <point x="596" y="359" type="curve" smooth="yes"/>
      <point x="587" y="359"/>
      <point x="581" y="354"/>
      <point x="581" y="345" type="curve" smooth="yes"/>
      <point x="581" y="319"/>
      <point x="640" y="302"/>
      <point x="640" y="209" type="curve" smooth="yes"/>
      <point x="640" y="141"/>
      <point x="615" y="96"/>
    </contour>
    <component base="jointure"/>
  </outline>
</glyph>
<glyph name="C" format="1">
  <advance width="750"/>
  <unicode hex="0043"/>
  <outline>
    <contour>
      <point x="58" y="479" type="curve" smooth="yes"/>
      <point x="87" y="577"/>
      <point x="174" y="662"/>
      <point x="282" y="695" type="curve" smooth="yes"/>
      <point x="311" y="704"/>
      <point x="323" y="715"/>
      <point x="323" y="730" type="curve" smooth="yes"/>
      <point x="323" y="741"/>
      <point x="315" y="750"/>
      <point x="293" y="750" type="curve" smooth="yes"/>
      <point x="0" y="750" type="line"/>
      <point x="0" y="400" type="line"/>
      <point x="23" y="400"/>
      <point x="39" y="415"/>
    </contour>
    <contour>
      <point x="58" y="271" type="curve" smooth="yes"/>
      <point x="39" y="335"/>
      <point x="23" y="350"/>
      <point x="0" y="350" type="curve"/>
      <point x="0" y="0" type="line"/>
      <point x="293" y="0" type="line" smooth="yes"/>
      <point x="315" y="0"/>
      <point x="323" y="9"/>
      <point x="323" y="20" type="curve" smooth="yes"/>
      <point x="323" y="35"/>
      <point x="311" y="46"/>
      <point x="282" y="55" type="curve" smooth="yes"/>
      <point x="174" y="88"/>
      <point x="87" y="173"/>
    </contour>
    <contour>
      <point x="621" y="400" type="curve" smooth="yes"/>
      <point x="750" y="400" type="line"/>
      <point x="750" y="750" type="line"/>
      <point x="457" y="750" type="line" smooth="yes"/>
      <point x="435" y="750"/>
      <point x="427" y="741"/>
      <point x="427" y="730" type="curve" smooth="yes"/>
      <point x="427" y="715"/>
      <point x="439" y="704"/>
      <point x="468" y="695" type="curve" smooth="yes"/>
      <point x="552" y="669"/>
      <point x="625" y="613"/>
      <point x="664" y="545" type="curve" smooth="yes"/>
      <point x="683" y="513"/>
      <point x="672" y="491"/>
      <point x="650" y="480" type="curve" smooth="yes"/>
      <point x="613" y="462" type="line" smooth="yes"/>
      <point x="588" y="450"/>
      <point x="581" y="440"/>
      <point x="582" y="430" type="curve" smooth="yes"/>
      <point x="582" y="415"/>
      <point x="595" y="400"/>
    </contour>
    <contour>
      <point x="540" y="375" type="curve"/>
      <point x="540" y="510"/>
      <point x="469" y="562"/>
      <point x="375" y="562" type="curve" smooth="yes"/>
      <point x="285" y="562"/>
      <point x="189" y="488"/>
      <point x="189" y="375" type="curve"/>
      <point x="189" y="262"/>
      <point x="285" y="188"/>
      <point x="375" y="188" type="curve" smooth="yes"/>
      <point x="469" y="188"/>
      <point x="540" y="240"/>
    </contour>
    <contour>
      <point x="621" y="350" type="line" smooth="yes"/>
      <point x="595" y="350"/>
      <point x="582" y="335"/>
      <point x="582" y="320" type="curve" smooth="yes"/>
      <point x="581" y="310"/>
      <point x="588" y="300"/>
      <point x="613" y="288" type="curve" smooth="yes"/>
      <point x="650" y="270" type="line" smooth="yes"/>
      <point x="672" y="259"/>
      <point x="683" y="237"/>
      <point x="664" y="205" type="curve" smooth="yes"/>
      <point x="625" y="137"/>
      <point x="552" y="81"/>
      <point x="468" y="55" type="curve" smooth="yes"/>
      <point x="439" y="46"/>
      <point x="427" y="35"/>
      <point x="427" y="20" type="curve" smooth="yes"/>
      <point x="427" y="9"/>
      <point x="435" y="0"/>
      <point x="457" y="0" type="curve" smooth="yes"/>
      <point x="750" y="0" type="line"/>
      <point x="750" y="350" type="line"/>
    </contour>
    <component base="jointure"/>
    <contour>
      <point x="376" y="750" type="move" name="top"/>
    </contour>
  </outline>
</glyph>
<glyph name="D" format="1">
  <advance width="750"/>
  <unicode hex="0044"/>
  <outline>
    <contour>
      <point x="666" y="257" type="curve" smooth="yes"/>
      <point x="626" y="156"/>
      <point x="500" y="48"/>
      <point x="356" y="28" type="curve" smooth="yes"/>
      <point x="337" y="25"/>
      <point x="336" y="17"/>
      <point x="336" y="11" type="curve" smooth="yes"/>
      <point x="336" y="5"/>
      <point x="341" y="0"/>
      <point x="355" y="0" type="curve" smooth="yes"/>
      <point x="750" y="0" type="line"/>
      <point x="750" y="350" type="line"/>
      <point x="719" y="350"/>
      <point x="698" y="337"/>
    </contour>
    <contour>
      <point x="265" y="177" type="line" smooth="yes"/>
      <point x="265" y="150"/>
      <point x="286" y="150"/>
      <point x="303" y="151" type="curve" smooth="yes"/>
      <point x="432.0792242997677" y="161.00614141858665"/>
      <point x="533" y="234"/>
      <point x="533" y="375" type="curve" smooth="yes"/>
      <point x="533.0" y="515.5490196078431"/>
      <point x="434.078029613123" y="588.994043540983"/>
      <point x="303" y="599" type="curve" smooth="yes"/>
      <point x="287" y="600"/>
      <point x="265" y="598"/>
      <point x="265" y="573" type="curve" smooth="yes"/>
    </contour>
    <contour>
      <point x="0" y="0" type="line"/>
      <point x="60" y="0" type="line" smooth="yes"/>
      <point x="88" y="0"/>
      <point x="110" y="22"/>
      <point x="110" y="50" type="curve" smooth="yes"/>
      <point x="110" y="300" type="line" smooth="yes"/>
      <point x="110" y="328"/>
      <point x="88" y="350"/>
      <point x="60" y="350" type="curve" smooth="yes"/>
      <point x="0" y="350" type="line"/>
    </contour>
    <contour>
      <point x="0" y="400" type="line"/>
      <point x="60" y="400" type="line" smooth="yes"/>
      <point x="88" y="400"/>
      <point x="110" y="422"/>
      <point x="110" y="450" type="curve" smooth="yes"/>
      <point x="110" y="700" type="line" smooth="yes"/>
      <point x="110" y="728"/>
      <point x="88" y="750"/>
      <point x="60" y="750" type="curve" smooth="yes"/>
      <point x="0" y="750" type="line"/>
    </contour>
    <contour>
      <point x="666" y="493" type="curve" smooth="yes"/>
      <point x="698" y="413"/>
      <point x="719" y="400"/>
      <point x="750" y="400" type="curve"/>
      <point x="750" y="750" type="line"/>
      <point x="355" y="750" type="line" smooth="yes"/>
      <point x="341" y="750"/>
      <point x="336" y="745"/>
      <point x="336" y="739" type="curve" smooth="yes"/>
      <point x="336" y="733"/>
      <point x="337" y="725"/>
      <point x="356" y="722" type="curve" smooth="yes"/>
      <point x="500" y="702"/>
      <point x="626" y="594"/>
    </contour>
    <component base="jointure"/>
  </outline>
</glyph>
<glyph name="E" format="1">
  <advance width="750"/>
  <unicode hex="0045"/>
  <outline>
    <contour>
      <point x="0" y="0" type="line"/>
      <point x="60" y="0" type="line" smooth="yes"/>
      <point x="88" y="0"/>
      <point x="110" y="22"/>
      <point x="110" y="50" type="curve" smooth="yes"/>
      <point x="110" y="300" type="line" smooth="yes"/>
      <point x="110" y="328"/>
      <point x="88" y="350"/>
      <point x="60" y="350" type="curve" smooth="yes"/>
      <point x="0" y="350" type="line"/>
    </contour>
    <contour>
      <point x="263" y="489" type="line" smooth="yes"/>
      <point x="263" y="461"/>
      <point x="285" y="439"/>
      <point x="313" y="439" type="curve"/>
      <point x="546" y="439" type="line" smooth="yes"/>
      <point x="585" y="439"/>
      <point x="578" y="400"/>
      <point x="630" y="400" type="curve" smooth="yes"/>
      <point x="750" y="400" type="line"/>
      <point x="750" y="750" type="line"/>
      <point x="730" y="750" type="line" smooth="yes"/>
      <point x="675" y="750"/>
      <point x="739" y="631"/>
      <point x="658" y="631" type="curve" smooth="yes"/>
      <point x="313" y="631" type="line" smooth="yes"/>
      <point x="285" y="631"/>
      <point x="263" y="609"/>
      <point x="263" y="581" type="curve" smooth="yes"/>
    </contour>
    <contour>
      <point x="0" y="400" type="line"/>
      <point x="60" y="400" type="line" smooth="yes"/>
      <point x="88" y="400"/>
      <point x="110" y="423"/>
      <point x="110" y="452" type="curve" smooth="yes"/>
      <point x="110" y="700" type="line" smooth="yes"/>
      <point x="110" y="728"/>
      <point x="88" y="750"/>
      <point x="60" y="750" type="curve" smooth="yes"/>
      <point x="0" y="750" type="line"/>
    </contour>
    <contour>
      <point x="263" y="261" type="curve" smooth="yes"/>
      <point x="263" y="170" type="line" smooth="yes"/>
      <point x="263" y="142"/>
      <point x="285" y="120"/>
      <point x="313" y="120" type="curve" smooth="yes"/>
      <point x="658" y="120" type="line" smooth="yes"/>
      <point x="739" y="120"/>
      <point x="675" y="0"/>
      <point x="730" y="0" type="curve" smooth="yes"/>
      <point x="750" y="0" type="line"/>
      <point x="750" y="350" type="line"/>
      <point x="630" y="350" type="line" smooth="yes"/>
      <point x="578" y="350"/>
      <point x="585" y="313"/>
      <point x="546" y="313" type="curve" smooth="yes"/>
      <point x="313" y="313" type="line"/>
      <point x="285" y="313"/>
      <point x="263" y="290"/>
    </contour>
    <component base="jointure"/>
  </outline>
</glyph>
<glyph name="F" format="1">
  <advance width="750"/>
  <unicode hex="0046"/>
  <outline>
    <contour>
      <point x="0" y="0" type="line"/>
      <point x="60" y="0" type="line" smooth="yes"/>
      <point x="88" y="0"/>
      <point x="110" y="22"/>
      <point x="110" y="50" type="curve" smooth="yes"/>
      <point x="110" y="300" type="line" smooth="yes"/>
      <point x="110" y="328"/>
      <point x="88" y="350"/>
      <point x="60" y="350" type="curve" smooth="yes"/>
      <point x="0" y="350" type="line"/>
    </contour>
    <contour>
      <point x="263" y="450" type="line" smooth="yes"/>
      <point x="263" y="422"/>
      <point x="285" y="400"/>
      <point x="313" y="400" type="curve" smooth="yes"/>
      <point x="750" y="400" type="line"/>
      <point x="750" y="750" type="line"/>
      <point x="730" y="750" type="line" smooth="yes"/>
      <point x="675" y="750"/>
      <point x="739" y="631"/>
      <point x="658" y="631" type="curve" smooth="yes"/>
      <point x="313" y="631" type="line" smooth="yes"/>
      <point x="285" y="631"/>
      <point x="263" y="609"/>
      <point x="263" y="581" type="curve" smooth="yes"/>
    </contour>
    <contour>
      <point x="0" y="400" type="line"/>
      <point x="60" y="400" type="line" smooth="yes"/>
      <point x="88" y="400"/>
      <point x="110" y="423"/>
      <point x="110" y="452" type="curve" smooth="yes"/>
      <point x="110" y="700" type="line" smooth="yes"/>
      <point x="110" y="728"/>
      <point x="88" y="750"/>
      <point x="60" y="750" type="curve" smooth="yes"/>
      <point x="0" y="750" type="line"/>
    </contour>
    <contour>
      <point x="263" y="222" type="curve" smooth="yes"/>
      <point x="263" y="50" type="line" smooth="yes"/>
      <point x="263" y="22"/>
      <point x="285" y="0"/>
      <point x="313" y="0" type="curve" smooth="yes"/>
      <point x="750" y="0" type="line"/>
      <point x="750" y="350" type="line"/>
      <point x="650" y="350" type="line" smooth="yes"/>
      <point x="598.0" y="350"/>
      <point x="605.0" y="274"/>
      <point x="566" y="274" type="curve" smooth="yes"/>
      <point x="313" y="274" type="line" smooth="yes"/>
      <point x="285" y="274"/>
      <point x="263" y="251"/>
    </contour>
    <component base="jointure"/>
  </outline>
</glyph>
<glyph name="G" format="1">
  <advance width="750"/>
  <unicode hex="0047"/>
  <outline>
    <contour>
      <point x="58" y="479" type="curve" smooth="yes"/>
      <point x="87" y="577"/>
      <point x="174" y="662"/>
      <point x="282" y="695" type="curve" smooth="yes"/>
      <point x="311" y="704"/>
      <point x="323" y="715"/>
      <point x="323" y="730" type="curve" smooth="yes"/>
      <point x="323" y="741"/>
      <point x="315" y="750"/>
      <point x="293" y="750" type="curve" smooth="yes"/>
      <point x="0" y="750" type="line"/>
      <point x="0" y="400" type="line"/>
      <point x="23" y="400"/>
      <point x="39" y="415"/>
    </contour>
    <contour>
      <point x="58" y="271" type="curve" smooth="yes"/>
      <point x="39" y="335"/>
      <point x="23" y="350"/>
      <point x="0" y="350" type="curve"/>
      <point x="0" y="0" type="line"/>
      <point x="293" y="0" type="line" smooth="yes"/>
      <point x="315" y="0"/>
      <point x="323" y="9"/>
      <point x="323" y="20" type="curve" smooth="yes"/>
      <point x="323" y="35"/>
      <point x="311" y="46"/>
      <point x="282" y="55" type="curve" smooth="yes"/>
      <point x="174" y="88"/>
      <point x="87" y="173"/>
    </contour>
    <contour>
      <point x="699" y="258" type="curve" smooth="yes"/>
      <point x="699" y="50" type="line" smooth="yes"/>
      <point x="699" y="25"/>
      <point x="708.0" y="0.0"/>
      <point x="750" y="0" type="curve"/>
      <point x="750" y="350" type="line"/>
      <point x="719" y="350"/>
      <point x="699" y="325"/>
    </contour>
    <contour>
      <point x="581" y="140" type="curve" smooth="yes"/>
      <point x="574" y="140"/>
      <point x="567" y="135"/>
      <point x="561" y="126" type="curve" smooth="yes"/>
      <point x="538" y="94"/>
      <point x="495.32820587051754" y="62.68864495375625"/>
      <point x="457" y="49" type="curve" smooth="yes"/>
      <point x="438" y="42"/>
      <point x="427" y="34"/>
      <point x="427" y="20" type="curve" smooth="yes"/>
      <point x="427" y="9"/>
      <point x="435" y="0"/>
      <point x="457" y="0" type="curve"/>
      <point x="634" y="0" type="line"/>
      <point x="657" y="0"/>
      <point x="664" y="4"/>
      <point x="656" y="34" type="curve" smooth="yes"/>
      <point x="632.1139726911452" y="123.5726024082053"/>
      <point x="600" y="140"/>
    </contour>
    <contour>
      <point x="315" y="347" type="line" smooth="yes"/>
      <point x="315" y="330"/>
      <point x="332" y="309"/>
      <point x="362" y="309" type="curve" smooth="yes"/>
      <point x="525" y="309" type="line" smooth="yes"/>
      <point x="542" y="309"/>
      <point x="548" y="298"/>
      <point x="542" y="283" type="curve" smooth="yes"/>
      <point x="521" y="226"/>
      <point x="466" y="187"/>
      <point x="375" y="187" type="curve" smooth="yes"/>
      <point x="272" y="187"/>
      <point x="187" y="272"/>
      <point x="187" y="375" type="curve" smooth="yes"/>
      <point x="187" y="478"/>
      <point x="272" y="564"/>
      <point x="375" y="564" type="curve" smooth="yes"/>
      <point x="422" y="564"/>
      <point x="472" y="545"/>
      <point x="503" y="509" type="curve" smooth="yes"/>
      <point x="530" y="473"/>
      <point x="503" y="435"/>
      <point x="465" y="435" type="curve" smooth="yes"/>
      <point x="362" y="435" type="line" smooth="yes"/>
      <point x="334" y="435"/>
      <point x="315" y="419"/>
      <point x="315" y="392" type="curve" smooth="yes"/>
    </contour>
    <contour>
      <point x="591" y="435" type="curve" smooth="yes"/>
      <point x="628" y="435" type="line" smooth="yes"/>
      <point x="686" y="435"/>
      <point x="701" y="400"/>
      <point x="750" y="400" type="curve"/>
      <point x="750" y="750" type="line"/>
      <point x="457" y="750" type="line" smooth="yes"/>
      <point x="435" y="750"/>
      <point x="427" y="741"/>
      <point x="427" y="730" type="curve" smooth="yes"/>
      <point x="427" y="715"/>
      <point x="439" y="704"/>
      <point x="468" y="695" type="curve" smooth="yes"/>
      <point x="540" y="673"/>
      <point x="600" y="633"/>
      <point x="637" y="578" type="curve" smooth="yes"/>
      <point x="658" y="547"/>
      <point x="645" y="524"/>
      <point x="623" y="513" type="curve" smooth="yes"/>
      <point x="583" y="493" type="line" smooth="yes"/>
      <point x="558" y="480"/>
      <point x="551" y="471"/>
      <point x="552" y="461" type="curve" smooth="yes"/>
      <point x="552" y="448"/>
      <point x="565" y="435"/>
    </contour>
    <component base="jointure"/>
  </outline>
</glyph>
<glyph name="H" format="1">
  <advance width="750"/>
  <unicode hex="0048"/>
  <outline>
    <contour>
      <point x="0" y="0" type="line"/>
      <point x="60" y="0" type="line" smooth="yes"/>
      <point x="88" y="0"/>
      <point x="110" y="22"/>
      <point x="110" y="50" type="curve" smooth="yes"/>
      <point x="110" y="300" type="line" smooth="yes"/>
      <point x="110" y="328"/>
      <point x="88" y="350"/>
      <point x="60" y="350" type="curve" smooth="yes"/>
      <point x="0" y="350" type="line"/>
    </contour>
    <contour>
      <point x="265" y="489" type="line" smooth="yes"/>
      <point x="265" y="461"/>
      <point x="287" y="439"/>
      <point x="315" y="439" type="curve" smooth="yes"/>
      <point x="435" y="439" type="line" smooth="yes"/>
      <point x="463" y="439"/>
      <point x="485" y="461"/>
      <point x="485" y="489" type="curve" smooth="yes"/>
      <point x="485" y="700" type="line" smooth="yes"/>
      <point x="485" y="728"/>
      <point x="463" y="750"/>
      <point x="435" y="750" type="curve" smooth="yes"/>
      <point x="315" y="750" type="line" smooth="yes"/>
      <point x="287" y="750"/>
      <point x="265" y="728"/>
      <point x="265" y="700" type="curve" smooth="yes"/>
    </contour>
    <contour>
      <point x="265" y="50" type="line" smooth="yes"/>
      <point x="265" y="22"/>
      <point x="287" y="0"/>
      <point x="315" y="0" type="curve" smooth="yes"/>
      <point x="435" y="0" type="line" smooth="yes"/>
      <point x="463" y="0"/>
      <point x="485" y="22"/>
      <point x="485" y="50" type="curve" smooth="yes"/>
      <point x="485" y="270" type="line" smooth="yes"/>
      <point x="485" y="298"/>
      <point x="463" y="320"/>
      <point x="435" y="320" type="curve" smooth="yes"/>
      <point x="315" y="320" type="line" smooth="yes"/>
      <point x="287" y="320"/>
      <point x="265" y="298"/>
      <point x="265" y="270" type="curve" smooth="yes"/>
    </contour>
    <contour>
      <point x="640" y="50" type="line" smooth="yes"/>
      <point x="640" y="22"/>
      <point x="662" y="0"/>
      <point x="690" y="0" type="curve" smooth="yes"/>
      <point x="750" y="0" type="line"/>
      <point x="750" y="350" type="line"/>
      <point x="690" y="350" type="line" smooth="yes"/>
      <point x="662" y="350"/>
      <point x="640" y="328"/>
      <point x="640" y="300" type="curve" smooth="yes"/>
    </contour>
    <contour>
      <point x="0" y="400" type="line"/>
      <point x="60" y="400" type="line" smooth="yes"/>
      <point x="88" y="400"/>
      <point x="110" y="422"/>
      <point x="110" y="450" type="curve" smooth="yes"/>
      <point x="110" y="700" type="line" smooth="yes"/>
      <point x="110" y="728"/>
      <point x="88" y="750"/>
      <point x="60" y="750" type="curve" smooth="yes"/>
      <point x="0" y="750" type="line"/>
    </contour>
    <contour>
      <point x="640" y="450" type="line" smooth="yes"/>
      <point x="640" y="422"/>
      <point x="662" y="400"/>
      <point x="690" y="400" type="curve" smooth="yes"/>
      <point x="750" y="400" type="line"/>
      <point x="750" y="750" type="line"/>
      <point x="690" y="750" type="line" smooth="yes"/>
      <point x="662" y="750"/>
      <point x="640" y="728"/>
      <point x="640" y="700" type="curve" smooth="yes"/>
    </contour>
    <component base="jointure"/>
  </outline>
</glyph>
<glyph name="I" format="1">
  <advance width="375"/>
  <unicode hex="0049"/>
  <outline>
    <contour>
      <point x="0" y="0" type="line"/>
      <point x="60" y="0" type="line" smooth="yes"/>
      <point x="88" y="0"/>
      <point x="110" y="22"/>
      <point x="110" y="50" type="curve" smooth="yes"/>
      <point x="110" y="300" type="line" smooth="yes"/>
      <point x="110" y="328"/>
      <point x="88" y="350"/>
      <point x="60" y="350" type="curve" smooth="yes"/>
      <point x="0" y="350" type="line"/>
    </contour>
    <contour>
      <point x="0" y="400" type="line"/>
      <point x="60" y="400" type="line" smooth="yes"/>
      <point x="88" y="400"/>
      <point x="110" y="423"/>
      <point x="110" y="452" type="curve" smooth="yes"/>
      <point x="110" y="700" type="line" smooth="yes"/>
      <point x="110" y="728"/>
      <point x="88" y="750"/>
      <point x="60" y="750" type="curve" smooth="yes"/>
      <point x="0" y="750" type="line"/>
    </contour>
    <contour>
      <point x="375" y="0" type="line"/>
      <point x="375" y="350" type="line"/>
      <point x="315" y="350" type="line" smooth="yes"/>
      <point x="287" y="350"/>
      <point x="265" y="328"/>
      <point x="265" y="300" type="curve" smooth="yes"/>
      <point x="265" y="50" type="line" smooth="yes"/>
      <point x="265" y="22"/>
      <point x="287" y="0"/>
      <point x="315" y="0" type="curve" smooth="yes"/>
    </contour>
    <contour>
      <point x="375" y="400" type="line"/>
      <point x="375" y="750" type="line"/>
      <point x="315" y="750" type="line" smooth="yes"/>
      <point x="287" y="750"/>
      <point x="265" y="728"/>
      <point x="265" y="700" type="curve" smooth="yes"/>
      <point x="265" y="452" type="line" smooth="yes"/>
      <point x="265" y="423"/>
      <point x="287" y="400"/>
      <point x="315" y="400" type="curve" smooth="yes"/>
    </contour>
    <component base="jointure"/>
  </outline>
</glyph>
<glyph name="J" format="1">
  <advance width="750"/>
  <unicode hex="004A"/>
  <outline>
    <contour>
      <point x="627" y="264" type="curve" smooth="yes"/>
      <point x="599.018913858644" y="169.0641720203996"/>
      <point x="521.4975221829063" y="85.35862649275296"/>
      <point x="421" y="55" type="curve" smooth="yes"/>
      <point x="392" y="46"/>
      <point x="380" y="35"/>
      <point x="380" y="20" type="curve" smooth="yes"/>
      <point x="380" y="9"/>
      <point x="388" y="0"/>
      <point x="410" y="0" type="curve" smooth="yes"/>
      <point x="750.0" y="0.0" type="line"/>
      <point x="750" y="350" type="line"/>
      <point x="720" y="350" type="line" smooth="yes"/>
      <point x="683.1206896551724" y="350"/>
      <point x="650" y="339"/>
    </contour>
    <contour>
      <point x="750" y="400" type="line"/>
      <point x="750" y="750" type="line"/>
      <point x="688" y="750" type="line" smooth="yes"/>
      <point x="660" y="750"/>
      <point x="638" y="728"/>
      <point x="638" y="700" type="curve" smooth="yes"/>
      <point x="638" y="452" type="line" smooth="yes"/>
      <point x="638" y="423"/>
      <point x="660" y="400"/>
      <point x="688" y="400" type="curve" smooth="yes"/>
    </contour>
    <contour>
      <point x="128" y="350" type="curve" smooth="yes"/>
      <point x="0" y="350" type="line"/>
      <point x="0" y="0" type="line"/>
      <point x="283" y="0" type="line" smooth="yes"/>
      <point x="305" y="0"/>
      <point x="313" y="9"/>
      <point x="313" y="20" type="curve" smooth="yes"/>
      <point x="313" y="35"/>
      <point x="301" y="46"/>
      <point x="272" y="55" type="curve" smooth="yes"/>
      <point x="192.7222447357443" y="78.87884194706496"/>
      <point x="114.75559160847008" y="154.23695291356978"/>
      <point x="78" y="240" type="curve" smooth="yes"/>
      <point x="66" y="268"/>
      <point x="90" y="283"/>
      <point x="128" y="300" type="curve" smooth="yes"/>
      <point x="169" y="318"/>
      <point x="180" y="323"/>
      <point x="178" y="336" type="curve" smooth="yes"/>
      <point x="176" y="346"/>
      <point x="162" y="350"/>
    </contour>
    <contour>
      <point x="233" y="350"/>
      <point x="224" y="336"/>
      <point x="229" y="307" type="curve" smooth="yes"/>
      <point x="238.0459388738095" y="247.6988451605823"/>
      <point x="290" y="193"/>
      <point x="358" y="193" type="curve" smooth="yes"/>
      <point x="425.6470588235294" y="193.0"/>
      <point x="464.0109727182129" y="252.05608278197698"/>
      <point x="473" y="298" type="curve" smooth="yes"/>
      <point x="479" y="328"/>
      <point x="465" y="350"/>
      <point x="441" y="350" type="curve" smooth="yes"/>
      <point x="263" y="350" type="line" smooth="yes"/>
    </contour>
    <contour>
      <point x="440" y="400" type="line" smooth="yes"/>
      <point x="472" y="400"/>
      <point x="483" y="416"/>
      <point x="483" y="441" type="curve" smooth="yes"/>
      <point x="483" y="700" type="line" smooth="yes"/>
      <point x="483" y="728"/>
      <point x="461" y="750"/>
      <point x="433" y="750" type="curve"/>
      <point x="0.0" y="750.0" type="line"/>
      <point x="0.0" y="400.0" type="line"/>
    </contour>
    <component base="jointure"/>
  </outline>
</glyph>
<glyph name="K" format="1">
  <advance width="750"/>
  <unicode hex="004B"/>
  <outline>
    <contour>
      <point x="0" y="0" type="line"/>
      <point x="60" y="0" type="line" smooth="yes"/>
      <point x="88" y="0"/>
      <point x="110" y="22"/>
      <point x="110" y="50" type="curve" smooth="yes"/>
      <point x="110" y="300" type="line" smooth="yes"/>
      <point x="110" y="328"/>
      <point x="88" y="350"/>
      <point x="60" y="350" type="curve" smooth="yes"/>
      <point x="0" y="350" type="line"/>
    </contour>
    <contour>
      <point x="265" y="489" type="line" smooth="yes"/>
      <point x="265" y="461"/>
      <point x="287" y="439"/>
      <point x="315" y="439" type="curve"/>
      <point x="356" y="439" type="line" smooth="yes"/>
      <point x="356" y="750" type="line"/>
      <point x="315" y="750" type="line" smooth="yes"/>
      <point x="287" y="750"/>
      <point x="265" y="728"/>
      <point x="265" y="700" type="curve" smooth="yes"/>
    </contour>
    <contour>
      <point x="265" y="50" type="line" smooth="yes"/>
      <point x="265" y="22"/>
      <point x="287" y="0"/>
      <point x="315" y="0" type="curve"/>
      <point x="352" y="0" type="line" smooth="yes"/>
      <point x="352" y="320" type="line"/>
      <point x="315" y="320" type="line" smooth="yes"/>
      <point x="287" y="320"/>
      <point x="265" y="298"/>
      <point x="265" y="270" type="curve" smooth="yes"/>
    </contour>
    <contour>
      <point x="0" y="400" type="line"/>
      <point x="60" y="400" type="line" smooth="yes"/>
      <point x="88" y="400"/>
      <point x="110" y="422"/>
      <point x="110" y="450" type="curve" smooth="yes"/>
      <point x="110" y="700" type="line" smooth="yes"/>
      <point x="110" y="728"/>
      <point x="88" y="750"/>
      <point x="60" y="750" type="curve" smooth="yes"/>
      <point x="0" y="750" type="line"/>
    </contour>
    <contour>
      <point x="750" y="400" type="line"/>
      <point x="750" y="750" type="line"/>
      <point x="702.156862745098" y="750.0"/>
      <point x="691" y="725"/>
      <point x="628" y="601" type="curve" smooth="yes"/>
      <point x="551" y="450" type="line" smooth="yes"/>
      <point x="539" y="426"/>
      <point x="551" y="400"/>
      <point x="578" y="400" type="curve" smooth="yes"/>
    </contour>
    <contour>
      <point x="750" y="350" type="line"/>
      <point x="578" y="350" type="line" smooth="yes"/>
      <point x="551" y="350"/>
      <point x="539" y="324"/>
      <point x="551" y="300" type="curve" smooth="yes"/>
      <point x="628" y="149" type="line" smooth="yes"/>
      <point x="691" y="25"/>
      <point x="702.156862745098" y="0.0"/>
      <point x="750" y="0" type="curve"/>
    </contour>
    <contour>
      <point x="340" y="750" type="line"/>
      <point x="355" y="439" type="line"/>
      <point x="395" y="439"/>
      <point x="407" y="463"/>
      <point x="457" y="588" type="curve" smooth="yes"/>
      <point x="502" y="700" type="line" smooth="yes"/>
      <point x="512" y="724"/>
      <point x="499" y="750"/>
      <point x="472" y="750" type="curve" smooth="yes"/>
    </contour>
    <contour>
      <point x="340" y="0" type="line"/>
      <point x="472" y="0" type="line" smooth="yes"/>
      <point x="499" y="0"/>
      <point x="512" y="26"/>
      <point x="502" y="50" type="curve" smooth="yes"/>
      <point x="453" y="171" type="line" smooth="yes"/>
      <point x="402" y="296"/>
      <point x="391" y="320"/>
      <point x="351" y="320" type="curve"/>
    </contour>
    <component base="jointure"/>
  </outline>
</glyph>
<glyph name="L" format="1">
  <advance width="750"/>
  <unicode hex="004C"/>
  <outline>
    <contour>
      <point x="0" y="750" type="line"/>
      <point x="0" y="400" type="line"/>
      <point x="60" y="400" type="line" smooth="yes"/>
      <point x="88" y="400"/>
      <point x="110" y="422"/>
      <point x="110" y="450" type="curve" smooth="yes"/>
      <point x="110" y="700" type="line" smooth="yes"/>
      <point x="110" y="728"/>
      <point x="88" y="750"/>
      <point x="60" y="750" type="curve" smooth="yes"/>
    </contour>
    <contour>
      <point x="263" y="300" type="curve" smooth="yes"/>
      <point x="263" y="170" type="line" smooth="yes"/>
      <point x="263" y="142"/>
      <point x="285" y="120"/>
      <point x="313" y="120" type="curve" smooth="yes"/>
      <point x="658" y="120" type="line" smooth="yes"/>
      <point x="739.0" y="120"/>
      <point x="675.0" y="0"/>
      <point x="730" y="0" type="curve" smooth="yes"/>
      <point x="750" y="0" type="line"/>
      <point x="750" y="350" type="line"/>
      <point x="313" y="350" type="line" smooth="yes"/>
      <point x="285" y="350"/>
      <point x="263" y="328"/>
    </contour>
    <contour>
      <point x="0" y="350" type="line"/>
      <point x="0" y="0" type="line"/>
      <point x="60" y="0" type="line" smooth="yes"/>
      <point x="88" y="0"/>
      <point x="110" y="22"/>
      <point x="110" y="50" type="curve" smooth="yes"/>
      <point x="110" y="298" type="line" smooth="yes"/>
      <point x="110" y="327"/>
      <point x="88" y="350"/>
      <point x="60" y="350" type="curve" smooth="yes"/>
    </contour>
    <contour>
      <point x="263" y="452" type="line" smooth="yes"/>
      <point x="263" y="423"/>
      <point x="285" y="400"/>
      <point x="313" y="400" type="curve"/>
      <point x="750" y="400" type="line"/>
      <point x="750" y="750" type="line"/>
      <point x="313" y="750" type="line" smooth="yes"/>
      <point x="285" y="750"/>
      <point x="263" y="728"/>
      <point x="263" y="700" type="curve" smooth="yes"/>
    </contour>
    <component base="jointure"/>
  </outline>
</glyph>
<glyph name="M" format="1">
  <advance width="1500"/>
  <unicode hex="004D"/>
  <outline>
    <contour>
      <point x="0" y="0" type="line"/>
      <point x="60" y="0" type="line" smooth="yes"/>
      <point x="88" y="0"/>
      <point x="110" y="22"/>
      <point x="110" y="50" type="curve" smooth="yes"/>
      <point x="110" y="300" type="line" smooth="yes"/>
      <point x="110" y="328"/>
      <point x="88" y="350"/>
      <point x="60" y="350" type="curve" smooth="yes"/>
      <point x="0" y="350" type="line"/>
    </contour>
    <contour>
      <point x="1390" y="50" type="line" smooth="yes"/>
      <point x="1390" y="22"/>
      <point x="1412" y="0"/>
      <point x="1440" y="0" type="curve" smooth="yes"/>
      <point x="1500" y="0" type="line"/>
      <point x="1500" y="350" type="line"/>
      <point x="1440" y="350" type="line" smooth="yes"/>
      <point x="1412" y="350"/>
      <point x="1390" y="328"/>
      <point x="1390" y="300" type="curve" smooth="yes"/>
    </contour>
    <contour>
      <point x="0" y="400" type="line"/>
      <point x="60" y="400" type="line" smooth="yes"/>
      <point x="88" y="400"/>
      <point x="110" y="422"/>
      <point x="110" y="450" type="curve" smooth="yes"/>
      <point x="110" y="700" type="line" smooth="yes"/>
      <point x="110" y="728"/>
      <point x="88" y="750"/>
      <point x="60" y="750" type="curve" smooth="yes"/>
      <point x="0" y="750" type="line"/>
    </contour>
    <contour>
      <point x="1390" y="450" type="line" smooth="yes"/>
      <point x="1390" y="422"/>
      <point x="1412" y="400"/>
      <point x="1440" y="400" type="curve" smooth="yes"/>
      <point x="1500" y="400" type="line"/>
      <point x="1500" y="750" type="line"/>
      <point x="1440" y="750" type="line" smooth="yes"/>
      <point x="1412" y="750"/>
      <point x="1390" y="728"/>
      <point x="1390" y="700" type="curve" smooth="yes"/>
    </contour>
    <contour>
      <point x="265" y="50" type="line" smooth="yes"/>
      <point x="265" y="15"/>
      <point x="289" y="0"/>
      <point x="322" y="0" type="curve" smooth="yes"/>
      <point x="620" y="0" type="line" smooth="yes"/>
      <point x="692" y="0"/>
      <point x="721" y="30"/>
      <point x="721" y="66" type="curve" smooth="yes"/>
      <point x="721" y="109"/>
      <point x="700" y="148"/>
      <point x="660" y="198" type="curve" smooth="yes"/>
      <point x="327" y="613" type="line" smooth="yes"/>
      <point x="315" y="628"/>
      <point x="306" y="638"/>
      <point x="290" y="638" type="curve" smooth="yes"/>
      <point x="271" y="638"/>
      <point x="265" y="624"/>
      <point x="265" y="602" type="curve" smooth="yes"/>
    </contour>
    <contour>
      <point x="767" y="354"/>
      <point x="777" y="364"/>
      <point x="790" y="380" type="curve" smooth="yes"/>
      <point x="1045" y="700" type="line" smooth="yes"/>
      <point x="1061" y="721"/>
      <point x="1046" y="750"/>
      <point x="1017" y="750" type="curve" smooth="yes"/>
      <point x="483" y="750" type="line"/>
      <point x="454" y="750"/>
      <point x="439" y="721"/>
      <point x="455" y="700" type="curve" smooth="yes"/>
      <point x="710" y="380" type="line" smooth="yes"/>
      <point x="723" y="364"/>
      <point x="733" y="354"/>
      <point x="750" y="354" type="curve" smooth="yes"/>
    </contour>
    <contour>
      <point x="1235" y="50" type="curve" smooth="yes"/>
      <point x="1235" y="602" type="line" smooth="yes"/>
      <point x="1235" y="624"/>
      <point x="1229" y="638"/>
      <point x="1210" y="638" type="curve" smooth="yes"/>
      <point x="1194" y="638"/>
      <point x="1185" y="628"/>
      <point x="1173" y="613" type="curve" smooth="yes"/>
      <point x="840" y="198" type="line" smooth="yes"/>
      <point x="800" y="148"/>
      <point x="779" y="109"/>
      <point x="779" y="66" type="curve" smooth="yes"/>
      <point x="779" y="30"/>
      <point x="808" y="0"/>
      <point x="880" y="0" type="curve" smooth="yes"/>
      <point x="1178" y="0" type="line" smooth="yes"/>
      <point x="1211" y="0"/>
      <point x="1235" y="15"/>
    </contour>
    <component base="jointure"/>
  </outline>
</glyph>
<glyph name="N" format="1">
  <advance width="1125"/>
  <unicode hex="004E"/>
  <outline>
    <contour>
      <point x="0" y="0" type="line"/>
      <point x="60" y="0" type="line" smooth="yes"/>
      <point x="88" y="0"/>
      <point x="110" y="22"/>
      <point x="110" y="50" type="curve" smooth="yes"/>
      <point x="110" y="300" type="line" smooth="yes"/>
      <point x="110" y="328"/>
      <point x="88" y="350"/>
      <point x="60" y="350" type="curve" smooth="yes"/>
      <point x="0" y="350" type="line"/>
    </contour>
    <contour>
      <point x="1015" y="50" type="line" smooth="yes"/>
      <point x="1015" y="22"/>
      <point x="1038" y="0"/>
      <point x="1067" y="0" type="curve" smooth="yes"/>
      <point x="1125" y="0" type="line"/>
      <point x="1125" y="350" type="line"/>
      <point x="1067" y="350" type="line" smooth="yes"/>
      <point x="1038" y="350"/>
      <point x="1015" y="328"/>
      <point x="1015" y="300" type="curve" smooth="yes"/>
    </contour>
    <contour>
      <point x="0" y="400" type="line"/>
      <point x="60" y="400" type="line" smooth="yes"/>
      <point x="88" y="400"/>
      <point x="110" y="422"/>
      <point x="110" y="450" type="curve" smooth="yes"/>
      <point x="110" y="700" type="line" smooth="yes"/>
      <point x="110" y="728"/>
      <point x="88" y="750"/>
      <point x="60" y="750" type="curve" smooth="yes"/>
      <point x="0" y="750" type="line"/>
    </contour>
    <contour>
      <point x="1015" y="450" type="line" smooth="yes"/>
      <point x="1015" y="422"/>
      <point x="1038" y="400"/>
      <point x="1067" y="400" type="curve" smooth="yes"/>
      <point x="1125" y="400" type="line"/>
      <point x="1125" y="750" type="line"/>
      <point x="1067" y="750" type="line" smooth="yes"/>
      <point x="1038" y="750"/>
      <point x="1015" y="728"/>
      <point x="1015" y="700" type="curve" smooth="yes"/>
    </contour>
    <contour>
      <point x="265" y="42" type="line" smooth="yes"/>
      <point x="265" y="17"/>
      <point x="282" y="0"/>
      <point x="307" y="0" type="curve" smooth="yes"/>
      <point x="602" y="0" type="line" smooth="yes"/>
      <point x="640" y="0"/>
      <point x="656" y="23"/>
      <point x="642" y="50" type="curve" smooth="yes"/>
      <point x="337" y="640" type="line" smooth="yes"/>
      <point x="323" y="667"/>
      <point x="311" y="680"/>
      <point x="290" y="680" type="curve" smooth="yes"/>
      <point x="271" y="680"/>
      <point x="265" y="659"/>
      <point x="265" y="627" type="curve" smooth="yes"/>
    </contour>
    <contour>
      <point x="860" y="708" type="line" smooth="yes"/>
      <point x="860" y="733"/>
      <point x="843" y="750"/>
      <point x="818" y="750" type="curve" smooth="yes"/>
      <point x="523" y="750" type="line" smooth="yes"/>
      <point x="485" y="750"/>
      <point x="469" y="727"/>
      <point x="483" y="700" type="curve" smooth="yes"/>
      <point x="788" y="110" type="line" smooth="yes"/>
      <point x="802" y="83"/>
      <point x="814" y="70"/>
      <point x="835" y="70" type="curve" smooth="yes"/>
      <point x="854" y="70"/>
      <point x="860" y="91"/>
      <point x="860" y="123" type="curve" smooth="yes"/>
    </contour>
    <component base="jointure"/>
    <contour>
      <point x="522" y="750" type="move" name="top"/>
    </contour>
  </outline>
</glyph>
<glyph name="O" format="1">
  <advance width="750"/>
  <unicode hex="004F"/>
  <outline>
    <contour>
      <point x="58" y="479" type="curve" smooth="yes"/>
      <point x="87" y="577"/>
      <point x="174" y="662"/>
      <point x="282" y="695" type="curve" smooth="yes"/>
      <point x="311" y="704"/>
      <point x="323" y="715"/>
      <point x="323" y="730" type="curve" smooth="yes"/>
      <point x="323" y="741"/>
      <point x="315" y="750"/>
      <point x="293" y="750" type="curve" smooth="yes"/>
      <point x="0" y="750" type="line"/>
      <point x="0" y="400" type="line"/>
      <point x="23" y="400"/>
      <point x="39" y="415"/>
    </contour>
    <contour>
      <point x="692" y="479" type="curve" smooth="yes"/>
      <point x="711" y="415"/>
      <point x="727" y="400"/>
      <point x="750" y="400" type="curve"/>
      <point x="750" y="750" type="line"/>
      <point x="457" y="750" type="line" smooth="yes"/>
      <point x="435" y="750"/>
      <point x="427" y="741"/>
      <point x="427" y="730" type="curve" smooth="yes"/>
      <point x="427" y="715"/>
      <point x="439" y="704"/>
      <point x="468" y="695" type="curve" smooth="yes"/>
      <point x="576" y="662"/>
      <point x="663" y="577"/>
    </contour>
    <contour>
      <point x="58" y="271" type="curve" smooth="yes"/>
      <point x="39" y="335"/>
      <point x="23" y="350"/>
      <point x="0" y="350" type="curve"/>
      <point x="0" y="0" type="line"/>
      <point x="293" y="0" type="line" smooth="yes"/>
      <point x="315" y="0"/>
      <point x="323" y="9"/>
      <point x="323" y="20" type="curve" smooth="yes"/>
      <point x="323" y="35"/>
      <point x="311" y="46"/>
      <point x="282" y="55" type="curve" smooth="yes"/>
      <point x="174" y="88"/>
      <point x="87" y="173"/>
    </contour>
    <contour>
      <point x="692" y="271" type="curve" smooth="yes"/>
      <point x="663" y="173"/>
      <point x="576" y="88"/>
      <point x="468" y="55" type="curve" smooth="yes"/>
      <point x="439" y="46"/>
      <point x="427" y="35"/>
      <point x="427" y="20" type="curve" smooth="yes"/>
      <point x="427" y="9"/>
      <point x="435" y="0"/>
      <point x="457" y="0" type="curve" smooth="yes"/>
      <point x="750" y="0" type="line"/>
      <point x="750" y="350" type="line"/>
      <point x="727" y="350"/>
      <point x="711" y="335"/>
    </contour>
    <contour>
      <point x="305" y="374" type="curve" smooth="yes"/>
      <point x="305" y="393"/>
      <point x="313" y="411"/>
      <point x="328" y="422" type="curve" smooth="yes"/>
      <point x="333" y="426"/>
      <point x="349" y="434"/>
      <point x="349" y="456" type="curve" smooth="yes"/>
      <point x="349" y="529" type="line" smooth="yes"/>
      <point x="349" y="552"/>
      <point x="331" y="559"/>
      <point x="317" y="554" type="curve" smooth="yes"/>
      <point x="241" y="527"/>
      <point x="187" y="456"/>
      <point x="187" y="375" type="curve" smooth="yes"/>
      <point x="187" y="292"/>
      <point x="242" y="223"/>
      <point x="317" y="197" type="curve" smooth="yes"/>
      <point x="332" y="191"/>
      <point x="349" y="195"/>
      <point x="349" y="221" type="curve" smooth="yes"/>
      <point x="349" y="295" type="line" smooth="yes"/>
      <point x="349" y="314"/>
      <point x="334" y="324"/>
      <point x="328" y="328" type="curve" smooth="yes"/>
      <point x="314" y="339"/>
      <point x="305" y="355"/>
    </contour>
    <contour>
      <point x="445" y="374" type="curve" smooth="yes"/>
      <point x="445" y="355"/>
      <point x="436" y="339"/>
      <point x="422" y="328" type="curve" smooth="yes"/>
      <point x="416" y="324"/>
      <point x="401" y="314"/>
      <point x="401" y="295" type="curve" smooth="yes"/>
      <point x="401" y="221" type="line" smooth="yes"/>
      <point x="401" y="195"/>
      <point x="418" y="191"/>
      <point x="433" y="197" type="curve" smooth="yes"/>
      <point x="508" y="223"/>
      <point x="563" y="292"/>
      <point x="563" y="375" type="curve" smooth="yes"/>
      <point x="563" y="456"/>
      <point x="509" y="527"/>
      <point x="433" y="554" type="curve" smooth="yes"/>
      <point x="419" y="559"/>
      <point x="401" y="552"/>
      <point x="401" y="529" type="curve" smooth="yes"/>
      <point x="401" y="456" type="line" smooth="yes"/>
      <point x="401" y="434"/>
      <point x="417" y="426"/>
      <point x="422" y="422" type="curve" smooth="yes"/>
      <point x="437" y="411"/>
      <point x="445" y="393"/>
    </contour>
    <component base="jointure"/>
  </outline>
</glyph>
<glyph name="P" format="1">
  <advance width="750"/>
  <unicode hex="0050"/>
  <outline>
    <contour>
      <point x="0" y="0" type="line"/>
      <point x="62" y="0" type="line" smooth="yes"/>
      <point x="90" y="0"/>
      <point x="112" y="22"/>
      <point x="112" y="50" type="curve" smooth="yes"/>
      <point x="112" y="300" type="line" smooth="yes"/>
      <point x="112" y="328"/>
      <point x="90" y="350"/>
      <point x="62" y="350" type="curve" smooth="yes"/>
      <point x="0" y="350" type="line"/>
    </contour>
    <contour>
      <point x="265" y="499" type="line" smooth="yes"/>
      <point x="265" y="443"/>
      <point x="283" y="426"/>
      <point x="315" y="399" type="curve" smooth="yes"/>
      <point x="408" y="322" type="line" smooth="yes"/>
      <point x="457" y="281"/>
      <point x="485" y="303"/>
      <point x="485" y="349" type="curve" smooth="yes"/>
      <point x="485" y="484" type="line" smooth="yes"/>
      <point x="485" y="584.0"/>
      <point x="458" y="630"/>
      <point x="362" y="630" type="curve" smooth="yes"/>
      <point x="315" y="630" type="line" smooth="yes"/>
      <point x="287" y="630"/>
      <point x="265" y="608"/>
      <point x="265" y="580" type="curve" smooth="yes"/>
    </contour>
    <contour>
      <point x="569" y="50" type="line" smooth="yes"/>
      <point x="569" y="22"/>
      <point x="591" y="0"/>
      <point x="619" y="0" type="curve" smooth="yes"/>
      <point x="750" y="0" type="line"/>
      <point x="750" y="350" type="line"/>
      <point x="692" y="350" type="line" smooth="yes"/>
      <point x="664" y="350"/>
      <point x="642" y="328"/>
      <point x="642" y="300" type="curve" smooth="yes"/>
      <point x="642" y="230" type="line" smooth="yes"/>
      <point x="642" y="145"/>
      <point x="569" y="149"/>
      <point x="569" y="62" type="curve" smooth="yes"/>
    </contour>
    <contour>
      <point x="0" y="400" type="line"/>
      <point x="62" y="400" type="line" smooth="yes"/>
      <point x="90" y="400"/>
      <point x="112" y="422"/>
      <point x="112" y="450" type="curve" smooth="yes"/>
      <point x="112" y="700" type="line" smooth="yes"/>
      <point x="112" y="728"/>
      <point x="90" y="750"/>
      <point x="62" y="750" type="curve" smooth="yes"/>
      <point x="0" y="750" type="line"/>
    </contour>
    <contour>
      <point x="532" y="40" type="curve" smooth="yes"/>
      <point x="532" y="80"/>
      <point x="514.4456140660815" y="104.52069177448504"/>
      <point x="484" y="130" type="curve" smooth="yes"/>
      <point x="343" y="248" type="line" smooth="yes"/>
      <point x="294" y="289"/>
      <point x="265" y="266"/>
      <point x="265" y="221" type="curve" smooth="yes"/>
      <point x="265" y="51" type="line" smooth="yes"/>
      <point x="265" y="16"/>
      <point x="277" y="0"/>
      <point x="320" y="0" type="curve" smooth="yes"/>
      <point x="483" y="0" type="line" smooth="yes"/>
      <point x="510.44" y="0"/>
      <point x="532" y="15"/>
    </contour>
    <contour>
      <point x="601" y="673" type="curve" smooth="yes"/>
      <point x="615.3329150516633" y="653.8894465977822"/>
      <point x="642" y="609"/>
      <point x="642" y="541" type="curve" smooth="yes"/>
      <point x="642" y="450" type="line" smooth="yes"/>
      <point x="642" y="422"/>
      <point x="664" y="400"/>
      <point x="692" y="400" type="curve" smooth="yes"/>
      <point x="750" y="400" type="line"/>
      <point x="750" y="750" type="line"/>
      <point x="533" y="750" type="line" smooth="yes"/>
      <point x="503" y="750"/>
      <point x="502.6104074361611" y="728.403430099179"/>
      <point x="535" y="719" type="curve" smooth="yes"/>
      <point x="554" y="714"/>
      <point x="582" y="700"/>
    </contour>
    <component base="jointure"/>
  </outline>
</glyph>
<glyph name="Q" format="1">
  <advance width="750"/>
  <unicode hex="0051"/>
  <outline>
    <contour>
      <point x="0" y="350" type="curve"/>
      <point x="0" y="0" type="line"/>
      <point x="0" y="0"/>
      <point x="0" y="0"/>
      <point x="8" y="0" type="curve" smooth="yes"/>
      <point x="31" y="0"/>
      <point x="48" y="12"/>
      <point x="48" y="43" type="curve" smooth="yes"/>
      <point x="48" y="54"/>
      <point x="46" y="71"/>
      <point x="46" y="99" type="curve" smooth="yes"/>
      <point x="46" y="239"/>
      <point x="175" y="225"/>
      <point x="175" y="257" type="curve" smooth="yes"/>
      <point x="175" y="276"/>
      <point x="157" y="286"/>
      <point x="126" y="307" type="curve" smooth="yes"/>
      <point x="85" y="335"/>
      <point x="64" y="350"/>
    </contour>
    <contour>
      <point x="242" y="0" type="line" smooth="yes"/>
      <point x="215" y="0"/>
      <point x="207" y="4"/>
      <point x="205" y="21" type="curve" smooth="yes"/>
      <point x="203.32833513963328" y="35.209151313117175"/>
      <point x="201.0" y="57.666666666666664"/>
      <point x="201" y="71" type="curve" smooth="yes"/>
      <point x="201" y="95"/>
      <point x="213" y="103"/>
      <point x="239" y="103" type="curve" smooth="yes"/>
      <point x="266.0" y="103.0"/>
      <point x="377.2315281626902" y="42.824898849930825"/>
      <point x="407" y="32" type="curve" smooth="yes"/>
      <point x="428" y="25"/>
      <point x="425" y="0"/>
      <point x="398" y="0" type="curve" smooth="yes"/>
    </contour>
    <contour>
      <point x="750" y="350" type="line"/>
      <point x="706" y="350" type="line" smooth="yes"/>
      <point x="681" y="350"/>
      <point x="666" y="344"/>
      <point x="641" y="319" type="curve" smooth="yes"/>
      <point x="620" y="299"/>
      <point x="634" y="281"/>
      <point x="668" y="281" type="curve" smooth="yes"/>
      <point x="703" y="281"/>
      <point x="716" y="270"/>
      <point x="716" y="238" type="curve" smooth="yes"/>
      <point x="716" y="108"/>
      <point x="693" y="63"/>
      <point x="610" y="27" type="curve" smooth="yes"/>
      <point x="596" y="21"/>
      <point x="590" y="14"/>
      <point x="590" y="11" type="curve" smooth="yes"/>
      <point x="590" y="5"/>
      <point x="593.2857142857143" y="0"/>
      <point x="613" y="0" type="curve" smooth="yes"/>
      <point x="750" y="0" type="line"/>
    </contour>
    <contour>
      <point x="324" y="222" type="curve" smooth="yes"/>
      <point x="321.8839795683496" y="192.3757139568947"/>
      <point x="449.64102564102564" y="150.0"/>
      <point x="499" y="150" type="curve" smooth="yes"/>
      <point x="548.0" y="150.0"/>
      <point x="563.0" y="183.13829787234044"/>
      <point x="563" y="239" type="curve" smooth="yes"/>
      <point x="563" y="264"/>
      <point x="546" y="266"/>
      <point x="514" y="253" type="curve" smooth="yes"/>
      <point x="468.97263242077764" y="235.3805952950869"/>
      <point x="416" y="229"/>
      <point x="356" y="229" type="curve" smooth="yes"/>
      <point x="333" y="229"/>
      <point x="325" y="233"/>
    </contour>
    <contour>
      <point x="47" y="458" type="curve" smooth="yes"/>
      <point x="63.99853478747637" y="624.9856064416797"/>
      <point x="166.63531227585955" y="681.1643207181528"/>
      <point x="282" y="705" type="curve" smooth="yes"/>
      <point x="310" y="711"/>
      <point x="323" y="719"/>
      <point x="323" y="730" type="curve" smooth="yes"/>
      <point x="323" y="741"/>
      <point x="315" y="750"/>
      <point x="293" y="750" type="curve" smooth="yes"/>
      <point x="0" y="750" type="line"/>
      <point x="0" y="400" type="line"/>
      <point x="22.82857142857143" y="400.0"/>
      <point x="42.99810867464644" y="418.9815595778028"/>
    </contour>
    <contour>
      <point x="703" y="458" type="curve" smooth="yes"/>
      <point x="707.0154713033967" y="418.8491547918821"/>
      <point x="727.1714285714286" y="400.0"/>
      <point x="750" y="400" type="curve"/>
      <point x="750" y="750" type="line"/>
      <point x="457" y="750" type="line" smooth="yes"/>
      <point x="435" y="750"/>
      <point x="427" y="741"/>
      <point x="427" y="730" type="curve" smooth="yes"/>
      <point x="427" y="719"/>
      <point x="440" y="711"/>
      <point x="468" y="705" type="curve" smooth="yes"/>
      <point x="583.3646877241405" y="681.1643207181528"/>
      <point x="686.0083820726593" y="624.9176584626996"/>
    </contour>
    <contour>
      <point x="375" y="361" type="curve" smooth="yes"/>
      <point x="471.0" y="361.0"/>
      <point x="550.0" y="412.5192307692308"/>
      <point x="550" y="475" type="curve" smooth="yes"/>
      <point x="550.0" y="537.4285714285714"/>
      <point x="471.0" y="590.0"/>
      <point x="375" y="590" type="curve" smooth="yes"/>
      <point x="280.0" y="590.0"/>
      <point x="201.0" y="537.4285714285714"/>
      <point x="201" y="475" type="curve" smooth="yes"/>
      <point x="201.0" y="412.5192307692308"/>
      <point x="280.0" y="361.0"/>
    </contour>
    <component base="jointure"/>
  </outline>
</glyph>
<glyph name="R" format="1">
  <advance width="750"/>
  <unicode hex="0052"/>
  <outline>
    <contour>
      <point x="0" y="0" type="line"/>
      <point x="62" y="0" type="line" smooth="yes"/>
      <point x="90" y="0"/>
      <point x="112" y="22"/>
      <point x="112" y="50" type="curve" smooth="yes"/>
      <point x="112" y="300" type="line" smooth="yes"/>
      <point x="112" y="328"/>
      <point x="90" y="350"/>
      <point x="62" y="350" type="curve" smooth="yes"/>
      <point x="0" y="350" type="line"/>
    </contour>
    <contour>
      <point x="267" y="499" type="line" smooth="yes"/>
      <point x="267" y="443"/>
      <point x="285" y="426"/>
      <point x="317" y="399" type="curve" smooth="yes"/>
      <point x="408" y="322" type="line" smooth="yes"/>
      <point x="457" y="281"/>
      <point x="485" y="303"/>
      <point x="485" y="349" type="curve" smooth="yes"/>
      <point x="485" y="484" type="line" smooth="yes"/>
      <point x="485" y="584.0"/>
      <point x="458" y="630"/>
      <point x="362" y="630" type="curve" smooth="yes"/>
      <point x="317" y="630" type="line" smooth="yes"/>
      <point x="289" y="630"/>
      <point x="267" y="608"/>
      <point x="267" y="580" type="curve" smooth="yes"/>
    </contour>
    <contour>
      <point x="640" y="80" type="line" smooth="yes"/>
      <point x="699" y="17"/>
      <point x="712" y="0"/>
      <point x="750.0" y="0.0" type="curve"/>
      <point x="750" y="350" type="line"/>
      <point x="692" y="350" type="line" smooth="yes"/>
      <point x="628" y="350"/>
      <point x="674" y="285"/>
      <point x="521" y="259" type="curve" smooth="yes"/>
      <point x="497" y="255"/>
      <point x="496" y="234"/>
      <point x="506" y="224" type="curve" smooth="yes"/>
    </contour>
    <contour>
      <point x="0" y="400" type="line"/>
      <point x="62" y="400" type="line" smooth="yes"/>
      <point x="90" y="400"/>
      <point x="112" y="422"/>
      <point x="112" y="450" type="curve" smooth="yes"/>
      <point x="112" y="700" type="line" smooth="yes"/>
      <point x="112" y="728"/>
      <point x="90" y="750"/>
      <point x="62" y="750" type="curve" smooth="yes"/>
      <point x="0" y="750" type="line"/>
    </contour>
    <contour>
      <point x="482" y="40" type="curve" smooth="yes"/>
      <point x="482.0" y="67.0"/>
      <point x="466.31892651100924" y="76.13421719614851"/>
      <point x="444" y="100" type="curve" smooth="yes"/>
      <point x="343" y="208" type="line" smooth="yes"/>
      <point x="299.5477028052883" y="254.46384254484025"/>
      <point x="267" y="226.0"/>
      <point x="267" y="181" type="curve" smooth="yes"/>
      <point x="267" y="51" type="line" smooth="yes"/>
      <point x="267" y="16"/>
      <point x="279" y="0"/>
      <point x="322" y="0" type="curve" smooth="yes"/>
      <point x="443" y="0" type="line" smooth="yes"/>
      <point x="464" y="0"/>
      <point x="482.0" y="15.0"/>
    </contour>
    <contour>
      <point x="601" y="673" type="curve" smooth="yes"/>
      <point x="615.085213717389" y="654.2197150434813"/>
      <point x="640" y="609"/>
      <point x="640" y="541" type="curve" smooth="yes"/>
      <point x="640" y="450" type="line" smooth="yes"/>
      <point x="640" y="422"/>
      <point x="663" y="400"/>
      <point x="692" y="400" type="curve" smooth="yes"/>
      <point x="750" y="400" type="line"/>
      <point x="750" y="750" type="line"/>
      <point x="533" y="750" type="line" smooth="yes"/>
      <point x="503" y="750"/>
      <point x="502.6104074361611" y="728.403430099179"/>
      <point x="535" y="719" type="curve" smooth="yes"/>
      <point x="554" y="714"/>
      <point x="582" y="700"/>
    </contour>
    <component base="jointure"/>
  </outline>
</glyph>
<glyph name="S" format="1">
  <advance width="750"/>
  <unicode hex="0053"/>
  <outline>
    <contour>
      <point x="82" y="552" type="curve" smooth="yes"/>
      <point x="82.0" y="626.0"/>
      <point x="160.17200422523607" y="700.5355814755054"/>
      <point x="277" y="715" type="curve" smooth="yes"/>
      <point x="299" y="718"/>
      <point x="307" y="727"/>
      <point x="307" y="735" type="curve" smooth="yes"/>
      <point x="307" y="743"/>
      <point x="302" y="750"/>
      <point x="288" y="750" type="curve" smooth="yes"/>
      <point x="0" y="750" type="line"/>
      <point x="0" y="400" type="line"/>
      <point x="146" y="400" type="line" smooth="yes"/>
      <point x="153" y="400"/>
      <point x="158" y="404"/>
      <point x="158" y="412" type="curve" smooth="yes"/>
      <point x="158" y="419"/>
      <point x="157" y="420"/>
      <point x="145" y="427" type="curve" smooth="yes"/>
      <point x="103" y="453"/>
      <point x="82" y="497"/>
    </contour>
    <contour>
      <point x="533" y="473" type="curve" smooth="yes"/>
      <point x="548" y="504"/>
      <point x="549" y="518"/>
      <point x="533" y="537" type="curve" smooth="yes"/>
      <point x="504.40372995854455" y="570.8918756046879"/>
      <point x="451.13698630136986" y="601.0"/>
      <point x="367" y="601" type="curve" smooth="yes"/>
      <point x="287.23809523809524" y="601.0"/>
      <point x="242.0" y="585.0"/>
      <point x="242" y="547" type="curve" smooth="yes"/>
      <point x="242.0" y="495.0"/>
      <point x="323.35409807216763" y="464.69072246527634"/>
      <point x="425" y="439" type="curve" smooth="yes"/>
      <point x="472.552822883623" y="426.8069684913787"/>
      <point x="513.1344489195125" y="431.1777871989737"/>
    </contour>
    <contour>
      <point x="750" y="400" type="line"/>
      <point x="750" y="750" type="line"/>
      <point x="481" y="750" type="line" smooth="yes"/>
      <point x="465" y="750"/>
      <point x="460" y="745"/>
      <point x="460" y="738" type="curve" smooth="yes"/>
      <point x="460" y="729"/>
      <point x="467" y="724"/>
      <point x="506" y="714" type="curve" smooth="yes"/>
      <point x="579" y="695"/>
      <point x="637" y="643"/>
      <point x="673" y="584" type="curve" smooth="yes"/>
      <point x="690" y="556"/>
      <point x="682" y="538"/>
      <point x="654" y="523" type="curve" smooth="yes"/>
      <point x="604" y="496"/>
      <point x="581" y="478"/>
      <point x="567" y="456" type="curve" smooth="yes"/>
      <point x="549" y="428"/>
      <point x="562" y="411"/>
      <point x="593" y="405" type="curve" smooth="yes"/>
      <point x="609" y="401"/>
      <point x="636" y="400"/>
      <point x="679" y="400" type="curve" smooth="yes"/>
    </contour>
    <contour>
      <point x="688" y="198" type="curve" smooth="yes"/>
      <point x="688.0" y="124.0"/>
      <point x="601.8383860047863" y="50.41655900911973"/>
      <point x="473" y="35" type="curve" smooth="yes"/>
      <point x="451" y="32"/>
      <point x="443" y="23"/>
      <point x="443" y="15" type="curve" smooth="yes"/>
      <point x="443" y="7"/>
      <point x="448" y="0"/>
      <point x="462" y="0" type="curve" smooth="yes"/>
      <point x="750" y="0" type="line"/>
      <point x="750" y="350" type="line"/>
      <point x="604" y="350" type="line" smooth="yes"/>
      <point x="597" y="350"/>
      <point x="592" y="346"/>
      <point x="592" y="338" type="curve" smooth="yes"/>
      <point x="592" y="331"/>
      <point x="593" y="328"/>
      <point x="605" y="323" type="curve" smooth="yes"/>
      <point x="662" y="298"/>
      <point x="688" y="253"/>
    </contour>
    <contour>
      <point x="217" y="277" type="curve" smooth="yes"/>
      <point x="202" y="246"/>
      <point x="201" y="232"/>
      <point x="217" y="213" type="curve" smooth="yes"/>
      <point x="245.59627004145545" y="179.10812439531205"/>
      <point x="298.86301369863014" y="149.0"/>
      <point x="383" y="149" type="curve" smooth="yes"/>
      <point x="475.8" y="149.0"/>
      <point x="528.0" y="165.0"/>
      <point x="528" y="203" type="curve" smooth="yes"/>
      <point x="528.0" y="255.0"/>
      <point x="436.5158810707496" y="282.2929415065397"/>
      <point x="325" y="311" type="curve" smooth="yes"/>
      <point x="277.447177116377" y="323.1930315086213"/>
      <point x="236.86555108048748" y="318.8222128010263"/>
    </contour>
    <contour>
      <point x="0" y="350" type="line"/>
      <point x="0" y="0" type="line"/>
      <point x="273" y="0" type="line" smooth="yes"/>
      <point x="287" y="0"/>
      <point x="291" y="10"/>
      <point x="291" y="15" type="curve" smooth="yes"/>
      <point x="291" y="26"/>
      <point x="284" y="30"/>
      <point x="264" y="36" type="curve" smooth="yes"/>
      <point x="182.94940370253337" y="60.4262071033461"/>
      <point x="114.21907614321951" y="105.00206965416803"/>
      <point x="77" y="166" type="curve" smooth="yes"/>
      <point x="60" y="194"/>
      <point x="68" y="212"/>
      <point x="96" y="227" type="curve" smooth="yes"/>
      <point x="146" y="254"/>
      <point x="169" y="272"/>
      <point x="183" y="294" type="curve" smooth="yes"/>
      <point x="201" y="322"/>
      <point x="188" y="339"/>
      <point x="157" y="345" type="curve" smooth="yes"/>
      <point x="141" y="349"/>
      <point x="114" y="350"/>
      <point x="71" y="350" type="curve" smooth="yes"/>
    </contour>
    <component base="jointure"/>
  </outline>
</glyph>
<glyph name="T" format="1">
  <advance width="750"/>
  <unicode hex="0054"/>
  <outline>
    <contour>
      <point x="450" y="450" type="line" smooth="yes"/>
      <point x="450" y="422"/>
      <point x="472" y="400"/>
      <point x="500" y="400" type="curve" smooth="yes"/>
      <point x="750" y="400" type="line"/>
      <point x="750" y="750" type="line"/>
      <point x="655" y="750"/>
      <point x="724" y="611"/>
      <point x="609" y="611" type="curve" smooth="yes"/>
      <point x="500" y="611" type="line" smooth="yes"/>
      <point x="472" y="611"/>
      <point x="450" y="589"/>
      <point x="450" y="561" type="curve" smooth="yes"/>
    </contour>
    <contour>
      <point x="750" y="0" type="line"/>
      <point x="750" y="350" type="line"/>
      <point x="500" y="350" type="line" smooth="yes"/>
      <point x="472" y="350"/>
      <point x="450" y="328"/>
      <point x="450" y="300" type="curve" smooth="yes"/>
      <point x="450" y="50" type="line" smooth="yes"/>
      <point x="450" y="22"/>
      <point x="472" y="0"/>
      <point x="500" y="0" type="curve" smooth="yes"/>
    </contour>
    <contour>
      <point x="300" y="450" type="curve" smooth="yes"/>
      <point x="300" y="561" type="line" smooth="yes"/>
      <point x="300" y="589"/>
      <point x="278" y="611"/>
      <point x="250" y="611" type="curve" smooth="yes"/>
      <point x="141" y="611" type="line" smooth="yes"/>
      <point x="26" y="611"/>
      <point x="94" y="750"/>
      <point x="0" y="750" type="curve"/>
      <point x="0" y="400" type="line"/>
      <point x="250" y="400" type="line" smooth="yes"/>
      <point x="278" y="400"/>
      <point x="300" y="422"/>
    </contour>
    <contour>
      <point x="0" y="0" type="line"/>
      <point x="250" y="0" type="line" smooth="yes"/>
      <point x="278" y="0"/>
      <point x="300" y="22"/>
      <point x="300" y="50" type="curve" smooth="yes"/>
      <point x="300" y="300" type="line" smooth="yes"/>
      <point x="300" y="328"/>
      <point x="278" y="350"/>
      <point x="250" y="350" type="curve" smooth="yes"/>
      <point x="0" y="350" type="line"/>
    </contour>
    <component base="jointure"/>
  </outline>
</glyph>
<glyph name="W" format="1">
  <advance width="1500"/>
  <unicode hex="0057"/>
  <outline>
    <contour>
      <point x="344" y="79" type="line" smooth="yes"/>
      <point x="349" y="45"/>
      <point x="366" y="19"/>
      <point x="394" y="19" type="curve" smooth="yes"/>
      <point x="397" y="19" type="line" smooth="yes"/>
      <point x="425" y="19"/>
      <point x="441" y="45"/>
      <point x="447" y="79" type="curve" smooth="yes"/>
      <point x="550" y="690" type="line" smooth="yes"/>
      <point x="556" y="724"/>
      <point x="528" y="750"/>
      <point x="500" y="750" type="curve" smooth="yes"/>
      <point x="295" y="750" type="line" smooth="yes"/>
      <point x="267" y="750"/>
      <point x="240" y="724"/>
      <point x="245" y="690" type="curve" smooth="yes"/>
    </contour>
    <contour>
      <point x="0" y="0" type="line"/>
      <point x="149" y="0" type="line" smooth="yes"/>
      <point x="187" y="0"/>
      <point x="204" y="21"/>
      <point x="199" y="50" type="curve" smooth="yes"/>
      <point x="152" y="303" type="line" smooth="yes"/>
      <point x="146" y="333"/>
      <point x="126" y="350"/>
      <point x="95" y="350" type="curve" smooth="yes"/>
      <point x="0" y="350" type="line"/>
    </contour>
    <contour>
      <point x="80" y="400" type="line" smooth="yes"/>
      <point x="109" y="400"/>
      <point x="130" y="424"/>
      <point x="125" y="452" type="curve" smooth="yes"/>
      <point x="81" y="700" type="line" smooth="yes"/>
      <point x="76" y="729"/>
      <point x="59" y="750"/>
      <point x="31" y="750" type="curve" smooth="yes"/>
      <point x="0" y="750" type="line"/>
      <point x="0" y="400" type="line"/>
    </contour>
    <contour>
      <point x="1054" y="79" type="line" smooth="yes"/>
      <point x="1060" y="45"/>
      <point x="1076" y="19"/>
      <point x="1104" y="19" type="curve" smooth="yes"/>
      <point x="1107" y="19" type="line" smooth="yes"/>
      <point x="1135" y="19"/>
      <point x="1152" y="45"/>
      <point x="1157" y="79" type="curve" smooth="yes"/>
      <point x="1255" y="690" type="line" smooth="yes"/>
      <point x="1260.442446442669" y="723.9319875150082"/>
      <point x="1233.0" y="750"/>
      <point x="1205" y="750" type="curve" smooth="yes"/>
      <point x="1000" y="750" type="line" smooth="yes"/>
      <point x="972" y="750"/>
      <point x="944" y="724"/>
      <point x="950" y="690" type="curve" smooth="yes"/>
    </contour>
    <contour>
      <point x="802" y="671" type="line" smooth="yes"/>
      <point x="796" y="705"/>
      <point x="780" y="731"/>
      <point x="752" y="731" type="curve" smooth="yes"/>
      <point x="749" y="731" type="line" smooth="yes"/>
      <point x="721" y="731"/>
      <point x="705" y="705"/>
      <point x="699" y="671" type="curve" smooth="yes"/>
      <point x="596" y="60" type="line" smooth="yes"/>
      <point x="590" y="26"/>
      <point x="618" y="0"/>
      <point x="646" y="0" type="curve" smooth="yes"/>
      <point x="856" y="0" type="line" smooth="yes"/>
      <point x="884" y="0"/>
      <point x="912" y="26"/>
      <point x="906" y="60" type="curve" smooth="yes"/>
    </contour>
    <contour>
      <point x="1500" y="0" type="line"/>
      <point x="1500" y="350" type="line"/>
      <point x="1405" y="350" type="line" smooth="yes"/>
      <point x="1374" y="350"/>
      <point x="1354" y="333"/>
      <point x="1348" y="303" type="curve" smooth="yes"/>
      <point x="1301" y="50" type="line" smooth="yes"/>
      <point x="1296" y="21"/>
      <point x="1313" y="0"/>
      <point x="1351" y="0" type="curve" smooth="yes"/>
    </contour>
    <contour>
      <point x="1420" y="400" type="curve" smooth="yes"/>
      <point x="1500" y="400" type="line"/>
      <point x="1500" y="750" type="line"/>
      <point x="1469" y="750" type="line" smooth="yes"/>
      <point x="1441" y="750"/>
      <point x="1424" y="729"/>
      <point x="1419" y="700" type="curve" smooth="yes"/>
      <point x="1375" y="452" type="line" smooth="yes"/>
      <point x="1370" y="424"/>
      <point x="1391" y="400"/>
    </contour>
    <component base="jointure"/>
  </outline>
</glyph>
<glyph name="Z" format="1">
  <advance width="750"/>
  <unicode hex="005A"/>
  <outline>
    <contour>
      <point x="750" y="400" type="line"/>
      <point x="750" y="750" type="line"/>
      <point x="707.4230769230769" y="750.0"/>
      <point x="654.3472261090516" y="720.2670374103188"/>
      <point x="588" y="601" type="curve" smooth="yes"/>
      <point x="504" y="450" type="line" smooth="yes"/>
      <point x="492" y="428"/>
      <point x="507" y="400"/>
      <point x="534" y="400" type="curve" smooth="yes"/>
    </contour>
    <contour>
      <point x="421" y="300" type="curve" smooth="yes"/>
      <point x="365" y="196" type="line" smooth="yes"/>
      <point x="337" y="144"/>
      <point x="343" y="119"/>
      <point x="394" y="119" type="curve" smooth="yes"/>
      <point x="654" y="119" type="line" smooth="yes"/>
      <point x="740" y="119"/>
      <point x="671.9444444444445" y="0.0"/>
      <point x="730" y="0" type="curve"/>
      <point x="750" y="0" type="line"/>
      <point x="750" y="350" type="line"/>
      <point x="532" y="350" type="line" smooth="yes"/>
      <point x="483" y="350"/>
      <point x="438" y="331"/>
    </contour>
    <contour>
      <point x="0" y="350" type="line"/>
      <point x="0" y="0" type="line"/>
      <point x="42.57692307692308" y="0.0"/>
      <point x="95.66178612270325" y="29.749163149145133"/>
      <point x="162" y="149" type="curve" smooth="yes"/>
      <point x="246" y="300" type="line" smooth="yes"/>
      <point x="258" y="322"/>
      <point x="243" y="350"/>
      <point x="216" y="350" type="curve" smooth="yes"/>
    </contour>
    <contour>
      <point x="329" y="450" type="curve" smooth="yes"/>
      <point x="385" y="554" type="line" smooth="yes"/>
      <point x="413" y="606"/>
      <point x="407" y="631"/>
      <point x="356" y="631" type="curve" smooth="yes"/>
      <point x="122" y="631" type="line" smooth="yes"/>
      <point x="41" y="631"/>
      <point x="105" y="750"/>
      <point x="50" y="750" type="curve"/>
      <point x="0" y="750" type="line"/>
      <point x="0" y="400" type="line"/>
      <point x="218" y="400" type="line" smooth="yes"/>
      <point x="267" y="400"/>
      <point x="312" y="419"/>
    </contour>
    <component base="jointure"/>
  </outline>
</glyph>
<glyph name="bracketleft" format="1">
  <advance width="375"/>
  <unicode hex="005B"/>
  <outline>
    <contour>
      <point x="0" y="0" type="line"/>
      <point x="47" y="0" type="line" smooth="yes"/>
      <point x="75" y="0"/>
      <point x="97" y="22"/>
      <point x="97" y="50" type="curve" smooth="yes"/>
      <point x="97" y="300" type="line" smooth="yes"/>
      <point x="97" y="328"/>
      <point x="75" y="350"/>
      <point x="47" y="350" type="curve" smooth="yes"/>
      <point x="0" y="350" type="line"/>
    </contour>
    <contour>
      <point x="229" y="450" type="line" smooth="yes"/>
      <point x="229" y="422"/>
      <point x="251" y="400"/>
      <point x="279" y="400" type="curve"/>
      <point x="375" y="400" type="line"/>
      <point x="375" y="750" type="line"/>
      <point x="357" y="750" type="line" smooth="yes"/>
      <point x="302.0" y="750"/>
      <point x="366.0" y="651"/>
      <point x="285" y="651" type="curve" smooth="yes"/>
      <point x="279" y="651" type="line" smooth="yes"/>
      <point x="251" y="651"/>
      <point x="229" y="629"/>
      <point x="229" y="601" type="curve" smooth="yes"/>
    </contour>
    <contour>
      <point x="0" y="400" type="line"/>
      <point x="47" y="400" type="line" smooth="yes"/>
      <point x="75" y="400"/>
      <point x="97" y="423"/>
      <point x="97" y="452" type="curve" smooth="yes"/>
      <point x="97" y="700" type="line" smooth="yes"/>
      <point x="97" y="728"/>
      <point x="75" y="750"/>
      <point x="47" y="750" type="curve" smooth="yes"/>
      <point x="0" y="750" type="line"/>
    </contour>
    <contour>
      <point x="229" y="298" type="curve" smooth="yes"/>
      <point x="229" y="150" type="line" smooth="yes"/>
      <point x="229" y="122"/>
      <point x="251" y="100"/>
      <point x="279" y="100" type="curve" smooth="yes"/>
      <point x="285" y="100" type="line" smooth="yes"/>
      <point x="366.0" y="100"/>
      <point x="302.0" y="0.0"/>
      <point x="357" y="0" type="curve"/>
      <point x="375" y="0" type="line"/>
      <point x="375" y="350" type="line"/>
      <point x="279" y="350" type="line"/>
      <point x="251" y="350"/>
      <point x="229" y="327"/>
    </contour>
    <component base="jointure"/>
  </outline>
</glyph>
<glyph name="backslash" format="1">
  <advance width="375"/>
  <unicode hex="005C"/>
  <outline>
    <contour>
      <point x="0" y="0" type="line"/>
      <point x="112" y="0" type="line" smooth="yes"/>
      <point x="150" y="0"/>
      <point x="166" y="21"/>
      <point x="162" y="50" type="curve" smooth="yes"/>
      <point x="123" y="303" type="line" smooth="yes"/>
      <point x="118" y="333"/>
      <point x="98" y="350"/>
      <point x="68" y="350" type="curve" smooth="yes"/>
      <point x="0" y="350" type="line"/>
    </contour>
    <contour>
      <point x="55" y="400" type="line" smooth="yes"/>
      <point x="84" y="400"/>
      <point x="104" y="424"/>
      <point x="100" y="452" type="curve" smooth="yes"/>
      <point x="62" y="700" type="line" smooth="yes"/>
      <point x="58" y="729"/>
      <point x="40" y="750"/>
      <point x="12" y="750" type="curve" smooth="yes"/>
      <point x="0" y="750" type="line"/>
      <point x="0" y="400" type="line"/>
    </contour>
    <contour>
      <point x="375" y="750" type="line"/>
      <point x="263" y="750" type="line" smooth="yes"/>
      <point x="225" y="750"/>
      <point x="209" y="729"/>
      <point x="213" y="700" type="curve" smooth="yes"/>
      <point x="252" y="447" type="line" smooth="yes"/>
      <point x="257" y="417"/>
      <point x="277" y="400"/>
      <point x="307" y="400" type="curve" smooth="yes"/>
      <point x="375" y="400" type="line"/>
    </contour>
    <contour>
      <point x="320" y="350" type="line" smooth="yes"/>
      <point x="291" y="350"/>
      <point x="271" y="326"/>
      <point x="275" y="298" type="curve" smooth="yes"/>
      <point x="313" y="50" type="line" smooth="yes"/>
      <point x="317" y="21"/>
      <point x="335" y="0"/>
      <point x="363" y="0" type="curve" smooth="yes"/>
      <point x="375" y="0" type="line"/>
      <point x="375" y="350" type="line"/>
    </contour>
    <component base="jointure"/>
  </outline>
</glyph>
<glyph name="bracketright" format="1">
  <advance width="375"/>
  <unicode hex="005D"/>
  <outline>
    <contour>
      <point x="375" y="0" type="line"/>
      <point x="375" y="350" type="line"/>
      <point x="328" y="350" type="line" smooth="yes"/>
      <point x="300" y="350"/>
      <point x="278" y="328"/>
      <point x="278" y="300" type="curve" smooth="yes"/>
      <point x="278" y="50" type="line" smooth="yes"/>
      <point x="278" y="22"/>
      <point x="300" y="0"/>
      <point x="328" y="0" type="curve" smooth="yes"/>
    </contour>
    <contour>
      <point x="146" y="450" type="curve" smooth="yes"/>
      <point x="146" y="601" type="line" smooth="yes"/>
      <point x="146" y="629"/>
      <point x="124" y="651"/>
      <point x="96" y="651" type="curve" smooth="yes"/>
      <point x="90" y="651" type="line" smooth="yes"/>
      <point x="9" y="651"/>
      <point x="73" y="750"/>
      <point x="18" y="750" type="curve" smooth="yes"/>
      <point x="0" y="750" type="line"/>
      <point x="0" y="400" type="line"/>
      <point x="96" y="400" type="line"/>
      <point x="124" y="400"/>
      <point x="146" y="422"/>
    </contour>
    <contour>
      <point x="375" y="400" type="line"/>
      <point x="375" y="750" type="line"/>
      <point x="328" y="750" type="line" smooth="yes"/>
      <point x="300" y="750"/>
      <point x="278" y="728"/>
      <point x="278" y="700" type="curve" smooth="yes"/>
      <point x="278" y="452" type="line" smooth="yes"/>
      <point x="278" y="423"/>
      <point x="300" y="400"/>
      <point x="328" y="400" type="curve" smooth="yes"/>
    </contour>
    <contour>
      <point x="146" y="298" type="line" smooth="yes"/>
      <point x="146" y="327"/>
      <point x="124" y="350"/>
      <point x="96" y="350" type="curve"/>
      <point x="0" y="350" type="line"/>
      <point x="0" y="0" type="line"/>
      <point x="18" y="0" type="line"/>
      <point x="73" y="0"/>
      <point x="9" y="100"/>
      <point x="90" y="100" type="curve" smooth="yes"/>
      <point x="96" y="100" type="line" smooth="yes"/>
      <point x="124" y="100"/>
      <point x="146" y="122"/>
      <point x="146" y="150" type="curve" smooth="yes"/>
    </contour>
    <component base="jointure"/>
  </outline>
</glyph>
<glyph name="asciicircum" format="1">
  <advance width="750"/>
  <unicode hex="005E"/>
  <outline>
    <contour>
      <point x="324" y="671" type="curve" smooth="yes"/>
      <point x="245" y="60" type="line" smooth="yes"/>
      <point x="241" y="26"/>
      <point x="267" y="0"/>
      <point x="295" y="0" type="curve" smooth="yes"/>
      <point x="455" y="0" type="line" smooth="yes"/>
      <point x="483" y="0"/>
      <point x="509" y="26"/>
      <point x="505" y="60" type="curve" smooth="yes"/>
      <point x="427" y="671" type="line" smooth="yes"/>
      <point x="423" y="705"/>
      <point x="405" y="731"/>
      <point x="377" y="731" type="curve" smooth="yes"/>
      <point x="374" y="731" type="line" smooth="yes"/>
      <point x="346" y="731"/>
      <point x="328" y="705"/>
    </contour>
    <contour>
      <point x="722" y="0" type="curve" smooth="yes"/>
      <point x="750" y="0" type="line"/>
      <point x="750" y="350" type="line"/>
      <point x="679" y="350" type="line" smooth="yes"/>
      <point x="650" y="350"/>
      <point x="630" y="326"/>
      <point x="634" y="298" type="curve" smooth="yes"/>
      <point x="672" y="50" type="line" smooth="yes"/>
      <point x="676" y="21"/>
      <point x="694" y="0"/>
    </contour>
    <contour>
      <point x="0" y="750" type="line"/>
      <point x="0" y="400" type="line"/>
      <point x="88" y="400" type="line" smooth="yes"/>
      <point x="118" y="400"/>
      <point x="138" y="417"/>
      <point x="143" y="447" type="curve" smooth="yes"/>
      <point x="182" y="700" type="line" smooth="yes"/>
      <point x="186" y="729"/>
      <point x="170" y="750"/>
      <point x="132" y="750" type="curve" smooth="yes"/>
    </contour>
    <contour>
      <point x="75" y="350" type="curve" smooth="yes"/>
      <point x="0" y="350" type="line"/>
      <point x="0" y="0" type="line"/>
      <point x="32" y="0" type="line" smooth="yes"/>
      <point x="60" y="0"/>
      <point x="78" y="21"/>
      <point x="82" y="50" type="curve" smooth="yes"/>
      <point x="120" y="298" type="line" smooth="yes"/>
      <point x="124" y="326"/>
      <point x="104" y="350"/>
    </contour>
    <contour>
      <point x="666" y="400" type="curve" smooth="yes"/>
      <point x="750" y="400" type="line"/>
      <point x="750" y="750" type="line"/>
      <point x="622" y="750" type="line" smooth="yes"/>
      <point x="584" y="750"/>
      <point x="568" y="729"/>
      <point x="572" y="700" type="curve" smooth="yes"/>
      <point x="611" y="447" type="line" smooth="yes"/>
      <point x="616" y="417"/>
      <point x="636" y="400"/>
    </contour>
    <component base="jointure"/>
  </outline>
</glyph>
<glyph name="underscore" format="1">
  <advance width="750"/>
  <unicode hex="005F"/>
  <outline>
    <contour>
      <point x="610" y="50" type="line"/>
      <point x="682" y="50"/>
      <point x="685" y="0"/>
      <point x="750" y="0" type="curve"/>
      <point x="750" y="350" type="line"/>
      <point x="705" y="350" type="line" smooth="yes"/>
      <point x="690" y="350"/>
      <point x="680" y="360"/>
      <point x="680" y="375" type="curve" smooth="yes"/>
      <point x="680" y="390"/>
      <point x="690" y="400"/>
      <point x="705" y="400" type="curve" smooth="yes"/>
      <point x="750" y="400" type="line"/>
      <point x="750" y="750" type="line"/>
      <point x="0" y="750" type="line"/>
      <point x="0" y="400" type="line"/>
      <point x="45" y="400" type="line" smooth="yes"/>
      <point x="60" y="400"/>
      <point x="70" y="390"/>
      <point x="70" y="375" type="curve" smooth="yes"/>
      <point x="70" y="360"/>
      <point x="60" y="350"/>
      <point x="45" y="350" type="curve" smooth="yes"/>
      <point x="0" y="350" type="line"/>
      <point x="0" y="0" type="line"/>
      <point x="65" y="0"/>
      <point x="68" y="50"/>
      <point x="140" y="50" type="curve" smooth="yes"/>
    </contour>
    <component base="jointure"/>
  </outline>
</glyph>
<glyph name="grave" format="1">
  <advance width="750"/>
  <unicode hex="0060"/>
  <outline>
    <contour>
      <point x="0" y="650" type="line"/>
      <point x="247" y="650" type="line" smooth="yes"/>
      <point x="279" y="650"/>
      <point x="288" y="668"/>
      <point x="274" y="686" type="curve" smooth="yes"/>
      <point x="245" y="724" type="line" smooth="yes"/>
      <point x="231" y="742"/>
      <point x="215" y="750"/>
      <point x="188" y="750" type="curve" smooth="yes"/>
      <point x="0" y="750" type="line"/>
    </contour>
    <contour>
      <point x="750" y="750" type="line"/>
      <point x="488" y="750" type="line" smooth="yes"/>
      <point x="456" y="750"/>
      <point x="441" y="736"/>
      <point x="446" y="714" type="curve" smooth="yes"/>
      <point x="455" y="676" type="line" smooth="yes"/>
      <point x="460" y="654"/>
      <point x="478" y="650"/>
      <point x="505" y="650" type="curve" smooth="yes"/>
      <point x="750" y="650" type="line"/>
    </contour>
    <contour>
      <point x="375.0" y="750.0" type="move" name="_top"/>
    </contour>
  </outline>
</glyph>
<glyph name="e" format="1">
  <advance width="750"/>
  <unicode hex="0065"/>
  <outline>
    <contour>
      <point x="58" y="479" type="curve" smooth="yes"/>
      <point x="87" y="577"/>
      <point x="174" y="662"/>
      <point x="282" y="695" type="curve" smooth="yes"/>
      <point x="311" y="704"/>
      <point x="323" y="715"/>
      <point x="323" y="730" type="curve" smooth="yes"/>
      <point x="323" y="741"/>
      <point x="315" y="750"/>
      <point x="293" y="750" type="curve" smooth="yes"/>
      <point x="0" y="750" type="line"/>
      <point x="0" y="400" type="line"/>
      <point x="23" y="400"/>
      <point x="39" y="415"/>
    </contour>
    <contour>
      <point x="58" y="271" type="curve" smooth="yes"/>
      <point x="39" y="335"/>
      <point x="23" y="350"/>
      <point x="0" y="350" type="curve"/>
      <point x="0" y="0" type="line"/>
      <point x="293" y="0" type="line" smooth="yes"/>
      <point x="315" y="0"/>
      <point x="323" y="9"/>
      <point x="323" y="20" type="curve" smooth="yes"/>
      <point x="323" y="35"/>
      <point x="311" y="46"/>
      <point x="282" y="55" type="curve" smooth="yes"/>
      <point x="174" y="88"/>
      <point x="87" y="173"/>
    </contour>
    <contour>
      <point x="621" y="400" type="curve" smooth="yes"/>
      <point x="750" y="400" type="line"/>
      <point x="750" y="750" type="line"/>
      <point x="457" y="750" type="line" smooth="yes"/>
      <point x="435" y="750"/>
      <point x="427" y="741"/>
      <point x="427" y="730" type="curve" smooth="yes"/>
      <point x="427" y="715"/>
      <point x="439" y="704"/>
      <point x="468" y="695" type="curve" smooth="yes"/>
      <point x="552" y="669"/>
      <point x="625" y="613"/>
      <point x="664" y="545" type="curve" smooth="yes"/>
      <point x="683" y="513"/>
      <point x="672" y="491"/>
      <point x="650" y="480" type="curve" smooth="yes"/>
      <point x="613" y="462" type="line" smooth="yes"/>
      <point x="588" y="450"/>
      <point x="581" y="440"/>
      <point x="582" y="430" type="curve" smooth="yes"/>
      <point x="582" y="415"/>
      <point x="595" y="400"/>
    </contour>
    <contour>
      <point x="621" y="350" type="line" smooth="yes"/>
      <point x="595" y="350"/>
      <point x="582" y="335"/>
      <point x="582" y="320" type="curve" smooth="yes"/>
      <point x="581" y="310"/>
      <point x="588" y="300"/>
      <point x="613" y="288" type="curve" smooth="yes"/>
      <point x="650" y="270" type="line" smooth="yes"/>
      <point x="672" y="259"/>
      <point x="683" y="237"/>
      <point x="664" y="205" type="curve" smooth="yes"/>
      <point x="625" y="137"/>
      <point x="552" y="81"/>
      <point x="468" y="55" type="curve" smooth="yes"/>
      <point x="439" y="46"/>
      <point x="427" y="35"/>
      <point x="427" y="20" type="curve" smooth="yes"/>
      <point x="427" y="9"/>
      <point x="435" y="0"/>
      <point x="457" y="0" type="curve" smooth="yes"/>
      <point x="750" y="0" type="line"/>
      <point x="750" y="350" type="line"/>
    </contour>
    <contour>
      <point x="505" y="509" type="curve" smooth="yes"/>
      <point x="470" y="542"/>
      <point x="425" y="562"/>
      <point x="375" y="562" type="curve" smooth="yes"/>
      <point x="305" y="562"/>
      <point x="243" y="522"/>
      <point x="216" y="470" type="curve" smooth="yes"/>
      <point x="208" y="455"/>
      <point x="214" y="438"/>
      <point x="240" y="438" type="curve"/>
      <point x="377" y="438" type="line"/>
      <point x="448" y="438"/>
      <point x="519" y="450"/>
      <point x="519" y="477" type="curve" smooth="yes"/>
      <point x="519" y="489"/>
      <point x="514" y="500"/>
    </contour>
    <contour>
      <point x="505" y="241" type="curve" smooth="yes"/>
      <point x="514" y="250"/>
      <point x="519" y="261"/>
      <point x="519" y="273" type="curve" smooth="yes"/>
      <point x="519" y="300"/>
      <point x="448" y="312"/>
      <point x="377" y="312" type="curve"/>
      <point x="240" y="312" type="line"/>
      <point x="214" y="312"/>
      <point x="208" y="295"/>
      <point x="216" y="280" type="curve" smooth="yes"/>
      <point x="243" y="228"/>
      <point x="305" y="188"/>
      <point x="375" y="188" type="curve" smooth="yes"/>
      <point x="425" y="188"/>
      <point x="470" y="208"/>
    </contour>
    <component base="jointure"/>
  </outline>
</glyph>
<glyph name="j" format="1">
  <advance width="375"/>
  <unicode hex="006A"/>
  <outline>
    <contour>
      <point x="264" y="288" type="curve" smooth="yes"/>
      <point x="264.0" y="131.72427983539094"/>
      <point x="221.66034744928155" y="75.32617018463625"/>
      <point x="143" y="43" type="curve" smooth="yes"/>
      <point x="122" y="34"/>
      <point x="116" y="27"/>
      <point x="116" y="16" type="curve" smooth="yes"/>
      <point x="116" y="7"/>
      <point x="123" y="0"/>
      <point x="142" y="0" type="curve"/>
      <point x="375" y="0" type="line"/>
      <point x="375" y="350" type="line"/>
      <point x="316" y="350" type="line" smooth="yes"/>
      <point x="284" y="350"/>
      <point x="264" y="325"/>
    </contour>
    <contour>
      <point x="375" y="400" type="line"/>
      <point x="375" y="750" type="line"/>
      <point x="313" y="750" type="line" smooth="yes"/>
      <point x="285" y="750"/>
      <point x="263" y="728"/>
      <point x="263" y="700" type="curve" smooth="yes"/>
      <point x="263" y="452" type="line" smooth="yes"/>
      <point x="263" y="423"/>
      <point x="285" y="400"/>
      <point x="313" y="400" type="curve" smooth="yes"/>
    </contour>
    <contour>
      <point x="30" y="106" type="line" smooth="yes"/>
      <point x="30" y="141"/>
      <point x="42" y="163"/>
      <point x="72" y="182" type="curve" smooth="yes"/>
      <point x="106" y="204"/>
      <point x="112.0" y="227.0"/>
      <point x="112.0" y="271.0" type="curve" smooth="yes"/>
      <point x="112.0" y="700.0" type="line" smooth="yes"/>
      <point x="112.0" y="728.0"/>
      <point x="90.0" y="750.0"/>
      <point x="62.0" y="750.0" type="curve" smooth="yes"/>
      <point x="0.0" y="750.0" type="line"/>
      <point x="0.0" y="400.0" type="line"/>
      <point x="21.0" y="400.0" type="line"/>
      <point x="54.0" y="400.0"/>
      <point x="66.0" y="388.0"/>
      <point x="66.0" y="375.0" type="curve"/>
      <point x="66.0" y="362.0"/>
      <point x="54.0" y="350.0"/>
      <point x="21.0" y="350.0" type="curve"/>
      <point x="0.0" y="350.0" type="line"/>
      <point x="0.0" y="0.0" type="line"/>
      <point x="56.72727272727273" y="0.0"/>
      <point x="78.0" y="9.0"/>
      <point x="78" y="20" type="curve" smooth="yes"/>
      <point x="78.0" y="42.0"/>
      <point x="30" y="26.0"/>
      <point x="30" y="81" type="curve" smooth="yes"/>
    </contour>
    <component base="jointure"/>
  </outline>
</glyph>
<glyph name="l" format="1">
  <advance width="375"/>
  <unicode hex="006C"/>
  <outline>
    <contour>
      <point x="0" y="750" type="line"/>
      <point x="0" y="400" type="line"/>
      <point x="22" y="400" type="line" smooth="yes"/>
      <point x="50" y="400"/>
      <point x="72" y="422"/>
      <point x="72" y="450" type="curve" smooth="yes"/>
      <point x="72" y="700" type="line" smooth="yes"/>
      <point x="72" y="728"/>
      <point x="50" y="750"/>
      <point x="22" y="750" type="curve" smooth="yes"/>
    </contour>
    <contour>
      <point x="225" y="300" type="curve" smooth="yes"/>
      <point x="225" y="189" type="line" smooth="yes"/>
      <point x="225" y="161"/>
      <point x="247" y="139"/>
      <point x="275" y="139" type="curve" smooth="yes"/>
      <point x="303" y="139" type="line" smooth="yes"/>
      <point x="363" y="139"/>
      <point x="299" y="0"/>
      <point x="375" y="0" type="curve"/>
      <point x="375" y="350" type="line"/>
      <point x="275" y="350" type="line" smooth="yes"/>
      <point x="247" y="350"/>
      <point x="225" y="328"/>
    </contour>
    <contour>
      <point x="0" y="350" type="line"/>
      <point x="0" y="0" type="line"/>
      <point x="22" y="0" type="line" smooth="yes"/>
      <point x="50" y="0"/>
      <point x="72" y="22"/>
      <point x="72" y="50" type="curve" smooth="yes"/>
      <point x="72" y="298" type="line" smooth="yes"/>
      <point x="72" y="327"/>
      <point x="50" y="350"/>
      <point x="22" y="350" type="curve" smooth="yes"/>
    </contour>
    <contour>
      <point x="375" y="750" type="line"/>
      <point x="275" y="750" type="line" smooth="yes"/>
      <point x="247" y="750"/>
      <point x="225" y="728"/>
      <point x="225" y="700" type="curve" smooth="yes"/>
      <point x="225" y="450" type="line" smooth="yes"/>
      <point x="225" y="422"/>
      <point x="247" y="400"/>
      <point x="275" y="400" type="curve" smooth="yes"/>
      <point x="375" y="400" type="line"/>
    </contour>
    <component base="jointure"/>
  </outline>
</glyph>
<glyph name="m" format="1">
  <advance width="1125"/>
  <unicode hex="006D"/>
  <outline>
    <contour>
      <point x="0" y="0" type="line"/>
      <point x="52" y="0" type="line" smooth="yes"/>
      <point x="80" y="0"/>
      <point x="102" y="22"/>
      <point x="102" y="50" type="curve" smooth="yes"/>
      <point x="102" y="300" type="line" smooth="yes"/>
      <point x="102" y="328"/>
      <point x="80" y="350"/>
      <point x="52" y="350" type="curve" smooth="yes"/>
      <point x="0" y="350" type="line"/>
    </contour>
    <contour>
      <point x="1023" y="50" type="line" smooth="yes"/>
      <point x="1023" y="22"/>
      <point x="1045" y="0"/>
      <point x="1073" y="0" type="curve" smooth="yes"/>
      <point x="1125" y="0" type="line"/>
      <point x="1125" y="350" type="line"/>
      <point x="1073" y="350" type="line" smooth="yes"/>
      <point x="1045" y="350"/>
      <point x="1023" y="328"/>
      <point x="1023" y="300" type="curve" smooth="yes"/>
    </contour>
    <contour>
      <point x="0" y="400" type="line"/>
      <point x="52" y="400" type="line" smooth="yes"/>
      <point x="80" y="400"/>
      <point x="102" y="422"/>
      <point x="102" y="450" type="curve" smooth="yes"/>
      <point x="102" y="700" type="line" smooth="yes"/>
      <point x="102" y="728"/>
      <point x="80" y="750"/>
      <point x="52" y="750" type="curve" smooth="yes"/>
      <point x="0" y="750" type="line"/>
    </contour>
    <contour>
      <point x="1023" y="450" type="line" smooth="yes"/>
      <point x="1023" y="422"/>
      <point x="1045" y="400"/>
      <point x="1073" y="400" type="curve" smooth="yes"/>
      <point x="1125" y="400" type="line"/>
      <point x="1125" y="750" type="line"/>
      <point x="1073" y="750" type="line" smooth="yes"/>
      <point x="1045" y="750"/>
      <point x="1023" y="728"/>
      <point x="1023" y="700" type="curve" smooth="yes"/>
    </contour>
    <contour>
      <point x="219" y="42" type="line" smooth="yes"/>
      <point x="219" y="17"/>
      <point x="236" y="0"/>
      <point x="261" y="0" type="curve" smooth="yes"/>
      <point x="341" y="0" type="line" smooth="yes"/>
      <point x="379" y="0"/>
      <point x="396" y="23"/>
      <point x="391" y="50" type="curve" smooth="yes"/>
      <point x="281" y="600" type="line" smooth="yes"/>
      <point x="276" y="627"/>
      <point x="265" y="650"/>
      <point x="244" y="650" type="curve" smooth="yes"/>
      <point x="225" y="650"/>
      <point x="219" y="629"/>
      <point x="219" y="597" type="curve" smooth="yes"/>
    </contour>
    <contour>
      <point x="906" y="42" type="curve" smooth="yes"/>
      <point x="906" y="597" type="line" smooth="yes"/>
      <point x="906" y="629"/>
      <point x="900" y="650"/>
      <point x="881" y="650" type="curve" smooth="yes"/>
      <point x="860" y="650"/>
      <point x="849" y="627"/>
      <point x="844" y="600" type="curve" smooth="yes"/>
      <point x="734" y="50" type="line" smooth="yes"/>
      <point x="729" y="23"/>
      <point x="746" y="0"/>
      <point x="784" y="0" type="curve" smooth="yes"/>
      <point x="864" y="0" type="line" smooth="yes"/>
      <point x="889" y="0"/>
      <point x="906" y="17"/>
    </contour>
    <contour>
      <point x="602" y="150" type="curve" smooth="yes"/>
      <point x="712" y="700" type="line" smooth="yes"/>
      <point x="717" y="727"/>
      <point x="700" y="750"/>
      <point x="662" y="750" type="curve"/>
      <point x="463" y="750" type="line"/>
      <point x="425" y="750"/>
      <point x="408" y="727"/>
      <point x="413" y="700" type="curve" smooth="yes"/>
      <point x="523" y="150" type="line" smooth="yes"/>
      <point x="528" y="123"/>
      <point x="539" y="100"/>
      <point x="562" y="100" type="curve" smooth="yes"/>
      <point x="563" y="100" type="line" smooth="yes"/>
      <point x="585" y="100"/>
      <point x="597" y="123"/>
    </contour>
    <component base="jointure"/>
  </outline>
</glyph>
